<?xml version="1.0" encoding="UTF-8"?>
<svg version="1.1" xmlns="http://www.w3.org/2000/svg" xmlns:xlink="http://www.w3.org/1999/xlink">
<defs>

</defs>
<symbol id="i-arrow-slider" viewBox="0 0 27 24" xmlns="http://www.w3.org/2000/svg"><path fill-rule="evenodd" clip-rule="evenodd" d="M27 12a1 1 0 00-1-1H1a1 1 0 100 2h25a1 1 0 001-1z"/><path fill-rule="evenodd" clip-rule="evenodd" d="M13.263.324a1 1 0 00.061 1.413L24.52 12 13.324 22.263a1 1 0 001.352 1.474l12-11a1 1 0 000-1.474l-12-11a1 1 0 00-1.413.061z"/></symbol>
<symbol id="i-arrow-slim" viewBox="0 0 12 8" xmlns="http://www.w3.org/2000/svg"><path fill-rule="evenodd" clip-rule="evenodd" d="M.293.793a1 1 0 011.414 0L6 5.086 10.293.793a1 1 0 111.414 1.414l-5 5a1 1 0 01-1.414 0l-5-5a1 1 0 010-1.414z"/></symbol>
<symbol id="i-arrow" viewBox="0 0 27 14" xmlns="http://www.w3.org/2000/svg"><path fill-rule="evenodd" clip-rule="evenodd" d="M.793.293a1 1 0 011.414 0L13.5 11.586 24.793.293a1 1 0 111.414 1.414l-12 12a1 1 0 01-1.414 0l-12-12a1 1 0 010-1.414z"/></symbol>
<symbol id="i-banner" viewBox="0 0 300 300" xmlns="http://www.w3.org/2000/svg"><path d="M111.742 167.918a.018.018 0 00-.024.018v36.628a6.27 6.27 0 01-6.112 6.11H68.87a6.28 6.28 0 01-4.28-1.828 6.247 6.247 0 01-1.84-4.266v-36.662c.082-3.34 2.779-6.02 6.12-6.102h36.769c3.35.082 6.046 2.77 6.128 6.102 0 .004-.004.007-.008.006l-.017-.006zm48.358-91.63c.006-.004.013 0 .013.007a51.272 51.272 0 01-7.861 27.31l.123-.212a44.547 44.547 0 01-8.342 9.027l-.082.065a78.051 78.051 0 01-8.514 6.469l-.294.18c-2.25 1.374-5.366 3.18-9.347 5.417a30.291 30.291 0 00-10.418 9.809l-.074.114a20.63 20.63 0 00-4.207 10.127l-.009.098a7.953 7.953 0 01-1.834 4.964c-.002.002-.005 0-.004-.002a5.333 5.333 0 01-4.281 2.362H68.2a4.603 4.603 0 01-3.909-2.784.146.146 0 01-.007-.021.15.15 0 00-.017-.041 11.329 11.329 0 01-1.598-5.7v-6.884a35.436 35.436 0 019.96-23.912l-.008.008a64.894 64.894 0 0121.513-16.4l.392-.163a37.813 37.813 0 0012.861-8.546l.008-.008a17.027 17.027 0 003.832-11.642v.04a13.773 13.773 0 00-2.08-6.53 13.83 13.83 0 00-4.971-4.729.877.877 0 01-.14-.078 28.134 28.134 0 00-16.422-4.835h.024a28.905 28.905 0 00-16.66 4.498l.115-.074a104.613 104.613 0 00-16.186 17.313l-.204.285a5.96 5.96 0 01-4.748 2.444 7.345 7.345 0 01-3.856-1.238l.024.016-25.116-19.089a5.962 5.962 0 01-2.37-3.78l-.008-.032a6.071 6.071 0 01.858-4.294l-.017.024c13.54-24.433 39.212-40.703 68.708-40.703.841 0 1.675.017 2.508.041h-.122a68.491 68.491 0 0125.116 4.905l-.465-.163a83.404 83.404 0 0122.526 12.799l-.163-.13a63.909 63.909 0 0116.063 19.137l.164.334c3.944 6.978 6.272 15.316 6.283 24.19 0 .007.007.01.012.007z"/><path opacity=".3" d="M264.719 124.987c-.004-.002-.009.002-.009.006v14.21c-.031 1.295-1.059 2.338-2.329 2.37h-13.994a2.373 2.373 0 01-1.631-.709 2.442 2.442 0 01-.7-1.655v-14.222c.031-1.296 1.058-2.336 2.331-2.368h14.007c1.276.032 2.303 1.075 2.334 2.368 0 .001-.001.002-.003.002l-.006-.002zm18.422-35.546c.002-.002.005 0 .005.002a20.157 20.157 0 01-2.994 10.595l.046-.082a17.144 17.144 0 01-3.178 3.501l-.031.026a29.854 29.854 0 01-3.243 2.509l-.112.07c-.857.533-2.044 1.233-3.561 2.101a11.617 11.617 0 00-3.969 3.806l-.028.044a8.077 8.077 0 00-1.603 3.928l-.003.038a3.12 3.12 0 01-.7 1.925 2.02 2.02 0 01-1.631.917h-14.007a1.764 1.764 0 01-1.492-1.089l-.007-.016a4.453 4.453 0 01-.608-2.211v-2.67a13.879 13.879 0 013.794-9.277l-.003.004a24.763 24.763 0 018.195-6.362l.15-.064c1.84-.75 3.508-1.88 4.899-3.315l.003-.003a6.683 6.683 0 001.46-4.517v.016a5.416 5.416 0 00-.792-2.533 5.316 5.316 0 00-1.948-1.865 10.575 10.575 0 00-6.256-1.875h.01a10.863 10.863 0 00-6.347 1.744l.044-.028a40.254 40.254 0 00-6.166 6.716l-.078.11a2.28 2.28 0 01-.794.692 2.244 2.244 0 01-1.015.257 2.766 2.766 0 01-1.469-.48l.009.005-9.568-7.404a2.315 2.315 0 01-.902-1.467l-.004-.013a2.396 2.396 0 01.327-1.665l-.006.01c5.158-9.48 14.938-15.79 26.174-15.79.321 0 .638.006.956.015h-.047c3.279.017 6.525.662 9.568 1.903l-.177-.063a31.63 31.63 0 018.582 4.965l-.063-.05a24.684 24.684 0 016.12 7.423l.062.13c1.503 2.707 2.39 5.941 2.394 9.384 0 .002.002.004.004.002z"/><path opacity=".6" d="M215.59 259.399c-.007-.002-.015.003-.015.011v21.787a3.73 3.73 0 01-3.637 3.634h-21.867a3.738 3.738 0 01-2.548-1.087 3.715 3.715 0 01-1.095-2.537v-21.808a3.73 3.73 0 013.643-3.63h21.886a3.734 3.734 0 013.648 3.63c0 .002-.003.004-.005.003l-.01-.003zm28.785-54.504c.003-.002.007 0 .007.004a30.482 30.482 0 01-4.679 16.245l.073-.126a26.474 26.474 0 01-4.965 5.369l-.049.039a46.421 46.421 0 01-5.068 3.848l-.175.107c-1.339.817-3.194 1.891-5.564 3.222a18.02 18.02 0 00-6.201 5.835l-.044.068a12.257 12.257 0 00-2.504 6.023l-.005.059a4.727 4.727 0 01-1.094 2.951 3.173 3.173 0 01-2.549 1.405h-21.886a2.741 2.741 0 01-2.327-1.656l-.004-.013a.082.082 0 00-.01-.024 6.739 6.739 0 01-.951-3.39v-4.095a21.074 21.074 0 015.928-14.224l-.004.005a38.631 38.631 0 0112.805-9.755l.234-.097a22.52 22.52 0 007.655-5.083l.005-.005a10.132 10.132 0 002.281-6.925v.024a8.2 8.2 0 00-4.198-6.697.521.521 0 01-.083-.047 16.756 16.756 0 00-9.775-2.876h.015a17.218 17.218 0 00-9.917 2.675l.068-.043a62.247 62.247 0 00-9.635 10.298l-.121.169a3.552 3.552 0 01-2.826 1.454 4.378 4.378 0 01-2.295-.736l.014.009-14.95-11.354a3.55 3.55 0 01-1.411-2.249l-.005-.019a3.614 3.614 0 01.511-2.554l-.01.014c8.059-14.533 23.34-24.211 40.898-24.211.501 0 .997.01 1.493.025h-.073a40.787 40.787 0 0114.95 2.917l-.277-.097a49.657 49.657 0 0113.409 7.613l-.098-.077a38.015 38.015 0 019.562 11.383l.097.199c2.348 4.151 3.734 9.11 3.74 14.389 0 .004.005.006.008.004z"/></symbol>
<symbol id="i-burger-close" viewBox="0 0 18 18" fill="none" xmlns="http://www.w3.org/2000/svg"><path d="M15.667 2.333L2.333 15.667m0-13.334l13.334 13.334" stroke="#fff" stroke-width="2" stroke-linecap="round" stroke-linejoin="round"/></symbol>
<symbol id="i-burger" fill="none" xmlns="http://www.w3.org/2000/svg"><path d="M1 23.611h28M1 12.5h28M1 1.389h28" stroke="#fff" stroke-width="2" stroke-linecap="round" stroke-linejoin="round"/></symbol>
<symbol id="i-card-button-icon-done" viewBox="0 0 14 16" xmlns="http://www.w3.org/2000/svg"><path fill-rule="evenodd" clip-rule="evenodd" d="M3.182 1.882c-.571-.344-1.432.045-1.432.967V13.15c0 .922.86 1.311 1.432.967l8.552-5.151c.688-.415.688-1.52 0-1.934l-8.552-5.15zM.25 2.85C.25.946 2.23-.443 3.956.597l8.552 5.152c1.656.997 1.656 3.505 0 4.503l-8.552 5.15C2.23 16.443.25 15.055.25 13.153V2.848z"/></symbol>
<symbol id="i-card-button-icon" viewBox="0 0 16 16" xmlns="http://www.w3.org/2000/svg"><path d="M2.908 1.454a1.455 1.455 0 00-1.454 1.454V13.09a1.455 1.455 0 001.454 1.454H13.09a1.455 1.455 0 001.454-1.454V9.817a.727.727 0 111.455 0v3.273a2.91 2.91 0 01-2.91 2.909H2.91a2.91 2.91 0 01-2.91-2.91V2.91a2.91 2.91 0 012.91-2.91H6.18a.727.727 0 110 1.455H2.908zM9.09.726A.727.727 0 019.817 0h5.455a.727.727 0 01.727.727v5.455a.727.727 0 11-1.455 0v-3.7l-4.213 4.214a.728.728 0 11-1.028-1.028l4.213-4.213H9.817A.727.727 0 019.09.726z"/></symbol>
<symbol id="i-close" viewBox="0 0 20 20" xmlns="http://www.w3.org/2000/svg"><path d="M18.76 2.92a1.188 1.188 0 10-1.68-1.68L10 8.32 2.92 1.24a1.188 1.188 0 00-1.68 1.68L8.32 10l-7.08 7.08a1.188 1.188 0 001.68 1.68L10 11.68l7.08 7.08a1.188 1.188 0 101.68-1.68L11.68 10l7.08-7.08z"/></symbol>
<symbol id="i-error" fill="none" viewBox="0 0 56 56" xmlns="http://www.w3.org/2000/svg"><path d="M54.381 6.234a3.678 3.678 0 000-5.164 3.59 3.59 0 00-5.113 0L27.72 22.835 6.172 1.07a3.59 3.59 0 00-5.113 0 3.678 3.678 0 000 5.164L22.607 28 1.059 49.766a3.678 3.678 0 000 5.164 3.59 3.59 0 005.113 0L27.72 33.165 49.268 54.93a3.59 3.59 0 005.113 0 3.678 3.678 0 000-5.164L32.833 28z" fill="#ff4d4d"/></symbol>
<symbol id="i-exit-mini" xmlns="http://www.w3.org/2000/svg" fill="none" viewBox="0 0 20 20"><path fill="#EA4335" fill-rule="evenodd" d="M2.75 1.5c-.329 0-.646.132-.88.37-.236.238-.37.563-.37.903v14.163c0 .34.134.665.37.903.234.238.551.37.88.37h4a.75.75 0 010 1.5h-4a2.738 2.738 0 01-1.948-.815A2.785 2.785 0 010 16.936V2.773C0 2.041.288 1.336.802.815A2.738 2.738 0 012.75 0h4a.75.75 0 010 1.5h-4zm10.473 2.763a.75.75 0 011.06.006l5 5.058a.75.75 0 010 1.055l-5 5.058a.75.75 0 11-1.066-1.055l4.478-4.53-4.478-4.531a.75.75 0 01.006-1.061z" clip-rule="evenodd"/><path fill="#EA4335" fill-rule="evenodd" d="M5.998 9.854a.75.75 0 01.75-.75h12a.75.75 0 010 1.5h-12a.75.75 0 01-.75-.75z" clip-rule="evenodd"/></symbol>
<symbol id="i-eye-icon" xmlns="http://www.w3.org/2000/svg"><path d="M17.534 17.73l-2.624-2.54a5.863 5.863 0 01-3.162.187 5.742 5.742 0 01-2.774-1.479 5.462 5.462 0 01-1.528-2.687 5.344 5.344 0 01.194-3.062L4.293 4.906C1.524 7.29 0 10 0 10s4.875 8.656 13 8.656a11.74 11.74 0 004.534-.925zM8.466 2.27A11.74 11.74 0 0113 1.344C21.125 1.344 26 10 26 10s-1.526 2.709-4.292 5.096l-3.35-3.245c.362-.983.43-2.044.193-3.062A5.463 5.463 0 0017.024 6.1a5.742 5.742 0 00-2.775-1.479 5.863 5.863 0 00-3.162.188L8.467 2.27v-.002z"/><path d="M8.978 9.443a3.817 3.817 0 00.168 1.801c.2.58.535 1.107.981 1.539.446.432.99.757 1.589.95a4.188 4.188 0 001.86.162l-4.6-4.452h.002zm8.044 1.114l-4.597-4.454a4.188 4.188 0 011.86.162 4.085 4.085 0 011.588.951c.446.432.783.959.982 1.538.2.58.257 1.197.167 1.802v.001zM22.176 20L2.676 1.114 3.826 0l19.5 18.886L22.176 20z"/></symbol>
<symbol id="i-lk-person" viewBox="0 0 20 20" fill="none" xmlns="http://www.w3.org/2000/svg"><path fill-rule="evenodd" clip-rule="evenodd" d="M14.854 17.341A8.758 8.758 0 0110 18.8a8.759 8.759 0 01-4.855-1.46v-1.188c0-.46.205-.917.598-1.266a2.31 2.31 0 011.53-.559h5.454a2.31 2.31 0 011.53.559c.393.349.597.806.597 1.266v1.19zm1.2-.955v-.234c0-.827-.37-1.603-1-2.163a3.51 3.51 0 00-2.327-.862H7.273c-.862 0-1.7.304-2.328.862-.63.56-1 1.336-1 2.163v.234a8.8 8.8 0 1112.11 0zM20 10c0 5.523-4.477 10-10 10S0 15.523 0 10 4.477 0 10 0s10 4.477 10 10zM10 6.146a2.127 2.127 0 100 4.254 2.127 2.127 0 000-4.254zM6.671 8.273a3.327 3.327 0 116.654 0 3.327 3.327 0 01-6.654 0z" fill="#9AA0A6"/></symbol>
<symbol id="i-magnifier" viewBox="0 0 16 15" fill="none" xmlns="http://www.w3.org/2000/svg"><path fill-rule="evenodd" clip-rule="evenodd" d="M9.1 1.038c2.6 1.8 3.215 5.32 1.375 7.863l4.184 4.063a1.162 1.162 0 010 1.712c-.483.448-1.247.43-1.706-.043l-4.252-4.134a5.875 5.875 0 01-6.266-.254c-2.6-1.8-3.215-5.32-1.374-7.863C2.9-.16 6.5-.763 9.1 1.038zM2.043 5.65c.002 2.01 1.667 3.637 3.721 3.636h.003c2.055-.003 3.718-1.635 3.715-3.644-.004-2.007-1.669-3.632-3.72-3.631-2.055 0-3.72 1.63-3.719 3.639z" fill="#fff"/></symbol>
<symbol id="i-modal-info" viewBox="0 0 80 80" xmlns="http://www.w3.org/2000/svg"><path fill-rule="evenodd" clip-rule="evenodd" d="M40 75.115c19.393 0 35.115-15.722 35.115-35.115S59.393 4.886 40 4.886 4.886 20.605 4.886 40c0 19.393 15.72 35.115 35.114 35.115zM40 80c22.091 0 40-17.909 40-40S62.091 0 40 0 0 17.909 0 40s17.909 40 40 40z"/><path d="M44.514 20.331c.053-2.443-1.843-4.453-4.2-4.453-2.358 0-4.253 2.008-4.201 4.45l.536 25.12c.044 2.059 1.668 3.704 3.656 3.704 1.987 0 3.61-1.644 3.655-3.702l.553-25.119zm-4.21 43.18c2.62 0 4.863-2.255 4.885-5.062-.022-2.761-2.265-5.017-4.886-5.017-2.709 0-4.907 2.256-4.885 5.017-.022 2.807 2.176 5.063 4.886 5.063z"/></symbol>
<symbol id="i-online-icon" viewBox="0 0 16 14" xmlns="http://www.w3.org/2000/svg"><path d="M3.453 1.167a.726.726 0 00-1.027-.01A8.225 8.225 0 000 7a8.228 8.228 0 002.604 6.015.725.725 0 001.01-.025c.316-.316.277-.819-.027-1.11A6.729 6.729 0 011.5 7c0-1.846.741-3.52 1.943-4.738.29-.295.32-.785.01-1.095z"/><path d="M5.214 2.93a.714.714 0 00-1.008-.017A5.733 5.733 0 002.5 7a5.73 5.73 0 001.893 4.264.713.713 0 00.983-.037c.328-.328.267-.844-.041-1.134A4.237 4.237 0 014 7c0-1.15.457-2.194 1.2-2.96.286-.294.333-.793.014-1.11zM10.786 2.93a.714.714 0 011.008-.017A5.733 5.733 0 0113.5 7a5.73 5.73 0 01-1.893 4.264.713.713 0 01-.983-.037c-.328-.328-.267-.844.04-1.134A4.237 4.237 0 0012 7c0-1.15-.457-2.194-1.2-2.96-.286-.294-.333-.793-.014-1.11z"/><path d="M12.547 1.167a.725.725 0 011.027-.01A8.226 8.226 0 0116 7a8.23 8.23 0 01-2.604 6.015.725.725 0 01-1.01-.025c-.316-.316-.277-.819.028-1.11A6.729 6.729 0 0014.5 7c0-1.846-.74-3.52-1.943-4.738-.29-.295-.32-.785-.01-1.095zM8 5.5a1.5 1.5 0 100 3 1.5 1.5 0 000-3z"/></symbol>
<symbol id="i-soldout" fill="none" viewBox="0 0 56 56" xmlns="http://www.w3.org/2000/svg"><path d="M29.557 53.296l24.438-24.492c1.88-1.88 2.005-2.958 2.005-5.59v-9.527c0-2.657-.627-3.484-2.531-5.39l-5.765-5.765C45.824.652 44.997 0 42.34 0h-9.55c-2.631 0-3.684.125-5.564 2.005L2.713 26.472c-3.584 3.585-3.66 7.295.025 10.955l15.866 15.844c3.684 3.66 7.369 3.61 10.953.025zm-2.707-3.034c-1.804 1.805-3.71 1.83-5.539-.025L5.746 34.695c-1.83-1.83-1.805-3.76-.025-5.54L30.058 4.863c.502-.501 1.028-.827 1.88-.827H42.49c.777 0 1.304.3 1.83.827l6.843 6.819c.526.526.802 1.053.802 1.83V24.09c0 .827-.301 1.354-.802 1.855zm12.557-30.207c1.955 0 3.434-1.53 3.434-3.435 0-1.93-1.479-3.434-3.434-3.434-1.98 0-3.433 1.504-3.433 3.434 0 1.906 1.453 3.435 3.433 3.435z" fill="#86ff00"/></symbol>
<symbol id="i-succes-icon" viewBox="0 0 12 12" fill="none" xmlns="http://www.w3.org/2000/svg"><path d="M11 5.543v.46a5 5 0 11-2.965-4.57" stroke="#000" stroke-linecap="round" stroke-linejoin="round"/><path d="M11 2.003L6 7.008l-1.5-1.5" stroke="#000" stroke-linecap="round" stroke-linejoin="round"/></symbol>
<symbol id="i-tooltip" viewBox="0 0 16 16" xmlns="http://www.w3.org/2000/svg"><path d="M7.213 6.083h1.562V13H7.212V6.083zM8 4.943a.997.997 0 01-.713-.272.947.947 0 01-.287-.7c0-.276.096-.505.287-.686A.972.972 0 018 3c.283 0 .52.09.713.272a.85.85 0 01.287.66c0 .286-.096.527-.287.726A.946.946 0 018 4.943z"/><path fill-rule="evenodd" clip-rule="evenodd" d="M8 15A7 7 0 108 1a7 7 0 000 14zm0 1A8 8 0 108 0a8 8 0 000 16z"/></symbol>
</svg>