<svg fill="none" viewBox="0 0 455 639" xmlns="http://www.w3.org/2000/svg">
<g clip-path="url(#a)" clip-rule="evenodd" fill="#A5FB04" fill-rule="evenodd">
<path d="m224.95-4.1088c2.08 3.0923 0.954 7.2962-1.439 9.4647-3.393-0.80635-4.73-11.054 1.439-9.4647z"/>
<path d="m204.84 79.532c1.462 2.2233 1.282 3.2411 0.711 6.3099-2.619 0.5167-3.823-0.5323-5.028-1.5657-0.375-3.5855 1.056-5.1591 4.317-4.7442z"/>
<path d="m268.05 83.478c1.72 2.1999 2.815 5.4801 0.719 7.8913-3.253-0.3757-5.122-2.2625-5.036-6.3099 1.509-0.4619 2.057-1.9493 4.317-1.5814z"/>
<path d="m237.17 86.633c-0.117 2.4348 1.697 4.4624 0 6.31h-3.597c0.133-2.787-3.034-4.3137-1.431-6.31 1.352-1.5657 3.393-0.3914 5.028 0z"/>
<path d="m245.78 91.369c-11.73 0.9002 0.273-12.244 0 0z"/>
<path d="m279.55 87.424c0.782 2.9436-1.783 2.2468-1.439 4.6972h-3.589c-0.618-0.6419-0.43-2.1607-1.439-2.3486 0.532-3.93 3.949-4.3136 6.467-2.3486z"/>
<path d="m192.62 89.788c1.658-0.2427 0.782 2.2781 2.159 2.3485-0.954 2.1059-1.564 4.6189-5.028 3.9144 0.117-0.9238-0.165-1.4092-0.728-1.5658 0-2.8574 2.518-2.9827 3.597-4.6971z"/>
<path d="m213.46 89.788c1.759 1.7849 0.25 3.4681 1.439 4.6972-0.665 1.3778-2.245 1.7379-4.309 1.5657-2.323-2.6304-2.674-6.8109 2.87-6.2629z"/>
<path d="m256.56 93.733c4.293-0.501 2.275 5.9184 7.898 3.9143 0 1.8632 1.243 2.3486 0.727 4.6974-3.706 3.452-8.453 0.109-10.064-4.6974-0.109-1.9258 1.134-2.4112 1.439-3.9143z"/>
<path d="m238.6 100.83c-2.221 0.086-3.433-0.9632-5.029-1.566-0.727-8.3296 10.096-3.3976 5.029 1.566z"/>
<path d="m207 96.896c0 2.0902 0.266 4.501-0.719 5.48-8.649 1.949-4.09-11.547 0.719-5.48z"/>
<path d="m249.38 96.896c0.782 3.4679-3.214 4.1339-4.317 3.1319v-2.349c0.861-0.9081 2.542-0.8925 4.317-0.7829z"/>
<path d="m174.66 97.679c3.761-0.274 4.488 6.0592 2.158 7.8912-2.26 0.376-1.9-2.122-3.589-2.349-0.422-2.849 0.829-3.8356 1.431-5.5422z"/>
<path d="m279.55 107.94h-5.028c-0.75-10.921 10.94-7.351 5.028 0z"/>
<path d="m181.85 101.62c1.642 1.088 4.481 0.869 4.309 3.915-0.735 0.782-1.455 1.565-2.151 2.348-3.323-0.383-4.316-3.797-2.158-6.263z"/>
<path d="m198.37 104c-0.117 0.916 0.156 1.402 0.719 1.566-0.422 5.003-5.192 7.829-7.905 3.914-0.071-4.572 3.065-7.852 7.186-5.48z"/>
<path d="m311.16 106.36c-2.823 2.685-6.435 4.501-7.186 9.465-3.746 0.18-4.692-2.748-6.467-4.697 4.011-1.472 10.142-12.722 13.653-4.768z"/>
<path d="m235.76 104.78c3.613 0.778 5.769 3.145 6.467 7.101-4.598 3.256-7.991-3.578-6.467-7.101z"/>
<path d="m295.35 107.94c-0.25 7.163-9.11 4.275-6.467-1.565 3.777-0.862 3.801 7e-3 6.467 1.565z"/>
<path d="m263.03 112.67c-0.666 0.652-1.16 1.459-1.439 2.348-9.915-0.148 0.485-13.246 1.439-2.348z"/>
<path d="m219.2 115.04c0.391 2.787-0.61 4.063-2.159 4.736-2.674 0.83-2.345-1.667-3.589-2.349-2.619 0-1.564 4.111-5.028 3.132-1.196-2.349-0.539-6.772-1.431-9.465 4.52-3.719 7.319 3.327 12.207 3.946z"/>
<path d="m325.52 114.25c0.837 5.12-1.446 6.819-5.739 6.31-0.445-0.555-0.686-1.246-0.686-1.957s0.241-1.402 0.686-1.957c-2.581 0.219-5.591 2.763-7.906 0.783-0.782 2.74-4.95 5.918-7.186 2.348-0.634-5.675 8.265-3.366 6.467-7.899 6.709-4.681 7.491 1.636 14.364 2.372z"/>
<path d="m187.6 115.04c0.344 2.482-1.025 3.084-1.439 4.736-2.925-0.469-4.601-2.312-5.028-5.527 1.658-1.589 5.505-0.806 6.467 0.791z"/>
<path d="m200.52 113.46h4.317c1.22 2.6 0 3.915-1.439 5.527-3.55 0.447-4.105-2.857-2.878-5.527z"/>
<path d="m252.25 114.25c0.227 6.067 4.918 7.218 6.467 11.837 0 3.695-2.346 4.775-5.028 5.527-2.925-4.58-2.526-10.263-6.475-16.573 1.838-1.143 2.823-1.91 5.036-0.791z"/>
<path d="m152.4 115.04c-0.594 2.231 1.009 2.043 0.712 3.914-1.368 0.337-1.799 1.699-3.589 1.566-0.634-1.401-2.01-2.004-1.439-4.736 0.876-0.869 2.541-0.854 4.316-0.744z"/>
<path d="m178.26 124.51c-3.065-2.13-4.183-2.56-7.905-0.783-0.17-0.524-0.45-1.005-0.823-1.411-0.372-0.405-0.828-0.725-1.336-0.938 0.141-10.615 17.595-4.556 10.064 3.132z"/>
<path d="m278.11 116.62c0 2.098 0.274 4.51-0.72 5.527-5.239-1.221-5.614-0.665-10.056-0.783-1.235-0.477 0.055-3.742-1.438-3.914 2.924-4.447 7.858-0.462 12.214-0.83z"/>
<path d="m163.89 116.62c0.829 0.932 0.782 2.795 0.719 4.697-5.552 2.944-7.671-5.393-0.719-4.697z"/>
<path d="m237.88 119.78c-5.2 12.933-10.299-8.697 0 0z"/>
<path d="m286.02 126.88c-2.979 1.612-6.99 0.571-6.467-3.915 2.276-3.382 7.937-2.779 6.467 3.915z"/>
<path d="m306.14 122.14c-0.782 4.509 2.901 4.18 3.589 7.1-0.156 2.45-3.573 1.331-5.747 1.566-0.837-1.182-0.892-3.234-2.158-3.915-2.448 0.462-1.166 5.026-4.309 4.737-2.706-0.188-3.91-2.059-3.589-5.527 4.793-0.407 6.623-6.905 12.214-3.961z"/>
<path d="m149.52 122.14c3.378 1.284 3.362 6.568-0.72 7.101-0.719-1.057-1.939-1.566-2.158-3.132-0.297-2.724 2.158-2.395 2.878-3.969z"/>
<path d="m166.04 127.66c0.524 2.152-1.431 1.565-1.439 3.131-4.371-0.204-5.474-3.914-7.186-7.108 3.308-1.433 6.655 1.604 8.625 3.977z"/>
<path d="m189.03 122.93c1.087 2.505 1.087 6.419-2.15 6.31-4.567 0-3.512-8.659 2.15-6.31z"/>
<path d="m209.87 125.3h4.308c1.384 2.787-0.234 4.322-1.438 6.318-0.505-0.386-1.088-0.656-1.708-0.791s-1.263-0.133-1.882 8e-3c0.024-2.106-0.273-4.517 0.72-5.535z"/>
<path d="m270.21 125.3c2.464-0.344 4.02 0.313 5.74 0.783v3.914c-2.862-0.783-2.158 2.349-5.028 1.566 0.493-2.129-1.486-1.566-2.151-2.349 0.735-1.002 0.704-2.873 1.439-3.914z"/>
<path d="m312.6 126.09h4.309c0.414 1.652 1.783 2.255 1.431 4.697-0.633 0.345-1.282 0.689-1.431 1.566-3.98-0.032-5.458-2.545-4.309-6.263z"/>
<path d="m263.03 127.66c3.808-0.493 4.418 2.513 6.467 3.954-1.196 1.566-1.931 3.664-4.308 3.914-1.236-2.387-3.723-4.626-2.159-7.868z"/>
<path d="m249.38 136.34c-0.399 2.991-2.018 4.635-5.756 3.915-0.219-2.975-1.492-5.773-3.589-7.892 3.402-6.897 7.319 0.486 9.345 3.977z"/>
<path d="m324.12 130.04c0.367 1.166 1.056 1.988 1.431 3.131-0.469 3.194-4.395 5.809-6.467 4.736 0.461-3.906 0.344-8.501 5.036-7.867z"/>
<path d="m158.87 131.65c0.094 1.942 0.101 3.797-0.727 4.697-6.671 1.339-4.137-8.478 0.727-4.697z"/>
<path d="m289.6 131.65v3.132c-0.853 0.908-2.542 0.892-4.309 0.783-0.721-1.169-0.978-2.566-0.719-3.915 0.954-1.158 4.066-1.158 5.028 0z"/>
<path d="m217.77 131.65c3.127-0.274 3.769 2.169 4.308 4.697-0.727 0.517-0.782 1.817-2.15 1.566 1.04 3.852 4.543 5.003 4.309 10.256-1.158 1.62-3.598 1.832-6.467 1.565-1.846-4.063 0.14-7.484-4.309-8.682v-4.705c2.189-1.636 3.785-0.414 4.309-4.697z"/>
<path d="m294.63 133.21c0.305 1.237 2.26 0.673 1.439 3.132 1.658-1.065 2.346-3.171 5.739-2.349 0.235 1.855 1.142 2.959 0.728 5.519-1.283 0.705-1.83 2.208-4.317 1.566 0.243 2.897 2.854 3.186 2.159 7.101-1.416 1.565-4.106 0.501-5.748 0 0.696-6.263-3.081-7.665-6.467-9.473 1.548-2.521 2.588-5.574 6.467-5.496z"/>
<path d="m166.76 134.78c0.38 3.57-1.056 5.135-4.309 4.697-3.105-2.685 1.024-7.218 4.309-4.697z"/>
<path d="m212.02 138.69c-0.43 2.241-1.718 4.225-3.59 5.527 0.923 2.404 4.301 2.114 4.309 5.527-2.182 2.701-5.474 4.103-7.898 0.783-0.524-2.403 0.735-2.873 0.712-4.697-8.821-5.128 3.706-18.883 6.467-7.14z"/>
<path d="m274.52 146.6c-1.517 0.705-2.127 2.403-4.308 2.349-1.744-4.932-8.055-4.838-10.065-9.473 3.222-6.412 12.895 1.754 14.373 7.124z"/>
<path d="m285.3 136.34c1.04 1.98 1.736 3.131 0.719 5.527-1.697 0.603-4.965 1.565-6.467 0-0.782-2.49-0.062-1.793 0-4.697 2.346 0.133 3.034-1.433 5.748-0.83z"/>
<path d="m251.53 148.18c1.384-1.449-0.61-2.67-1.439-3.915-1.477 0.219-0.672 2.944-2.15 3.132-4.012 0.101-5.849-3.774-3.589-6.31 2.846-0.235 4.387 0.963 5.739 2.348 1.408 0.384 2.346-3.617 0.72-3.914 5.427-5.59 7.82 3.405 6.467 10.263-5.263-1.307-3.3 5.316-6.467 6.31-2.776-0.102-2.831-3.202-5.028-3.914 0.344-2.936 3.003-6.247 5.747-4z"/>
<path d="m242.19 140.26v3.914c-4.981 0.932-11.66 10.53-12.934 0 4.394-0.782 7.827-6.396 12.934-3.914z"/>
<path d="m316.9 143.44c2.346-1.151 6.405-1.158 6.467 2.349-0.524 2.583-2.94 3.077-5.747 3.131-0.994-0.97-0.712-3.382-0.72-5.48z"/>
<path d="m291.04 143.44c1.72 1.01 2.925 2.576 2.87 5.527-2.44 1.214-6.616 2.505-7.179-1.566-0.07-2.982 3.597-1.847 4.309-3.961z"/>
<path d="m150.24 147.39c0.594 1.706 1.861 2.693 1.431 5.527-1.807 2.763-5.842 1.354-7.179-0.783 0.813-2.795 1.658-5.543 5.748-4.744z"/>
<path d="m288.88 151.34c0 8.674-10.627 3.382-10.056-2.349 4.199-1.839 6.037 1.809 10.056 2.349z"/>
<path d="m264.46 153.71c-0.478 0.688-0.73 1.509-0.719 2.348 0.657 0.697 2.127 0.133 4.316 0.783 1.306 2.466 1.729 4.924 0 7.101-4.175 0.461-6.959-2.388-5.747-5.527-1.932-1.284-2.792 0.093-5.028-1.566-1.423-6.819 5.161-6.169 7.178-3.139z"/>
<path d="m150.96 159.23c0.188 4.157-5.106 2.278-5.747 5.527-2.831 0.477-3.738-1.167-5.028-2.349v-3.131c3.62-1.37 9.11-7.594 10.775-0.047z"/>
<path d="m161.02 186.85c-0.571 5.151-8.531 3.437-7.186-2.349 2.048-1.495 7.64-1.44 7.186 2.349z"/>
<path d="m168.2 193.95c-0.579 2.254-2.448 3.131-3.59 4.736-2.213-0.204-3.229-1.715-5.028-2.349-0.031-6.842 6.663-7.836 8.618-2.387z"/>
<path d="m229.26 228.67c1.971 4.142-1.11 7.046-5.028 7.101-0.414-1.644-1.783-2.247-1.439-4.736 0.696 0 0.563-0.963 0.72-1.566 2.666 0.548 3.088-1.354 5.747-0.799z"/>
<path d="m293.91 237.33c2.15 4.008 0 9.199-2.87 10.255-2.408-0.508-2.69-3.358-4.309-4.697 1.095-3.288 2.87-5.809 7.179-5.558z"/>
<path d="m164.6 248.4c-1.04 3.765-6.921 4.016-8.602 0.783 0.313-7.539 7.421-7.351 8.602-0.783z"/>
<path d="m298.22 252.34c1.103 1.245-1.016 4.4 1.439 5.527-2.041 4.541-6.608 1.261-7.898-1.565-1.681 1.049-2.065 3.523-2.878 5.527-3.128 0.258-4.754-1.088-5.747-3.132 1.814-8.643 7.827-11.25 15.084-6.357z"/>
<path d="m309.72 261.02c-4.254 0.204-5.904-2.458-8.602-3.914 0.399-7.312 12.379-2.356 8.602 3.914z"/>
<path d="m157.42 258.65c0.626 4.627-3.308 4.251-6.459 4.736-1.423-2.747 2.917-4.916 6.459-4.736z"/>
<path d="m323.34 268.92c-1.985-0.121-3.901-0.77-5.551-1.881-1.649-1.111-2.973-2.642-3.833-4.437 2.244-7.789 9.728-0.141 9.384 6.318z"/>
<path d="m145.92 266.54c0.204 3.374-2.08 4.024-3.589 5.527-2.244-0.157-2.94-2.036-4.309-3.132 0.48-0.688 0.731-1.509 0.72-2.348 2.283-1.073 5.591-2.545 7.178-0.047z"/>
<path d="m308.29 264.97c0.172 4.306-1.047 4.995-0.719 9.465-3.777 0.438-7.82 4.462-10.064 0 0.305-2.826 2.299-3.797 5.036-3.915-0.391-4.399 1.447-6.325 5.747-5.55z"/>
<path d="m157.42 277.59c-2.463 1.941-6.827 0.509-5.748-3.915 2.471-1.965 6.835-0.532 5.748 3.915z"/>
<path d="m135.16 274.43c-0.071 3.351-1.697 4.979-5.036 4.736 0-1.863-1.236-2.348-0.72-4.736 1.416-1.566 4.114-0.501 5.756 0z"/>
<path d="m148.08 278.38h3.589c-0.297 1.903 1.322 1.715 0.727 3.915-0.506 0.384-1.09 0.653-1.712 0.789-0.621 0.135-1.264 0.133-1.885-6e-3 -0.829-0.893-0.813-2.756-0.719-4.698z"/>
<path d="m127.25 283.12c-0.164 5.355-8.289 6.569-7.186-0.782 2.846-0.783 5.215-1.104 7.186 0.782z"/>
<path d="m146.61 281.53c0.102 1.95 0.118 3.805-0.719 4.737-2.925 0.329-4.528-0.783-4.309-3.915 0.954-1.119 3.16-0.814 5.028-0.822z"/>
<path d="m313.31 287.85h4.317c0.094 1.942 0.102 3.797-0.72 4.697h-2.877c-0.853-0.9-0.813-2.763-0.72-4.697z"/>
<path d="m320.49 287.85c1.775-0.109 3.464-0.125 4.316 0.783 0.249 1.349-7e-3 2.742-0.719 3.914-2.26 0.376-2.815-1.127-4.309-1.565 0.591-0.931 0.843-2.037 0.712-3.132z"/>
<path d="m119.35 289.43c0.29 3.484-0.195 6.098-1.438 7.891-3.128 0.525-4.45-0.9-5.748-2.348 0.712-3.703 3.949-4.659 7.186-5.543z"/>
<path d="m338.46 293.37c-1.204 2.099-3.449 3.077-5.028 0.783-0.61 0.634 0.047 3.249-1.439 4.698-3.566-0.783-6.78-2.028-6.467-7.101 2.471-1.394 4.481 0.313 6.467 1.566 0.563-4.392 6.013-5.097 6.467 0.054z"/>
<path d="m427.53 293.37c-1.376 4.572-8.32 1.496-10.768 3.132-0.625-0.634-0.438-2.153-1.446-2.349-0.04-8.204 9.149-2.716 12.214-0.783z"/>
<path d="m133 291.01c2.682-0.313 4.215 0.627 4.309 3.132-2.323-0.775-3.754 0.587-4.309-3.132z"/>
<path d="m441.18 291.8c0.399 4.619-3.699 5.339-5.747 3.131v-3.131c1.415-1.566 4.105-0.501 5.747 0z"/>
<path d="m449.08 291.8c2.229-0.086 3.441 0.963 5.036 1.566 0 2.873-2.119 3.468-5.036 3.131-0.219-1.808-1.407-3.225 0-4.697z"/>
<path d="m304.69 296.53c-0.461 2.349-1.126 4.557-3.589 4.698-1.376-0.901-3.331-5.222-1.439-7.101 1.642-1.527 3.628 1.299 5.028 2.403z"/>
<path d="m182.58 301.26c-2.228-0.078-2.049 2.482-5.028 1.566-1.454-1.3-2.346-3.217-2.158-6.318 3.378-4.634 8.226 0.032 7.186 4.752z"/>
<path d="m317.62 295.74c1.063 0.415 1.806 1.174 2.87 1.565 0.422 2.834-0.829 3.821-1.439 5.527-2.19 0.572-2.612-0.783-4.309-0.783 0.188-2.943 1.666-4.477 2.878-6.309z"/>
<path d="m27.4 302.84c-1.7203 0.478-3.2765 1.135-5.7476 0.783-0.6021-1.707-1.861-2.693-1.4388-5.527 3.2218-2.834 7.4445-0.587 7.1864 4.744z"/>
<path d="m5.8566 298.11c-0.35189 2.49 2.2051 1.785 1.431 4.698-1.3059 1.205-5.8726 1.205-7.1785 0-0.64904-4.345 1.9862-5.128 5.7475-4.698z"/>
<path d="m120.81 298.9c2.346-0.462 3.347 0.532 5.028 0.783v3.914c-0.852 0.908-2.533 0.893-4.309 0.783-1.016-0.978-0.719-3.382-0.719-5.48z"/>
<path d="m150.96 303.64c0 2.599-2.041 3.014-4.316 3.131-2.909-4.016 2.94-7.711 4.316-3.131z"/>
<path d="m291.04 305.21c0.11 7.562 0.212 16.745-4.308 22.092-4.637-0.227-10.494-1.565-12.934-6.309 0.657-2.169 1.313-4.337 3.589-4.737 4.309 0.501 5.028 4.846 9.384 1.566-3.675-3.813-2.229-15.783 4.269-12.612z"/>
<path d="m302.54 312.31c-9.892-4.078 5.685-9.652 0 0z"/>
<path d="m319.06 308.36c0.312 2.975-1.518 3.601-2.87 4.736-2.346-0.352-4.168-1.205-3.59-4.736 2.323-1.519 4.137-1.519 6.46 0z"/>
<path d="m145.21 317.84c0.548 1.863 1.416 5.48 0 7.1-2.69 0.846-2.049-1.957-4.308-1.565-0.431-3.899 0.688-6.091 4.308-5.535z"/>
<path d="m158.14 322.57c0.164 2.803-0.485 4.697-2.151 5.48-5.943-0.227-1.368-11.179 2.151-5.48z"/>
<path d="m171.07 328.09c1.251 3.132 1.728 4.995 0 7.891-2.815 0.462-4.176-0.681-5.748-1.565 1.017-3.1 1.384-6.913 5.748-6.326z"/>
<path d="m147.4 424.36c0.688 4.235-1.908 7.969-4.309 6.31 0.133 3.366 4.309 8.611 0.72 11.054 0.242 3.413 4.199 2.755 4.308 6.309-0.117 4.056-5.372 3.508-7.178 1.566 1.783-10.568-8.719-12.768-2.158-19.72-2.972-1.628-4.692 3.077-8.602 0.783 1.368-8.15 9.11-8.573 17.219-6.302z"/>
<path d="m110.73 436.18c-1.384 4.267 1.15 4.658 0 8.682-1.048 1.222-3.675 0.697-5.747 0.783 1.102-4.893-2.026-5.143-1.439-9.473 1.027-0.802 2.292-1.236 3.594-1.235 1.303 1e-3 2.567 0.439 3.592 1.243z"/>
<path d="m311.88 444.09c0.735 3.695-1.189 4.486-2.159 6.318-1.282-0.439-2.987-0.407-3.589-1.566-1.642 1.355-3.628 2.349-5.028 3.914-3.128-1.737-2.58-5.832-2.158-8.681 1.564 1.158 5.356-0.094 5.747 2.348 0.751-2.411 4.497-4.517 7.187-2.333z"/>
<path d="m293.19 451.19c-0.102 3.649-5.81 2.349-7.898 1.566-2.393-7.962 8.078-6.396 7.898-1.566z"/>
<path d="m163.17 448.82c-1.244 2.63 0.359 3.499 0 7.1-3.605 0.548-5.795-0.469-7.898-1.565v-4.698c1.712-1.738 5.419-2.129 7.898-0.837z"/>
<path d="m158.87 459.87c4.254-3.562 7.624-2.772 13.637-2.349 1.048-4.83-6.029-0.736-7.178-3.131-0.094-1.942-0.11-3.797 0.719-4.698 5.075 1.441 7.82 2.302 12.926 2.349 0.235 4.478 0.071 6.106 3.597 7.891-1.657 4.76-4.121 8.612-8.601 10.256 0.073-0.499-0.03-1.007-0.293-1.436-0.263-0.43-0.669-0.753-1.146-0.913 2.729-2.051 5.348-7.68 0.727-9.472-1.329 1.706-2.213 3.914-3.597 5.526-1.47-0.782-3.417-0.978-3.589-3.131-1.158 2.763-7.593 5.214-7.202-0.892z"/>
<path d="m272.36 449.61c2.291 0.65 5.286 0.509 7.187 1.566-0.086 4.118-3.128 5.003-5.748 6.318-1.994-0.846-3.073-5.512-1.439-7.884z"/>
<path d="m140.9 451.19c0.923 5.315-4.379 5.394-6.467 3.131-0.281-4.047 3.652-4.697 6.467-3.131z"/>
<path d="m152.4 458.29c-1.681 1.566-2.909 3.656-6.475 3.132-4.004-7.469 6.451-12.714 6.475-3.132z"/>
<path d="m194.06 454.34c0.68 4.431-1.924 5.261-4.309 6.31-5.607-2.975-1.165-10.632 4.309-6.31z"/>
<path d="m265.9 455.13c0 3.915-4.692 6.06-7.898 3.915-0.602-7.101 5.489-7.469 7.898-3.915z"/>
<path d="m314.74 453.55c0.344 2.482-1.024 3.092-1.439 4.697h-3.589c-0.415-1.644-1.775-2.254-1.431-4.697 1.501-1.55 4.77-0.595 6.459 0z"/>
<path d="m211.3 455.92c0.172 8.212-10.658 3.75-7.906-1.566 3.05-0.955 6.374-1.057 7.906 1.566z"/>
<path d="m237.17 458.29c-0.258 1.042-1.267 1.245-1.439 2.349 6.975 3.609-7.656 11.5-7.187-0.783 0.243-6.31 5.169-7.398 8.626-1.566z"/>
<path d="m305.41 456.72c-0.352 2.489 1.29 2.787 0.72 5.519-5.998 7.296-10.463 4.306-14.365-3.131 2.017-9.121 8.898 2.7 13.645-2.388z"/>
<path d="m326.24 458.29c-1.564 3.21-3.659 3.735-2.15 8.682-0.641 0.345-1.29 0.689-1.439 1.566-3.042 0.18-4.262-1.644-5.028-3.914 1.455-3.915 2.096-3.273 0.712-7.892 3.245-2.771 5.513-0.477 7.905 1.558z"/>
<path d="m251.53 457.51c-0.243 4.462-3.91 5.135-7.179 6.31-5.591-4.431 1.869-9.677 7.179-6.31z"/>
<path d="m204.12 463.82c-2.776 0.149-5.294 0-7.186-0.783-1.181-6.74 8.719-5.824 7.186 0.783z"/>
<path d="m113.6 459.87c2.026-0.125 1.799 2.231 2.87 3.131 0.344 2.482-0.899 3.226-2.15 3.914 0.719 1.566 3.174 1.245 2.87 3.915-1.869 7.366-14.913 2.661-9.337-4.697 5.387 1.182 2.002-4.525 5.747-6.263z"/>
<path d="m259.44 463.03c-0.042 3.131-1.481 4.71-4.317 4.736-0.566-0.703-1.308-1.243-2.15-1.566-0.297-4.227 4.684-8.095 6.467-3.17z"/>
<path d="m273.8 463.82c1.064-0.414 1.815-1.166 2.87-1.565 4.199 2.403 5.31 3.468 9.384 5.527-0.931 1.566-0.461 4.752-2.878 4.697-2.463-0.18-3.128-2.349-3.589-4.697-2.26 0.963-3.8 3.186-6.467 1.566 0.407-2.631 2.072-2.701 0.68-5.528z"/>
<path d="m270.21 470.92c-2.471-0.18-3.128-2.349-3.597-4.697 2.245-0.431 2.268-3.296 5.028-3.132 0.474 0.588 0.815 1.272 1.001 2.004s0.212 1.496 0.076 2.239-0.43 1.448-0.863 2.067-0.994 1.137-1.645 1.519z"/>
<path d="m171.79 470.13c-0.462 3.969-5.615 2.779-8.602 3.915-1.431-0.783-1.634-2.936-2.87-3.915-2.416 1.026-2.346 4.768-5.028 5.527-2.948-0.712-4.989-2.419-7.186-3.914-0.29-1.903 1.313-1.715 0.719-3.915 4.778-0.274 6.623-3.773 11.495-3.914 1.932 4.063 6.123 5.778 11.472 6.216z"/>
<path d="m191.9 467.76c-1.094 3.531-4.864 4.126-7.898 5.527 0.094 1.941 0.11 3.797-0.719 4.697-2.588 0.212-3.464-1.456-5.748-1.566-0.946-4.892 3.621-6.998 5.748-3.914 2.01-1.01-2.268-1.628-1.439-3.914 1.877-2.13 8.391-5.582 10.056-0.83z"/>
<path d="m211.31 465.39c2.463-0.344 4.019 0.313 5.739 0.783-0.696 5.48-2.408 4.008-0.711 9.473-3.128 1.307-5.521 3.413-9.337 3.914 1.564-3.053 1.971-7.304 5.02-8.682-0.258-2.795-1.923-2.85-0.711-5.488z"/>
<path d="m237.88 476.44c-2.752-0.924-4.23-3.241-4.309-7.101 4.81-4.72 8.368 3.476 4.309 7.101z"/>
<path d="m245.06 467.76c1.517 0.705 3.199 1.221 4.317 2.349 0.026 1.019-0.153 2.033-0.525 2.982-0.372 0.95-0.93 1.815-1.641 2.545-4.473 1.08-4.356-6.185-2.151-7.876z"/>
<path d="m197.65 468.55h2.87c-0.18 2.348 1.627 2.419 1.439 4.736-2.761 0.681-1.736 1.832-1.439 4.697-1.29 2.2-6.608 2.2-7.898 0 2.62-2.09 3.495-6.114 5.028-9.433z"/>
<path d="m262.34 470.92c1.963 5.989-4.77 6.724-9.337 7.891-2.854-6.185 3.942-8.103 9.337-7.891z"/>
<path d="m125.81 475.65c0.657 3.093 0.876 4.917-0.72 7.101-2.909-1.566-6.662-2.145-7.898-5.527-0.219-4.666 6.843-3.468 8.618-1.574z"/>
<path d="m165.32 476.44c8.36 0.094 6.53 8.995 3.598 13.41-1.83-1.15-4.38-1.503-4.317-4.697-0.125-1.973 1.611-1.91 2.15-3.131-0.414-2.067-2.869-3.907-1.431-5.582z"/>
<path d="m235.76 477.23h3.589c1.244 2.63 3.472 7.891 0.72 10.263-2.69-0.203-4.082-1.832-5.748-3.131 1.439-3.038-0.735-5.426 1.439-7.132z"/>
<path d="m279.55 481.17c-0.485 9.763-7.609 1.793-12.934 3.915-1.924-12.064 7.124-3.148 12.934-3.915z"/>
<path d="m337.74 482.75c0.516 2.411-0.735 2.873-0.719 4.736-5.396 0.336-5.646-2.302-10.776-0.783-1.509-1.887 1.392-3.719 0.72-7.101 4.551-1.933 6.052 2.999 10.775 3.148z"/>
<path d="m204.12 480.39c3.19-0.352 3.909 2.012 3.589 5.52-3.464 4.885-8.797-3.39-3.589-5.52z"/>
<path d="m116.48 484.33c3.128-2.059 7.038-1.864 6.467 3.914-2.932 0.203-3.55 2.943-7.186 2.348-1.095-3.264-5.068-3.382-7.187-5.527 0.681-5.127 6.139-4.203 7.906-0.735z"/>
<path d="m254.4 483.54c-0.501 2.434-0.501 1.565 0 3.953-2.174 0.243-2.565 2.442-5.74 1.566v-5.527c2.229-2.012 3.347-1.159 5.74 8e-3z"/>
<path d="m180.41 483.54c5.043-0.266 4.035 6.09 9.383 5.527-0.234 3.014-0.242 5.229-5.036 4.697-0.406-1.652-1.783-2.255-1.431-4.697-2.197-0.572-2.119 1.362-4.316 0.783-0.086 2.27 0.399 5.167-0.712 6.317-3.581 0.783-4.879-0.955-5.755-3.131 1.494-4.4 4.84-6.748 7.867-9.496z"/>
<path d="m262.35 488.27c0.414 2.568-0.485 3.672-0.72 5.527-2.346 0.454-3.339-0.54-5.028-0.783-0.774-5.997 2.51-6.881 5.748-4.744z"/>
<path d="m309.72 491.44c1.173 5.026 4.692 7.461 8.601 9.465 0.556 3.765-2.439 3.624-4.308 4.697-3.058-4.525-10.885-3.82-10.056-12.628 1.815-0.849 3.766-1.368 5.763-1.534z"/>
<path d="m225.67 543.51c1.603 1.926 1.564 5.629 1.439 9.465-5.576 1.769-8.774-10.905-1.439-9.465z"/>
<path d="m225.67 562.45c5.278 1.566 4.34 11.43 2.158 14.992-4.966-2.262-4.418-10.185-2.158-14.992z"/>
<path d="m225.67 589.28c3.769 0.532 4.379 8.071 2.87 11.837-4.911-1.12-3.636-6.936-2.87-11.837z"/>
<path d="m226.37 609.01c4.692 0.235 3.637 5.394 2.878 8.682-2.682 0.846-2.049-1.965-4.309-1.565-0.696-3.68 0.939-4.776 1.431-7.117z"/>
<path d="m180.85 51.13c-0.055 19.767 17.524 22.75 30.888 21.302 11.307-7.124 24.914-17.748 25.868-36.301 0.164-3.2568-1.564-6.5057-1.439-9.4649 0.062-2.3486 1.673-3.9534 1.439-6.3176-1.611-15.657-19.182-25.662-30.177-11.046-0.657 4.2196-1.345 9.5197 0.72 12.628 2.252-8.5097 12.582-17.935 21.551-9.4727 5.192 16.049 2.549 37.844-10.776 47.348-13.45 9.598-38.129 7.4921-33.766-14.992 3.511-2.5835 6.115-3.6012 10.776-1.5657 4.653-19.047-29.074-7.5235-15.084 7.8833zm82.616-47.348c-12.598 8.314-13.294 45.805-1.439 61.549 8.203 10.921 27.369 10.412 34.485-1.5657 3.128-5.2139 5.982-17.066-2.878-20.519-2.596 3.6951 0.18 6.7012 0.72 11.054-2.995 4.2588-4.27 8.9404-9.384 9.4649-16.75 1.7379-35.189-36.943-19.385-52.076 2.924-2.8105 9.915-5.4801 15.796-3.1315-2.456-7.3902-12.34-8.4315-17.915-4.7755zm-48.131 18.147c9.978-1.5657 8.813 8.9559 10.776 14.201 5.896-10.905-4.09-30.876-10.776-14.201zm55.317 23.674c-2.534-4.8929-6.178-18.061-3.597-24.464-4.864 7.6486-0.86 21.263 3.597 24.464zm-23.006-7.8992c-0.438-2.145 0.915-6.2629-0.711-7.1006-1.721 2.4582-2.933 5.7228 0.711 7.1006zm-50.281 11.046c-0.891 2.7009-6.005 0.7829-6.467 3.9143 1.916 7.0458 13.677 6.9127 17.204 3.9143-6.999 1.237-6.483-5.9027-10.729-7.8208l-8e-3 -0.0078zm137.92 18.147c37.003 12.197 15.483 80.869 28.738 110.48-6.749-24.331 5.419-50.267 3.589-77.331-0.68-10.177-5.044-16.863-7.186-25.255-8.962-9.1439-18.377-27.33-35.909-25.247-5.129 0.6028-8.21 4.5092-12.934 7.1004-1.814 3.0062-2.424 7.3355-5.028 9.4649 3.48 3.4368-0.101 9.7701 3.59 12.628 1.11-7.9852 2.283-15.908 7.905-18.937 3.965 3.0062 5.67-0.9864 10.776-0.7829 2.534 2.2955 4.713 4.955 6.467 7.8914l-8e-3 -0.0079zm-164.5-11.046c-4.551-3.9143-10.166-4.1256-15.085-3.9143-19.823 0.7281-30.035 20.558-30.895 45.766-1.127 33.092 13.582 62.418 15.811 88.378-2.236 10.788-5.177 24.707-6.475 33.929-2.932 3.531-7.647 6.725-12.214 2.349-0.782-13.309-12.707-28.089-24.421-30.775-9.5167-2.184-24.14 5.989-26.587 14.201-3.7769 12.706 4.598 30.219 17.986 24.465 2.1895-2.599 3.7378-5.895 3.5892-11.046-2.8698-1.746-4.0584 4.212-9.3368 2.348-2.3459-4.227-3.253-10.099-5.0281-14.991 1.0322-10.334 14.138-10.005 21.551-3.915 6.4204 5.253 13.051 18.194 13.645 28.403 1.478 24.942-13.919 48.897-29.449 56.82-3.73-1.746-10.838-1.041-12.926 1.566-9.3133-5.026-17.25-11.563-16.523-27.612 3.6128-4.979 9.4776-8.964 17.204-7.109-2.6587-5.425-11.886-10.959-19.393-8.674-4.4338 1.347-10.22 13.818-10.776 20.511-1.7203 20.652 17.767 32.81 36.636 30.775 16.625-8.612 34.071-21.333 39.513-41.821 1.861-7.046 1.431-14.185 5.748-18.937 2.416-2.662 6.748-2.529 9.337-4.737 4.996-4.243 7.514-10.005 11.495-15.782-1.564-2.466-4.387-3.601-5.028-7.101 1.501-2.066 3.667-4.861 4.308-7.1 9.517-32.982-8.914-61.58-12.934-89.168-0.399-2.348-0.639-4.721-0.719-7.101 0.18-11.367 3.84-15.587 7.906-22.883 3.566-6.396 5.646-13.598 11.495-16.573 20.167-10.24 34.821 16.44 21.551 32.356 18.635-5.253 7.89-35.839 0.024-42.619l-8e-3 -0.0079zm78.307 12.628c0.18 3.6169 0.782 3.8124 0 7.1005 1.744 0.7828 7.257-2.8262 7.898 2.3486-0.563 3.335-4.927 2.4895-7.187 3.9143 2.667 16.072-3.292 39.574 1.439 51.294 1.947-2.091 4.692 1.675 5.028 3.914-0.453 3.711-6.388 1.394-8.601 3.131-5.982-23.924-6.905-46.314-7.179-76.54-2.268 1.464-3.128 4.4467-4.309 7.1006 3.582 0.2271 2.714 4.6973 1.439 7.1007-1.845-0.0783-3.425-0.4463-4.316-1.5658-0.516-2.4112 0.735-2.8731 0.719-4.7363-7.554 2.74-12.879 7.9539-21.551 9.4649-1.736 1.9023 1.744 2.0902 0.719 5.527-0.938 0.7829-2.651 0.7829-3.597 1.5657-0.782-1.6127-3.433-3.2254-1.431-5.527-5.382-0.3445-10.696-1.3974-15.804-3.1315 0.579 2.74-1.071 3.0298-0.719 5.5271 2.745-0.6498 2.784 1.6753 3.589 3.1314-5.935 6.1064-8.14 16.307-17.203 18.937 1.736 3.421-0.039 6.451-2.878 7.101-1.384-1.112-1.306-3.836-2.158-5.519-5.927-1.527-6.639 2.693-11.487 2.348 1.618 3.28 1.423 6.044-2.878 6.31-1.415-0.548-1.916-2.106-2.15-3.914 0.985-3.398 3.542-1.48 4.308-3.915-1.949-1.863-4.496-2.973-7.186-3.131-0.923 6.936-1.846 11.046-0.719 16.573 1.462-2.842 5.653-0.783 5.747 2.349-1.353 3.914-5.966-1.386-5.747 1.565-0.72 1.879 1.814 11.117 6.466 7.101-1.564-1.237 1.345-4.251 2.878-4.736 4.191 0.65 2.346 7.922 6.459 8.682-0.453 2.653 0.931 7.327-0.719 8.674-0.72 0-0.853 0.642-1.431 0.783-4.153-2.02-6.655-5.848-12.215-6.31-0.422 3.358 0.516 5.221 0.72 7.891 3.956-0.407 6.005 1.292 5.747 5.527-0.61 1.691-1.767 2.787-4.308 2.349v7.1c3.823-1.002 13.77 5.551 6.459 9.465-1.9-1.855-4.332-3.131-6.459-4.697 0 2.098 0.265 4.501-0.72 5.519 5.318 0.211 7.1 4.298 12.207 4.697 0.219-6.787 6.85-1.777 8.602-6.31 2.181 0.486 1.399 4.243 3.597 4.737 2.885-6.756 5.473-8.792 12.926-6.318-0.266-6.028-4.411-1.48-6.467-1.566-1.33-0.07-1.689-2.168-2.878-2.348-0.485-0.087-5.247 0.908-5.028 0.782-0.68 0.345-1.009 2.819-2.15 3.132-0.704 0.211-1.729-1.762-2.87-1.566-2.143 0.337-2.823 4.823-5.036 2.349-0.853-2.271-1.51-4.189-0.72-6.31 5.286-0.298 7.374-4.486 12.223-3.132 0.226-1.847 1.133-2.959 0.711-5.519-2.103-1.064-5.661-5.48-2.158-7.891-4.692 0-3.409-11.359 0.719-11.046 2.8 0.877 1.744 5.981 2.878 8.674 4.105-4.149 7.288 0.11 10.776-4.697-1.564-0.674-2.542-1.942-2.159-4.697 4.896-0.141 4.583-6.021 8.602-7.101 3.378 0.47 3.402 5.668 1.431 7.891 10.166 1.644 9.001-13.183 17.986-10.263 0-1.856-1.236-2.349-0.72-4.697 4.731-2.059 9.157-1.456 10.064 3.914-0.17 0.523-0.452 1.004-0.824 1.409s-0.827 0.726-1.334 0.94c-2.635 0.258-3.988-0.877-5.748-1.566 1.564 5.668-3.534 4.016-4.308 7.108 3.456 2.247 4.097 7.586 6.459 11.047-2.659 4.752-0.868 11.602-8.602 11.836-2.197-2.583-0.508-4.47 0.72-7.108-8.852 1.409-10.455-6.654-15.085-11.837-0.993 2.858-4.543 2.905-5.755 5.527 2.252 0.548 0.938 2.106 0.727 3.915-4.692 0.923-6.826 5.08-11.495 3.914 1.799 4.329 1.415 11.069 7.186 11.046 1.424 0 0.908-2.153 2.87-1.566-0.461-2.662-2.064-4.047-1.438-7.891 2.439-2.349 3.229-6.451 7.186-7.108 2.745 0.673 3.026 4.039 3.589 7.108 4.105 0 7.155 1.08 8.602 3.914-1.384 3.742-0.344 10.177-6.467 8.674-0.571-4.125-2.87-8.705-6.467-7.1-1.212 3.131-0.422 8.486-2.158 11.046 2.135-1.033 3.542-0.697 4.308 1.566-1.962 2.309-2.846 5.809-6.467 6.31-1.126-2.913-10.11-1.973-6.459 2.348 0.665-1.378 2.245-1.746 4.309-1.565 0.447 0.788 0.707 1.668 0.763 2.573 0.055 0.905-0.096 1.81-0.443 2.647s-0.88 1.584-1.559 2.184-1.485 1.037-2.358 1.278c-2.213-3.876-6.889-5.058-8.602-9.473-0.696 3.969-4.692 4.298-9.337 3.914-1.382 2.981-3.335 5.662-5.747 7.892 1.947 1.017 2.174 3.914 2.158 7.1-3.128 0.626-5.474 0.384-7.906 3.131-2.025-1.197-0.875-5.879-3.589-6.317-0.735 3.914-3.495 5.628-4.316 9.472 4.324 1.449 4.691-0.963 9.383-0.783 0.423 1.95 2.604 6.021 0.72 7.892-4.434-2.693-3.48 0.877-7.906 1.566 1.071 2.763 0.915 6.881 2.158 9.464 0.469-4.626 5.709-3.17 6.467 0 1.76-3.256-1.478-3.616-2.158-6.309 2.878-3.75 10.072-3.218 12.934-5.528-1.721-1.675 2.135-2.935-0.72-4.697-4.105-0.822-2.228 4.909-6.467 3.915-1.415-0.541-1.915-2.106-2.158-3.915 1.72-4.814 6.295-2.936 8.602-7.891-2.948 0.603-2.471-2.537-2.878-4.697 6.037-2.286 12.574 0.634 12.215 7.891-1.181 1.855-3.214 2.779-3.59 5.48 5.474-0.564 9.611 8.713 2.878 10.256-1.673-0.533-1.931-2.615-3.597-3.132 2.346 3.265-0.289 4.627 0.719 7.891 2.988-0.117 4.286 1.566 5.748 3.132 1.149 2.607-2.502 5.59 0.712 5.527 2.596-9.308-0.133-11.994 2.158-21.31 1.368-5.55 8.351-21.325 11.495-25.247 1.423-1.769 5.004-2.795 7.186-4.697 8.602-7.641 16.171-18.499 26.587-19.728 9.705-1.143 15.233-2.545 23.702-3.132 14.271-1.017 30.435 13.998 38.794 22.101 7.562 7.311 12.512 18.491 13.653 30.766 1.447 16.276-3.128 31.244-7.186 44.983-1.11 3.727-0.962 8.682-2.878 12.62-3.245 6.717-14.545 16.722-12.926 26.046 2.846 16.385 12.152 41.226 17.243 56.022-2.823 1.918 0.602 5.37 0.711 8.682 1.291-0.955 4.184-0.141 5.036-1.566-1.83-0.078-1.704-2.936-0.719-3.914-5.881-1.942-8.883-14.992-2.87-18.147 3.034 0.344 3.339 3.695 4.309 6.31-0.665-9.395 11.065-5.199 15.076-9.465-4.074 0.532-4.144-3.335-6.459-4.697 0.712-2.349 0.532-5.731 2.87-6.31 4.692 2.826 4.027 4.196 5.036 9.465 9.305-0.783 8.68-12.526 18.673-12.62 1.752-10.89 18.768-11.32 19.393-26.046-3.127-1.566-8.922-4.376-6.459-9.465 3.644-0.321 4.997 1.871 7.179 3.132-0.501-2.427-0.501-1.519 0-3.915-2.518-0.649-4.059-2.348-6.467-3.131-3.206 4.212-9.681 0.689-13.646 3.131-1.673-0.783-2.345-2.716-2.15-5.527 5.474-3.703 11.12-1.518 15.084 2.349 0.079-10.616-8.601-11.626-12.214-18.147 0.414-1.652 1.775-2.255 1.439-4.736-2.26-0.376-1.9 2.121-3.597 2.348-9.587-7.938-19.8-10.333-27.299-20.511-0.336-2.481 1.931-2.09 2.158-3.953-3.448 1.988-6.561-0.493-7.186-3.914 5.208-0.987 1.454-8.26 5.747-11.054-6.592-0.494-4.535-6.35-6.467-11.047 0.595-1.973 2.518-2.489 3.597-3.914-7.35-1.417-5.317-12.87 0.72-14.201-0.25-2.098-1.893-2.662-3.597-3.132 0.258 2.913-1.783 3.296-3.59 3.915-4.16-0.149-4.848-10.452 0-7.892-1.493-3.264-1.493-5.417 0-8.681-3.753-1.222-2.83 2.677-4.308 3.914-7.218 0.822-8.164-5.238-8.602-11.837 0.97-0.251 1.376-1.12 2.878-0.783-0.141-5.887-5.193-6.396-7.187-10.256 5.154-5.981 12.379 2.169 11.495 10.256-0.844 0.125-2.041-0.133-2.158 0.783 2.839 0.25-0.532 2.442 1.439 3.131 2.455-1.424 2.002-4.838 7.906-3.914-1.291-2.81 1.102-4.697 3.589-5.519 1.72 0.736 1.9 3.17 5.028 2.348 1.806-2.074-1.798-2.653-2.158-4.697 1.126-4.54 10.502-7.672 12.214-2.348-0.782 2.818-3.495 3.523-5.028 5.527 1.564 0.109 1.564 1.988 1.439 3.914-2.088 2.967-4.629 5.425-8.602 6.31-3.057-0.846-3.565-4.494-6.459-5.527 0.469 2.904 1.392 5.308 1.431 8.682 4.152-0.47 7.085-1.362 9.384 1.566 0.641-5.613 5.818-6.263 7.898-10.264-2.018-0.986-1.126-4.619 0.719-5.519 2.606 1.548 5.018 3.401 7.187 5.519 1.493-0.939-2.276-2.701-2.159-4.697 0.219-1.863 2.495-1.472 2.159-3.914-8.688-3.86-5.427-14.984-3.597-21.31 2.142 0.54 4.394 0.955 5.028 3.132-0.602 4.047 0.43 7.453-0.72 10.263 4.418 1.057 4.278 6.795 3.597 9.465 0.907-3.625 4.09-1.699 7.187-1.566 1.564-2.959-1.15-6.873 2.15-8.682-1.345-0.892-3.464-0.931-2.87-3.914 1.072-3.194 4.763-2.012 6.459 0-1.306 1.19-1.681 3.405-2.869 4.697 2.799-0.446 2.517 2.49 4.308 3.132-0.649 3.068-1.306 6.732 1.439 7.891-1.986-10.96-0.782-23.486-2.878-30.775-1.047 2.458-4.903 2.858-6.459 0.783-1.251-5.981 4.895-3.914 6.459-4.697-2.439-19.298-19.549-26.805-39.505-22.092-0.375-1.1669-1.064-1.9889-1.439-3.1319 0.102-0.4824 0.379-0.9096 0.778-1.1989 0.399-0.2894 0.891-0.4202 1.38-0.3668-2.768-6.4273-9.305-8.7211-10.064-17.364-6.467 5.2609-19.862 2.9045-25.86 8.682-7.64-7.8599-21.316-8.8776-27.431-18.202l-8e-3 -0.0079zm70.378 2.3486c-3.175 3.0923-4.544 8.1574-5.028 14.209 2.666 3.6482 6.255 6.3178 12.214 6.3099 6.905-7.1866 0.485-22.327-7.163-20.495l-0.023-0.0235zm-163.07 7.8912c-5.779 0.3444-2.745 10.365 1.431 11.046 6.874-4.8067 7.875-12.815 2.158-18.937-6.732-1.644-6.404 5.0494-3.565 7.9147l-0.024-0.0235zm181.75 12.628c2.393-2.3485 5.364-4.0944 5.748-8.682-4.387-0.7828-3.386-4.7753-5.028-7.1004-0.399 3.5229-1.064 10.96-0.696 15.806l-0.024-0.0236zm-202.58 11.046c2.073-0.353 3.269-1.66 3.59-3.9147-0.923-0.0469-0.994-1.0099-2.159-0.7828-0.969 0.9942-0.399 3.7105-1.407 4.7205l-0.024-0.023zm7.179 8.682c0.477-3.421-0.821-4.885-2.151-6.318 0.196 3.139-2.338 6.819 2.174 6.341l-0.023-0.023zm-4.309 13.41c1.564 1.151 1.423 4.228 3.589 4.697 0.399-1.808 1.611-9.778 0-8.682 1.541 4.361-2.674 2.357-3.565 4.009l-0.024-0.024zm232.76 29.992c6.937-5.363 11.605-17.121 10.776-28.41-10.33-1.95-12.527 19.712-10.776 28.433v-0.023zm-252.84-22.046c2.205 10.467 2.721 22.782 10.056 27.62-0.907-8.792-4.691-21.075-7.905-29.984-0.166 0.527-0.444 1.011-0.815 1.419-0.372 0.409-0.827 0.731-1.336 0.945zm263.64 22.1c2.205-0.595 1.376 2.161 3.589 1.566 6.318-4.846 15.937-13.755 12.214-24.456-8.687 3.851-13.747 11.695-15.803 22.859v0.031zm-270.83-18.185c-15.726-0.071 2.346 24.12 5.028 24.464 2.158-10.044-3.496-17.802-5.028-24.464zm99.858 7.891c2.174 0 1.791-2.771 2.151-4.697-3.066 0.454-2.636 1.714-2.151 4.697zm-119.97 4.736c-0.5317 13.199 10.706 21.036 18.674 19.728-4.403-7.75-6.232-24.527-18.674-19.728zm300.28 12.628c1.431 0.783 1.134 3.483 3.59 3.131 6.748-3.64 12.152-8.76 14.372-17.364-8.773 1.707-13.614 7.704-17.962 14.233zm-62.495 20.511c-1.377 1.479-1.306-0.47-3.597 0-0.188 4.791-5.24 4.235-7.898 6.317 1.008 2.756-2.018 5.05 0 6.31 5.317-2.841 6.834-9.848 13.645-11.046v5.527c1.416 0.086 5.247 3.914 5.748 0 0-3.194-4.903-0.939-4.309-4.736 0.946-3.132 3.816-4.228 5.748-6.318 0.531 1.785 2.736 1.73 2.877 3.914 0.336 2.482-1.939 2.091-2.158 3.915 2.283-0.118 3.128-1.785 5.748-1.566 1.235 2.583 1.462 6.263 4.308 7.101 1.298-3.077-2.635-6.342-4.308-8.682 1.751-3.743 5.982-9.958 10.775-5.48 0.962 3.468-3.581 4.947-2.158 6.309 0.923-2.708 4.692 2.091 5.028 0-1.968-7.486-3.171-15.153-3.589-22.883-3.691 1.503-6.975 0.431-10.056-0.783-0.782 1.738-1e-3 2.623-1.439 4.737 3.659 1.503 9.813-2.411 10.775 3.131-2.784 3.445-10.056 2.779-7.186 10.256-2.213-0.587-1.376 2.168-3.589 1.565-1.799-2.239-4.888-3.053-6.467-5.526-3.402 7.045-8.688-0.65-4.309-5.52-9.47-1.064 1.838 10.647-3.589 13.458zm40.944-17.356c0.282 9.394 0.555 18.859 5.028 23.673 6.037-2.27 10.166-9.284 17.243-3.914 2.244-14.146-11.378-31.949-22.271-19.759zm-30.888-0.783c-1.322-0.916-0.493-4.188-3.597-3.132-0.219 2.122 3.323 4.126 3.597 3.124v8e-3zm60.345 12.627c8.164-0.783 17.032-0.782 17.986-9.472-6.147-7.422-21.56 1.612-17.986 9.464v8e-3zm-292.38 7.101c6.569 10.177 16.508 16.581 22.271 27.619 4.441-12.275 5.192-30.062 2.15-42.611-12.05-8.267-21.207 4.157-24.39 14.984l-0.031 8e-3zm-17.203-2.349c4.9578 1.136 7.3194 2.693 12.934 1.566-0.423-2.56 0.484-3.672 0.711-5.48-2.87-8.275-20.456-9.128-13.684 3.883l0.039 0.031zm225.57-2.348c2.768-0.118 7.921 2.763 8.601 0-2.862-0.54-2.893-4.196-5.747-4.697 0.133 2.747-3.386 1.471-2.894 4.65l0.04 0.047zm-80.458 5.527c2.604-0.071 5.904-3.468 4.309-5.527-1.095 2.215-3.566 2.912-4.348 5.48l0.039 0.047zm-78.98-3.132c0.352 2.498-1.298 2.787-0.719 5.527 2.518-0.14 2.346 2.662 4.309 3.132-0.634-2.529 1.861-1.636 2.158-3.132-1.627-0.587-0.282-4.423-0.72-6.309-1.767 0.172-2.775 1.135-5.106 0.704l0.078 0.078zm244.25 3.915c1.392 6.098 6.545 8.063 10.775 11.046 15.124-7.563-0.57-20.315-10.853-11.093l0.078 0.047zm-43.791 6.317c1.408 0.353 2.596 4.948 4.301 2.349-2.526-2.106 0.876-5.817-2.15-7.101-0.493 1.918-2.894 1.652-2.26 4.705l0.109 0.047zm-103.45 11.837c-0.117-5.19 2.01-6.263 0.72-11.046h-2.158c0.328 4.689-0.446 9.543 1.329 10.999l0.109 0.047zm76.149-5.527c2.706-0.603 3.433 0.963 5.74 0.783-0.344-4.353-5.302-3.64-7.898-5.527-0.164 2.372 2.479 1.863 2.049 4.697l0.109 0.047zm70.378-3.131c-10.557-2.795-17.899 5.644-27.299 8.682-2.58-1.12 0.297-8.228-3.597-7.892-2.776 1.472-1.079 7.446 0 9.465-9.032 11.414-5.286 32.38-0.719 44.193 1.853 4.775 3.315 10.608 4.316 12.628 5.029 10.177 24.242 24.769 37.355 24.456 9.986-0.235 21.2-7.711 22.983-17.356 2.619-14.146-4.012-34.736-15.085-23.674 0.305 2.826 4.176 1.723 4.317 4.737-0.36 22.35-30.568 28.598-40.952 11.837-6.85-13.121-10.565-25.467-10.776-44.984 4.825-5.918 12.121-17.779 23.71-15.782 6.349 1.096 12.449 11.21 5.02 18.154-2.185 0.243-4.396-0.025-6.459-0.783 0.148 2.466-0.485 5.794 0.719 7.101 11.347 4.165 13.294-6.999 15.804-13.41-2.557-6.576-5.357-12.706-9.423-17.443l0.086 0.071zm-50.289 4.697c3.128 2.349 6.53 4.4 9.337 7.101-1.861-3.876 4.113-5.817 0.719-6.31-1.563 3.256-6.646 1.041-6.466-2.349-1.869-0.172-3.574-0.204-3.676 1.527l0.086 0.031zm-28.737 1.566c1.97 0.305 3.065 3.648 5.028 1.565-0.172-2.348-4.34-4.736-5.114-1.589l0.086 0.024zm17.985 2.348c1.423 2.592 8.352 3.915 8.602-0.783-0.884-5.401-7.21-1.894-8.711 0.783h0.109zm-14.365 11.047c2.815-0.713 4.481-0.963 6.459 0.782-0.156-7.155 5.286-1.041 7.906-3.131-0.844-3.813-6.365-2.482-7.906-5.527-3.143 1.644-4.199 5.488-6.568 7.876h0.109zm22.982 7.1c2.87-0.783 2.167 2.349 5.029 1.566-0.477-5.535 3.127-6.553 6.467-7.891-0.11-0.932 0.125-2.239-0.712-2.349-2.753 4.517-11.049 0.712-10.893 8.674h0.109zm-21.551 1.566c0.11-1.73 1.814-1.699 3.597-1.566 1.439 1.315 3.339 2.122 3.59 4.697-1.103 4.431-7.101-0.704-7.187 3.915 4.645 0 7.687 1.855 12.934-1.566-7.616 0.618-3.48-7.57-8.602-10.256-3.401 3.132-5.2-2.153-8.601-1.565 1.282 2.152 2.369 4.642 4.16 6.356l0.109-0.015zm-162.35-3.132c5.521 1.081 5.247 11.375-0.711 11.837 0.398 1.409 0.367 3.28 1.431 3.915 4.871-3.915 3.706-9.567 6.467-15.783-2.98 1.84-4.356-3.828-7.296 0.016l0.109 0.015zm7.906 0.783c1.877 0.227 3.128-0.289 2.878-2.348-1.987-0.251-3.206 0.266-2.987 2.34l0.109 8e-3zm-15.084 9.473c2.346-0.305 3.128-2.31 5.028-3.132-1.314-1.448 0.649-5.558-0.72-3.914-2.557 1.378-5.794 3.719-4.418 7.077l0.11-0.031zm-5.036-1.566c1.931 0.462 3.667-3.241 2.158-3.914-0.328 1.808-2.604 1.417-2.26 3.891l0.102 0.023zm39.521 7.891c-0.375 4.541 2.002 4.838 2.15 10.256 3.277 0.188 5.013-1.323 7.187-2.349 0.226 1.065 1.016 1.503 0.711 3.132 3.55-1.104 4.567-4.979 8.602-5.48 0.227 1.064 1.024 1.503 0.712 3.131 2.893-0.54 4.105 0.783 6.474 0.783 1.783-2.247 1.126-7.187 5.74-6.318 0.579 2.74-1.063 3.038-0.719 5.527 2.869 0.783 4.41 1.981 2.158 4.737 1.955-0.494 5.701 1.002 6.467-0.783-7.757-0.196-3.128-11.508 2.877-10.263 1.69 2.466 0.337 4.172 1.432 6.317 6.177-1.902 12.191-3.969 16.523-7.891 1.9 1.738 1.149 3.39 0.719 6.31 3.91-0.47 9.986 1.503 10.776-2.349-1.447-1.299-2.018-3.57-4.309-3.914 0-2.09-0.399-4.65 1.431-4.736 6.553-0.627 7.82 4.54 10.784 7.891 2.963-1.206 2.862-5.793 7.178-5.519-0.25 3.131-1.564 5.12-2.15 7.883 2.213 1.785 6.255 1.347 8.601 0.783-2.048-1.3 0.344-4.282 0.72-5.48-5.06 0.642-5.224-2.02-4.309-6.318-5.435 2.779-13.294 1.566-12.214-4.697-2.948-1.973-2.878 1.417-6.467 0.783-8.602-6.263-22.842-0.501-27.299 7.108-0.505-0.215-0.959-0.535-1.33-0.941-0.371-0.405-0.651-0.885-0.821-1.407-1.329-3.132 2.886-4.103 0.72-5.48-2.768 1.698-6.827 1.972-10.784 2.348-0.696 2.873 3.504 0.368 2.159 3.914-1.783 1.198-2.925 3.132-5.748 3.132-2.017-0.986-2.346-3.233-1.439-5.527-6.068 1.167-10.783-0.587-16.523 3.953 3.363 1.566 7.46 2.349 9.337 5.52-6.545-2.263-11.73 7.476-15.077 0.782 0.845-1.996 4.692-4.791 3.59-6.309-1.298-0.423-5.067 3.789-7.969 1.44l0.11 0.031zm127.15-5.527c0.505 0.386 1.088 0.656 1.708 0.791 0.62 0.136 1.262 0.133 1.881-8e-3 -1.196-1.84 0.391-6.732-2.869-6.31-1.478 1.957 0.484 3.085-0.829 5.543l0.109-0.016zm32.327-3.914c-0.289 3.633 3.058 1.816 3.589 0-2.314-0.603-1.485-0.603-3.698-0.047l0.109 0.047zm-8.602 5.48c0.548-2.294 3.394-2.043 2.87-5.48-3.049 0.016-6.005 3.413-2.995 5.496l0.125-0.016zm-168.12 0c-0.062 4.024 4.301 3.132 6.467 4.736 0.532 5.942-4.691 3.672-5.739 3.915-1.775 0.446-3.981 5.175-6.475 7.1-5.333 4.134-9.611 6.052-14.365 5.48 1.564 5.817-1.634 11.916-9.337 11.837 2.807 4.588-0.641 8.471-4.309 10.264-2.572-2.177-3.174-6.506-5.035-9.473-2.972 2.685 2.65 3.844 0 8.682 0.93 1.354 4.3 0 4.316 2.349-0.868 0.172-0.446 0.876 0 1.565-1.845 4.431-4.801 6.725-9.337 6.31-0.344 4.548-2.541 10.639-7.194 7.891 0.555 4.901-3.057 4.502-1.431 8.682 2.987 1.871 3.425-4.916 7.906-3.914 1.212 2.63-0.461 2.693-0.72 5.527 3.582 0 3.989 3.507 5.029 6.31 1.908 0 4.23-0.439 4.308 1.566 1.65 2.552-1.798 4.697 0 7.108 5.083-2.904 10.096 2.153 14.365 4.697 1.893 0.243 0.571-3.053 2.878-2.348 2.909-0.306 3.308 2.153 5.028 3.131 0.344 2.49-2.205 1.785-1.439 4.736 1.478 0.47 2.995 1.519 1.439 3.132h5.028c1.939 1.448 0.125 2.669 1.439 3.914 0.993-3.437 3.706-0.078 5.747 0 1.283-4.955 10.948-7.265 7.898 1.566 2.667 0.556 3.128-1.347 5.748-0.783 3.613 1.566 3.214 7.523 9.384 6.31 0.829-10.005 8.656-21.474 5.739-32.348 5.083-4.4 8.657-18.045 6.467-25.255-0.359 2.865-3.683 5.441-6.467 3.131-0.727 4.455-4.793 5.253-8.601 6.318 0.633-2.536-2.346-1.08-2.159-3.131 1.212-2.271 2.01-5.856 0.728-8.682 1.493-0.454 2.048-1.958 4.308-1.566-0.328-3.68-6.021-3.954-7.905-1.566 5.059 6.459-6.749 17.646 1.43 24.457 2.8-0.713 6.139-1.433 7.187 1.566 0.532 2.411-1.236 2.348-0.712 4.736 1.775-0.118 3.48-0.149 3.59 1.566-0.126 6.709-4.309 8.948-7.187 12.627-3.542-3.21-5.849-7.781-8.602-11.837-0.649-10.85-4.175-13.598-2.877-23.673 2.995-2.239 1.955-8.902 6.467-9.465-0.094-2.787-2.057-3.531-2.159-6.318 4.692-5.872 12.614-0.697 17.204 2.348-2.002-5.166-5.56-8.611-8.602-12.627-0.61 1.699-1.767 2.795-4.316 2.349-3.543-1.096-4.2-5.379-5.74-8.675 1.368-0.336 1.806-1.698 3.589-1.565 2.268-0.384 0.266 3.914 2.87 3.131h2.158c-1.431-8.157-4.535-14.475-6.467-22.092-0.078 1.511-2.4-0.924-4.3 0-1.564-1.417-1.76-4.384-2.878-6.31-1.314 2.372-4.403-1.464-4.473 2.607l0.109-0.016zm112.78 2.349c0.924 2.409 2.723 4.38 5.036 5.519-0.438-2.873 1.517-4.282 2.15-7.891-0.938-0.783-2.643-0.783-3.589-1.566-0.055 2.693-2.221 2.943-3.707 3.953l0.11-0.015zm56.036 3.914c4.16 0.626 4.465-2.983 8.602-2.349 0.555-3.765-1.501-4.697-4.309-4.736 0.915 6.192-2.909 5.425-4.402 7.101l0.109-0.016zm-186.78 6.318c0.853-3.719 1.721-9.316-1.439-11.047-2.979 1.731-1.188 8.659 1.33 11.086l0.109-0.039zm-17.203 0c-0.97-0.783-1.439-2.106-2.151-3.132-1.736 1.253-5.223 0.572-5.755 3.132 2.291-2.137 6.506 1.284 7.757 0.039l0.149-0.039zm204.74 3.914c3.003 0 3.519 2.701 5.747 0-1.665-0.54-1.923-2.623-3.589-3.131 0.063 2.121-2.94 0.665-2.307 3.201l0.149-0.07zm-145.11 3.132c1.728-0.321 1.563 1.44 3.589 0.782 2.744-5.167-3.511-5.519-3.738-0.689l0.149-0.093zm155.89 1.565c0.97 1.965 6.209 0.165 3.59-1.565 0.18 2.309-4.059-0.525-3.738 1.667l0.148-0.102zm-225.57 5.527c0.946-3.46 3.604-1.933 5.747-0.783 1.4-0.61 4.348-3.562 2.158-5.519-0.531 2.725-3.597 2.678-5.755 1.566-0.524 1.589-3.926 3.758-2.299 4.838l0.149-0.102zm126.43 78.913c10.166 0.783 4.043-19.032 12.934-22.883-0.164-2.975-2.705-3.343-2.877-6.318 3.401-1.667 0.383-5.48 2.158-8.682 6.795-0.18 8.492 1.785 15.084 1.566 0.352-2.49-1.29-2.787-0.711-5.527-5.779 0.07-10.534 1.566-13.654-2.349-0.547-6.466 1.564-11.437-2.158-16.573 1.212-7.359 7.476-11.07 15.812-12.62 1.822-1.941 3.049-4.54 5.747-5.527 2.659-0.556 3.081 1.347 5.74 0.783-0.516-2.411 0.735-2.873 0.719-4.736-3.261 1.44-6.295-0.36-8.601 0-0.782 9.097-8.884 6.764-15.085 8.682-3.292-3.218-4.864-8.338-9.344-10.264 2.002 31.847 3.135 60.547-5.912 84.518l0.148-0.07zm14.365-80.486c2.753-0.407 5.396-0.932 6.475-3.132-1.048-1.213-3.683-0.689-5.747-0.783 0.234 1.402-0.079 2.84-0.876 4.016l0.148-0.101zm-123.55 0.783c2.76-0.118 4.129-1.77 5.028-3.915-2.885 0.22-4.903 1.19-5.176 4.016l0.148-0.101zm94.823-3.132c-0.79 0.02-1.559-0.259-2.151-0.783-0.125 0.924-1.134 0.861-2.158 0.783-5.92 14.796-2.94 38.36 3.589 50.503-0.477-15.117 1.204-35.151 0.571-50.425l0.149-0.078zm-21.552 2.349c1.439 1.307 3.339 2.113 3.59 4.697-3.465 2.192 0.453 8.752-5.74 8.682-3.128-3.641-12.457-4.697-15.812-5.527 3.496 4.063 6.256 8.924 9.337 13.418 3.957 1.441 11.683-1.252 12.934 3.132-9.524 2.16-10.76 13.426-12.934 23.673 6.874-1.401 10.745-6.09 17.204-7.891-1.494-14.632-1.064-29.749-2.151-41.82-2.44 0.493-6.326-0.885-6.576 1.737l0.148-0.101zm-14.365 1.565c4.692 1.136 5.318 6.78 12.215 5.527-0.219-3.029-4.778-4.243-2.158-7.891-3.848 0.517-7.844 0.564-10.189 2.474l0.132-0.11zm-3.597 3.915v-3.132c-1.071 0.133-2.651-0.281-2.869 0.783 1.735-0.078 0.422 3.186 2.721 2.49l0.148-0.141zm161.64 6.31c0-2.396 1.517-3.069 2.15-4.698h-2.878c0.509 2.897-1.986 4.173 0.579 4.839l0.149-0.141zm-237.07 0c2.682-0.838 1.142 2.959 3.597 2.348 1.799-2.552-1.361-4.932-2.878-6.317 0.149 2.066-1.462 1.886-0.868 4.11l0.149-0.141zm148.71 5.527c4.372 0.352 6.483-1.472 10.057 0 1.079-3.022 3.276-4.823 4.308-7.892-5.067 2.631-10.791 4.228-14.513 8.032l0.148-0.14zm95.542 3.914c0.782 5.292 3.66-0.485 7.187 0.783-0.315-1.88-1.347-3.564-2.878-4.697-1.259 1.808-0.962 5.026-4.457 4.086l0.148-0.172zm-172.41 1.566c0.391 6.043 7.968 0 10.776 3.914-1.76-3.327-2.886-7.351-7.187-7.899 0.337 3.413-0.829 4.728-3.737 4.173l0.148-0.188zm76.149 0.783c-1.103 1.15 1.204 6.63-0.72 8.682 2.542 0.563 2.526 0.782 5.748 1.565-4.989-5.566 4.919-13.489-5.177-10.06l0.149-0.187zm114.22 8.682c-3.018 0.164-3.018-2.999-5.747-3.132-2.284 2.497 5.411 5.965 5.599 3.319l0.148-0.187zm-272.99 0c-0.219 2.082 1.502 2.035 2.878 2.348v-3.131c-0.545-0.066-1.097-0.013-1.619 0.155-0.522 0.167-1.002 0.445-1.407 0.815l0.148-0.187zm255.71 3.914c-0.54-2.427 1.97-1.519 1.438-3.914-0.922-0.04-0.993-1.01-2.158-0.783 0.305 1.565-0.977 4.822 0.61 4.916l0.11-0.219zm5.747 11.837c1.799-2.419 7.562-7.383 4.309-10.264-0.086 5.23-5.279 4.541-4.418 10.483l0.109-0.219zm7.906 32.355c0.954-7.562 6.889-23.752 12.214-29.2 11.19-11.477 25.649-4.04 34.478 2.348-2.542-9.034-7.89-14.655-15.804-15.782-5.516-0.557-11.084-0.294-16.523 0.783-14.967 3.491-22.513 25.599-24.429 45.774-1.259 13.308 6.107 37.53 12.214 43.394 5.818 5.589 14.858 4.65 19.401 12.627-5.239 0.298-7.108 4.29-11.495 5.519-1.814-1.691-3.824-3.131-5.747-4.697-18.823-4.078-33.68 13.458-30.169 29.193 3.964 17.85 29.997 19.901 25.14-2.348-3.3 0.062-4.879 2.004-8.601 1.565-3.128-2.56-3.535-8.212-4.309-13.41 5.669-12.173 25.242-7.766 31.608 0.783 9.274 15.602 4.332 44.975-9.337 56.022-4.731 0.227-6.96-4.846-10.057 0 0.54 4.932 6.483 3.914 7.179 8.681-2.557 4.557-13.849-0.493-14.365 6.31 1.243 2.349 4.942 1.942 4.317 6.318-2.878 4.29-8.133 0.509-11.503 1.566-2.808 6.31 2.909 6.458 5.028 11.046-8.602 7.437-19.323 10.678-30.888 11.837-3.128 0.321-6.592 2.082-10.056 1.566-17.986-2.607-15.57-25.256-8.602-38.658-13.951-1.503-20.91 17.411-13.646 29.193-3.964 1.432-6.302 4.642-10.056 6.318-4.395-3.061-15.374-2.686-20.832 0.782-0.969 0.619-1.689 3.617-3.589 5.528-6.623 6.654-14.951 11.367-15.092 22.883-2.831-1.848-2.197 1.487-5.028 1.565-5.63-9.457 6.256-17.716 8.602-26.038-4.692-7.977-14.506-10.365-17.204-20.511 1.869 7.649-0.782 19.11-2.158 26.038 5.036-1.503 6.091 8.714 1.439 8.682-4.567-7.249 0.125-21.513-3.59-29.201 1.338-3.209 3.496-8.087 0-10.255-3.464 9.347-11.847 13.309-16.523 21.302 7.484 4.697 9.548 15.289 13.646 23.673-1.955 3.382-5.975 4.478-10.768 4.737-2.659-6.263-4.324-13.669-7.194-19.728-9.916-6.725-13.661-20.23-30.881-18.938-1.337 5.339-10.509 9.809-11.502 0.783-0.305-2.967 2.252-2.795 2.877-4.736-1.384-11.422-10.22-24.207-22.99-19.729 22.482 3.061 16.539 36.137-5.028 34.72-12.895-6.349-27.674-10.639-33.766-24.456 0.485-2.396 3.66-5.942 2.151-7.899-0.649 2.998-2.878 0.579-5.021 0.783 0-1.856-1.235-2.349-0.719-4.698-2.346 0.04-2.745 2.239-5.748 1.566-1.04-1.229-1.509-3.077-2.15-4.736 4.911-2.599 9.532-10.326 5.02-16.573-6.428-1.566-7.037 3.272-9.336 6.317-0.65-0.696-2.12-0.133-4.3092-0.783 0.4382-5.386-5.0829-9.018-6.467-14.991-0.2736-1.198 0.7821-3.664 0.7195-4.698-1.0088-16.166 1.2981-33.052 12.934-42.619 3.824-3.131 8.602-2.544 13.646-3.131 10.118 2.247 14.67 18.992 1.431 21.309-2.878-0.25-2.573-4-5.74-3.914-2.346 6.427 6.006 7.492 9.337 10.256 24.171-4.627 12.926-39.926-7.179-40.239-3.128-0.055-5.919 2.708-10.056 1.565-4.997 5.676-8.6017 8.753-16.523 10.263-2.823-3.781-0.6804-11.132 2.1504-13.418-0.7194-8.948 4.426-11.445 3.5892-20.519 6.2555-8.611 2.7685-23.337 0-35.502-1.1182-4.948-0.477-10.295-2.1504-14.21-5.8179-13.621-33.695-13.496-42.383-3.131-10.471 12.463 3.777 38.102 14.365 23.674-8.6017 0.227-9.5244-7.954-12.214-14.201 4.465-5.026 7.3036-13.011 14.373-13.419 14.607-0.837 23.334 28.403 22.982 49.712-0.4848 29.248-11.01 57.149-38.067 48.921-2.9871-6.364-7.9214-15.532-3.597-22.883 3.4641-5.879 15.209-8.869 17.985-1.565-0.2033-1.801 0.172-2.967 1.431-3.132-3.6909-12.862-21.645-12.651-27.291-3.914-14.271 21.983 11.292 65.471 38.074 50.502 2.9011 1.276 2.2912 6.42 5.0203 7.892-0.782 2.771-3.9099 3.037-5.7398 4.697-0.9462 14.091 2.6119 28.128 10.776 36.301-1.7282 3.515-6.9283 6.905-5.0359 11.837 3.1905-1.221 5.4035-9.277 10.064-3.953 0.1017 5.785-4.6371 9.973-2.1582 15.79 7.4912 0.164 4.0584-12.526 12.934-8.682 0.289 3.358-0.696 8.126 0.719 10.256 0.555 0.18 1.415 0 1.431 0.782 5.982-0.211 2.471-6.114 8.602-6.317 2.917 1.464 3.128 6.051 1.439 8.69 7.225 11.938 18.955 22.703 33.758 23.665 2.807 0.181 7.694 0.212 10.775-1.565s3.128-5.872 6.467-6.318c2.987-0.391 5.255 1.433 7.906 3.131 2.041-5.714 5.521-9.66 10.048-11.046 25.188-7.664 33.852 35.683 42.391 52.076-1.251 5.559-10.291-0.313-11.495 6.318 3.496 1.159 9.016 0.094 12.215 1.566 2.064 9.104-6.866 6.137-9.384 10.255 6.545 2.764 12.574-3.483 16.523 1.566 0.196 3.132-0.274 5.48-2.15 6.31-5.396-0.666-8.148 1.566-11.495 3.131 7.679 14.71 14.075 30.822 22.27 44.976 2.206-4.94 1.642-6.459 0-11.046 9.603-7.868 11.042-24.7 20.832-32.348-4.168-2.004-8.961-3.304-10.056-8.682 3.402-2.114 2.15-5.48 2.87-9.465 2.174-1.996 4.285 0.853 6.467-0.783-0.54-6.02-7.625 0-8.602-5.527 1.634-2.865 0.297-4.298 2.15-6.318-8.539-4.9 1.736-12.846 4.309-17.356-0.18-1.064-0.141-4.423-1.431-6.31 10.729-2.849 15.538-20.354 27.299-21.309 6.052-0.493 9.626 4.298 16.523 5.527 11.3 10.568-4.183 29.216-15.804 17.364 1.275 6.482 6.639 15.782 14.365 16.565 11.957 1.221 27.072-15.72 13.646-25.247 3.089-13.63 16.054-1.746 25.148-2.349 5.318-0.368 11.73-4.987 17.986-7.899 2.658-1.229 7.593-1.503 10.056-3.914 3.206-3.132 1.564-7.954 7.186-11.046 3.394 1.268 5.474 4.023 9.337 4.736 2.846-4.768-2.495-6.482-2.151-11.046 4.215-6.224 8.97 1.151 12.934 2.348 5.56-6.568-3.253-11.985-2.877-17.364 5.301-4.806 10.502 4.017 15.804-0.782 0.461-10.24-10.518-7.915-11.496-16.566 14.076-11.164 20.23-46.972 6.467-60.766 1.775-1.988 2.534-5.104 4.309-7.1 14.811 1.847 29.363-17.748 25.148-33.139-1.564-5.832-8.203-12.173-15.092-9.473 7.976 6.663 1.181 21.795-9.336 23.674-15.437-5.73-32.656-20.299-29.63-44.091l0.11-0.188zm-112.78-29.991c5.646 1.957 12.692 6.568 15.804 8.682-2.096-2.967-2.111-8.212-4.316-11.046-2.956 4.744-10.362-1.488-11.597 2.583l0.109-0.219zm-63.942 10.263c5.098-2.947 9.705-6.674 13.653-11.046-5.989 1.926-14.967 4.408-13.762 11.266l0.109-0.22zm2.158 7.101c7.664-2.936 13.38-12.072 21.552-11.837-0.235-1.855-1.134-2.959-0.72-5.527-8.961 3.914-14.795 10.921-20.941 17.583l0.109-0.219zm-20.12-11.046c0-2.404 0.422-5.199-2.15-4.737-1.541 1.887 0.133 4.596 2.041 4.956l0.109-0.219zm174.57 1.565c0.602-1.918 1.118-5.12-1.431-5.48-0.227 2.678-0.141 4.948 1.321 5.707l0.11-0.227zm-14.365 1.566c2.197 0.572 2.119-1.362 4.308-0.783-1.149-2.669 3.05-3.366 0.72-4.736-0.876 3.1-4.731 2.529-5.138 5.762l0.11-0.243zm-221.98-2.348c1.384 1.565 4.395 0.822 3.589-2.349h-2.87c0.035 0.929-0.258 1.841-0.828 2.576l0.109-0.227zm291.68 0.782c-24.523-5.989-29.957 49.274-7.186 52.867-0.563 2.732 0.782 3.335 1.439 4.697 4.551-0.422 9.383-3.28 7.905-7.891-4.77-1.041-8.281 2.983-10.056-3.914 1.337-5.097 3.449-9.355 7.179-11.837-8.735-3.836-16.891-11.125-14.365-22.883 5.036-3.867 12.042-7.195 18.674-3.132-1.564-2.145-1.69-5.965-3.715-7.68l0.125-0.227zm-299.56 5.527c2.103-0.054 2.666-1.808 3.589-3.131h-3.589v3.131zm10.768 5.52c0-2.647 0-5.261-2.87-4.698-0.532 3.265 2.15 2.96 2.744 4.925l0.126-0.227zm77.587 7.891c0.587 2.254 1.158 4.517 4.309 3.914-0.227-8.47 11.612-11.876 10.056-16.565-4.668 4.736-9.868 8.486-14.49 12.878l0.125-0.227zm-68.243-7.891c1.799-0.642 3.848-1.026 3.589-3.915h-2.15c0.407 2.638-2.103 1.715-1.564 4.142l0.125-0.227zm74.71 14.209c2.033-0.658 1.861 1.111 3.589 0.782 4.755-5.566 12.715-11.805 13.654-18.945-7.922 4.048-10.479 13.638-17.368 18.39l0.125-0.227zm142.24-15.783c-1.337 0.783-2.401-2.348-2.878 0 1.72 1.002 2.643 2.881 5.748 2.349-0.321-1.488 0.977-4.752-1.431-3.915-0.282 1.081-0.931 1.441-1.564 1.793l0.125-0.227zm-224.14 4.736c4.082 2.967 3.268 10.906 0 14.992 2.885-0.955 5.262 2.091 5.747-0.783-2.009-1.495 0.133-5.057 0.72-6.31-2.252 0.368-2.933-0.986-3.59-2.348 1.392-3.202 1.236-8.103 3.59-10.256-3.644 0.266-3.801 4.056-6.592 4.964l0.125-0.259zm14.365-2.348c1.947 0.783 7.319 1.354 5.028-1.566-0.422 3.86-3.965-0.924-5.153 1.769l0.125-0.203zm58.194 1.565c0.649-1.393 2.643-1.307 2.87-3.131-2.58-0.853-5.137 1.949-2.995 3.39l0.125-0.259zm206.89 0.783c-5.81 5.089 2.831 13.638 9.384 12.62s9.939-10.96 7.898-16.565c-3.105 6.936-13.083 11.782-17.407 4.204l0.125-0.259zm-64.654 0.783v-3.131c-2.893-0.415-2.893 3.985-0.125 3.39l0.125-0.259zm-234.19 7.109c0.657 1.377 0.242 3.914 1.431 4.697 0.782-3.132 2.784-3.273 5.747-2.349-0.383-8.275 5.341-6.059 9.384-6.318v-3.131c-9.11-1.315-8.993 9.974-16.687 7.296l0.125-0.195zm251.43-6.318c0.32 2.544 1.094 4.58 4.308 3.914 0.579-3.531-1.274-4.384-3.589-4.736-0.164 0.744-0.235 1.198-0.844 1.072l0.125-0.25zm-140.08 13.418c3.59-2.904 8.274-8.784 8.602-12.627-2.831 4.603-6.803 7.601-8.727 12.854l0.125-0.227zm45.981-4.736c1.611-2.169-0.11-5.723-0.72-7.891h-2.158c-1.228 2.419 0.727 6.85 2.752 8.118l0.126-0.227zm55.309-6.318c3.605-1.065 2.807 2.709 5.028 3.132-0.461-2.388-1.118-4.557-3.589-4.737-0.133 1.3-1.384 0.979-1.564 1.84l0.125-0.235zm-170.25 4.736c2.236 0.251 3.832-3.648 1.439-3.914-0.939 1.151-2.174 1.629-1.564 4.11l0.125-0.196zm123.55 11.047c5.396-1.433 12.019-1.566 15.084-5.519-1.728-1.778-0.273-7.046-2.869-7.892-2.37 6.702-9.611 7.68-12.332 13.638l0.117-0.227zm-128.59-7.101c1.83-2.787-2.502-4.251-5.028-4.697 0.751 2.662 2.268 4.4 4.911 4.924l0.117-0.227zm50.281 3.914c8.563 2.631 20.277 7.751 28.026 6.318-9.532-4.008-20.245-6.709-26.587-14.209-1.353 2.051-1.853 4.666-1.556 8.15l0.117-0.259zm148.71-3.914c2.581-0.65 3.472 1.785 5.029 0 0.117-2.231-2.159-1.84-2.159-3.914-2.134 0.344-3.174 1.573-2.987 4.141l0.117-0.227zm-187.49 0.783c1.666-0.274 3.37-0.509 2.87-3.131-2.362-0.157-3.323 0.9-2.987 3.366l0.117-0.235zm15.084 0.783c2.62-1.566 4.286-0.133 6.467 0.783-0.015-0.838 0.234-1.66 0.712-2.349-1.932 0.548-1.384-1.628-2.151-2.348-3.776-0.619-3.753 2.513-5.145 4.157l0.117-0.243zm75.43 2.348c3.214 0.423 3.558 3.985 7.898 3.132-0.897-1.765-1.617-3.613-2.151-5.519-2.979 0.908-2.799-1.66-5.028-1.566-0.412 0.611-0.698 1.298-0.841 2.022-0.144 0.723-0.142 1.467 5e-3 2.19l0.117-0.259zm91.952 0.783c1.783 0.118 3.488 0.149 3.59-1.565-2.894 2.685-4.043-4.11-5.748-2.349 1.728 0.313 1.04 3.178 2.041 4.18l0.117-0.266zm15.804-0.783c5.06-1.346 4.489 3.492 7.187 4.737 1.564 0.133 0.32-2.795 0.711-3.914-2.87-0.525-3.761-3.234-7.186-3.132 0.036 0.927-0.258 1.837-0.829 2.568l0.117-0.259zm-189.65-0.782c-0.844-0.909-2.541-0.893-4.308-0.783-1.126 4.235 3.902 2.513 4.191 1.033l0.117-0.25zm95.55 2.348c1.369-0.336 3.128-0.289 2.862-2.348-1.353 0.18-1.564-0.885-2.862-0.783v3.131zm-125 3.132c0-2.646 0-5.261-2.878-4.737 0.055 2.748 1.869 3.335 2.761 5.034l0.117-0.297zm-8.602 9.472c-3.057-3.57-3.745-6.865-5.747-12.627-0.688 2.403-2.854 3.17-2.151 7.1 3.3 1.245 3.832 5.402 7.758 5.825l0.14-0.298zm214.79-7.891c1.149 2.662-3.05 3.366-0.712 4.697 0.673-3.57 7.038-5.355 9.337-2.348 0-2.098-0.274-4.51 0.719-5.527-4.16 0.869-4.832 5.785-9.485 3.475l0.141-0.297zm-188.21 3.914c2.612-1.182 5.912 1.308 5.747-3.914-0.961-1.315-4.066-0.266-5.028-1.566-1.126 1.3-0.852 3.711-0.86 5.809l0.141-0.329zm163.07 1.566c0.583-0.425 1.044-0.996 1.338-1.655s0.41-1.384 0.337-2.102-0.332-1.404-0.752-1.991-0.986-1.053-1.642-1.353c-1.572 2.138-0.43 5.903 0.578 7.438l0.141-0.337zm-172.41 2.349c0.352-2.654 1.095-5.433 0.719-7.109-1.501 2.599-3.034-1.331-4.316-1.565 0.203 4.188 3.151 5.159 3.456 9.034l0.141-0.36zm48.85-4.737c8.242 2.513 17.54 3.484 25.86 3.915-7.898-3.688-17.117-5.927-26.587-7.892-0.43 2.294 1.181 2.106 0.586 4.337l0.141-0.36zm97.7-3.914c-16.281 4.893-32.78 8.612-51.008 9.465 20.699 0.094 35.189-0.853 51.728-7.101-0.978 0.173-0.923-0.916-0.861-2.035l0.141-0.329zm-115.65 4.736c0.141-2.262 0.086-4.313-2.158-3.914-0.712 3.022 0.524 3.766 2.017 4.243l0.141-0.329zm155.88 0c-3.675 0.36-3.245-3.797-7.178-3.131 0.25 3.171 6.701 5.503 7.03 3.46l0.148-0.329zm-221.98 0.783c-0.109-2.231 4.434 0.658 4.317-1.565-1.071-2.467-6.569-0.322-4.457 1.894l0.14-0.329zm251.44 3.915c0.506-0.07 1.022-0.037 1.515 0.098 0.493 0.134 0.954 0.367 1.355 0.684 0.102-3.264-0.196-6.09-1.431-7.891-1.627 3.147 0.743 5.151-1.58 7.469l0.141-0.36zm-227.01 9.472c-1.266 0.705-2.103 1.902-3.589 2.349 0.07 3.241 0.117 6.443-1.439 7.891-3.605 2.223-5.247-2.223-7.186 0.783 2.862 1.331 4.754 3.719 7.898 4.736 0.148-4.572 2.612-6.607 5.036-8.682-0.97-0.516-1.337-1.683-1.439-3.131 1.877-4.204 5.474-5.332 9.337-5.527-7.413-0.157-0.532-11.133-7.898-11.046 2.565 6.09-2.065 8.502-0.86 12.987l0.14-0.36zm191.09 67.076c-1.486 0.211-0.68 2.936-2.158 3.131-24.601 3.476-52.393 6.099-79.762 5.519-1.47 6.177 0.61 17.278-0.711 24.465 7.037 3.327 4.152 17.528 10.056 22.093-0.102-2.482 1.845-2.709 3.589-3.132 0.86 1.691 3.91 0.979 2.878 4.697 1.986 0.212 4.918 0.556 6.467 3.132-0.462-3.398 2.658-2.866 5.028-3.132 0.336 4.431 1.102 6.396-2.159 7.899-2.15-2.575-6.169-2.615-9.336-0.783 4.692 1.66 6.936 6.052 11.495 7.892 4.621-2.466 7.499-2.067 12.926-3.132 1.173-6.732-6.983-5.543-4.309-12.62 4.191 1.879 9.102-1.698 11.495 1.566-0.93 2.92-1.173 6.6-1.439 10.256 2.573 0.375 4.153 1.284 6.467 0-0.273-16.691 5.552-27.886 12.934-33.938 3.511 3.195 9.454-0.563 14.365 1.566 0.704-1.855 3.128-1.871 4.309-3.131-4.52 0.783-4.379-3.609-5.748-6.31 2.51-0.947 8.813-1.981 9.337 1.566-1.233 1.378-2.206 2.97-2.87 4.697 1.767 1.033 3.558 5.863 0 6.31 0.782 2.403 2.401 6.85 5.028 4.736 0.868-0.454-0.469-2.983 0.72-4.736 3.221 0.383 3.276-2.709 5.028-3.915 2.142 0 2.44 2.051 4.308 2.349 1.127-2.975 1.955-6.263 6.467-5.527 0.986 1.018 0.712 3.429 0.72 5.527-10.213 0.352-11.824 10.177-18.682 14.201-1.266-0.712-1.188-2.904-2.869-3.131-0.915 3.789-4.239 1.119-6.467 0-3.996 4.932-5.584 19.462 0.719 22.883 2.549-1.801 3.613-0.619 7.898-0.783v3.131c8.469-0.962 17.649-1.127 22.99-5.519-0.219-4.431-7.39-4.76-5.747-8.682-3.339 0.783-4.333-1.018-6.459-1.566 0.969 3.805 5.207 8.283 2.869 11.039-2.346 1.284-4.246 0.086-5.747-1.566-1.345-1.503 0.43-1.432 0-3.914-3.48 0.556-4.168-4.909-3.597-6.318 2.346 0 3.581 1.339 6.475 0.783-0.884-6.341 7.608-5.558 7.178 0 3.472-0.665 5.083 0.728 7.179 1.566 0.563-4.259 1.235-12.033 7.905-11.837-1.392-4.431 2.073-6.122-0.719-9.465-1.297 2.122-1.804 4.634-1.431 7.093-1.736-0.313-1.564 1.448-3.597 0.783-0.462-3.695-2.518-5.645-2.158-10.256 1.032-0.188 1.219-1.299 2.158-1.566 3.182 1.269 5.216 2.051 7.186-0.783 1.736 2.302 5.935 1.903 6.467 5.481 0.876-4.643-2.557-11.415 0-15.775-4.543 0-1.126-8.768-6.467-7.899 1.087 3.538-3.01 6.153-5.747 7.899 1.376 1.902 4.895 1.456 5.028 4.697-1.478 0.219-0.673 2.944-2.151 3.132-1.751-0.455-3.698-0.682-3.597-3.132-2.643 1.91-4.136 1.198-6.467-0.783-0.57-2.732 1.072-3.029 0.728-5.48-2.659 1.566-4.81-2.074-7.906 0-2.245-1.479-3.441-4.118-4.309-7.1 1.799 0.133 1.744-1.77 2.87-2.349-3.167-1.315-6.17 6.419-11.495 0.783 2.049-5.887-2.346-8.792-3.589-13.418 0.555-2.279 1.775-3.829 5.028-3.132-1.345-5.746 6.412-8.995 10.056-9.473-0.252-1.349 4e-3 -2.743 0.719-3.914-4.911 1.01-8.304 5.864-11.495 0.783-1.923 1.832-1.681 6.044-5.028 6.31-2.346-1.347-3.675-3.852-3.589-7.891 3.464-4.306 6.631-7.704 5.028-14.201-1.267 0.454-4.223-0.956-4.309 0.782 1.564 0.329 0.681 4.322-0.719 3.915-10.221-0.721-3.589-14.875-5.755-20.519-0.17 0.522-0.45 1.003-0.821 1.408s-0.825 0.726-1.33 0.94c-2.346-1.878-4.84-3.624-5.028-7.899 0.649-1.385 2.643-1.299 2.87-3.131-3.198-1.018-5.263-5.48-3.589-9.465-2.886-0.251-5.724-0.556-7.179-2.349v-3.131c2.549-1.143 6.162-1.12 7.179-3.914-1.744-2.138-3.785-1.01-5.748-3.915 0.555 3.249-2.447 4.971-4.309 3.132 5.498 28.371 18.314 51.63 24.304 76.83l0.141-0.36zm33.039-76.548c-2.065-0.094-1.244-3.367-3.59-3.132-2.807 2.67 1.885 5.973 3.449 3.492l0.141-0.36zm-200.42 9.472c1.259-4.133 4.019-6.623 5.74-10.255-2.432 1.291-8.289 2.959-7.179 5.519 2.385-2.897 0.414 8.353 1.298 5.096l0.141-0.36zm12.926-7.1c0.461-2.873-1.486-3.132-3.589-3.132-0.43 3.116 2.291 4.666 3.448 3.492l0.141-0.36zm160.2 3.131c0.829-2.021 0.829-4.288 0-6.31-3.488-0.321-2.862 7.163-0.141 6.694l0.141-0.384zm-222.69-0.783c2.206-1.44 3.23 0.713 5.029-0.783 0.25-3.131-3.379-2.082-4.317-3.914-0.962 1.276-0.954 3.132-0.852 5.073l0.14-0.376zm230.6 2.349c2.558 0.18 4.309-0.533 5.029-2.349-1.306-1.442-2.749-2.753-4.309-3.914-1.251 1.495-0.774 4.384-0.86 6.654l0.14-0.391zm-158.04 3.131c-1.923 2.881-2.44 7.312-5.747 8.674 0.461 2.695 1.184 5.338 2.158 7.892 1.415-8.173 4.269-14.781 6.459-22.093-2.956 1.997-2.69-0.939-5.02-1.565-1.932 3.781 1.431 4.563 2.009 7.515l0.141-0.423zm-60.345-1.565c3.644 0.548 4.262-2.686 7.186-0.783-0.391-4.971-6.373-3.046-8.601-3.132 0.907 1.049 0.876 2.92 1.274 4.322l0.141-0.407zm232.76 0c0.565-0.338 1.198-0.546 1.853-0.608 0.655-0.063 1.315 0.022 1.934 0.247 0.618 0.224 1.179 0.584 1.641 1.053 0.462 0.468 0.815 1.034 1.031 1.656-0.234 1.848-2.221 1.762-2.877 3.132 0.868 0.884 1.305 2.246 3.597 1.565-0.063-5.284 5.317-3.703 7.186-1.565 0.461-3.132-1.9-3.179-1.439-6.318-3.847 5.073-8.336-2.028-13.653-2.349-0.297 1.934 0.672 2.177 0.586 3.594l0.141-0.407zm-243.54 3.914c1.862-2.497 4.505 0.783 6.467 0.783-0.25-2.615-2.15-3.421-3.589-4.697-0.782 1.62-4.653 3.256-3.018 4.352l0.14-0.438zm53.879-3.132c-0.548 2.975 0.875 3.774 0.719 6.31 2.549-0.877 3.613-3.397 7.906-2.348-0.446-8.048-4.192-1.104-8.797-3.547l0.172-0.415zm168.82 2.349c-0.101 1.965 0.376 3.272 1.439 3.914-0.109-2.215 1.76-2.27 3.59-2.348-0.219-3.594-2.518-0.658-5.169-1.136l0.14-0.43zm-7.897 3.131v2.349h2.15c-1.173-1.135 0.977-6.067-0.719-4.697-0.204 1.691-0.04 3.17-1.572 2.802l0.141-0.454zm-172.41-1.565c-5.294 10.678 4.262 9.285 3.59-0.783-0.016 2.153-2.69 0.798-3.73 1.229l0.14-0.446zm130.74 6.309c2.76 1.206 1.376-8.822 0.719-6.309 0.415 3.421-1.016 4.219-0.86 6.756l0.141-0.447zm66.093 11.837c-1.009-0.203-0.782-1.73-1.439-2.348-3.128-0.83-2.346 2.669-5.028 2.348-3.347-1.471-0.931-4.626-2.151-8.682 3.128-0.54 4.77-2.646 7.179-3.914 4.856 3.453 4.324 12.056 8.602 14.209 1.008-8.658-5.099-8.353-2.862-14.992-4.802 1.315-4.692-2.779-5.756-5.527-4.09 2.607-6.13 7.469-10.056 10.256 2.229 3.867 0.61 5.84-1.439 8.682 2.526 0.65 2.182 4.446 3.597 6.317 3.331-1.213 5.138-7.413 9.212-5.902l0.141-0.447zm-241.37-11.837c0.235-2.614 3.128 2.083 3.589-0.782-2.909 0.039-2.471-3.594-3.589-5.519-2.01 2.137-3.144 5.315-0.141 6.748l0.141-0.447zm208.33 0.783h1.439c0 0.478 0.11 0.932 0.72 0.783-0.428-2.051 0.292-2.834 2.158-2.348 0.516-2.412-1.244-2.349-0.72-4.698h-2.877c0.711 3.782-0.196 3.625-0.86 6.717l0.14-0.454zm46.7-1.565c0.891 3.358-2.393 2.113-2.878 3.914 0.504 0.906 1.23 1.67 2.109 2.218 0.88 0.547 1.885 0.862 2.919 0.913 0.524-2.16-1.431-1.565-1.438-3.131 1.133-2.435 3.19-3.867 7.186-3.132-0.086-2.004-1.048-3.061-2.87-3.131 0.329 3.57-2.87 2.685-5.169 2.787l0.141-0.438zm-222.7 15.782c1.454-5.229 4.692-8.533 5.747-14.201-1.775 0.102-3.464 0.117-4.316-0.783 3.097 4.76-7.038 11.469-1.572 15.423l0.141-0.439zm23.702-11.837c0 2.599 1.22 3.915 0.719 7.101 1.72-0.47 3.277-1.127 5.748-0.783-0.509-3.39-1.173-6.607-2.87-8.682-0.798 1.824-1.478 3.194-3.769 2.803l0.172-0.439zm160.2 3.915c2.346 2.951 7.351 2.975 10.776 4.736-3.308-3.813 0.227-7.343-2.159-10.256-2.525 3.633-5.473 1.566-7.897-0.782-1.517 2.372 0.633 4.298-0.861 6.771l0.141-0.469zm48.131 0.782c-2.346 2.396-8.649 0.494-8.602 5.528 4.191-1.981 10.111-2.052 14.373-3.915-2.894-2.082-4.16-5.957-7.187-7.891-0.946 3.977 1.056 4.368 1.275 6.756l0.141-0.478zm-137.93 98.641c4.575-6.059 2.792-17.559 3.597-26.038-1.134-1.205-4.004 1.128-5.028-1.565-0.782-2.482-0.07-1.785 0-4.698 0.845-0.908 2.534-0.892 4.309-0.783-0.235-2.896 0.61-6.983-0.72-8.674-27.635-0.125-53.549 1.918-71.12-8.689 3.432-11.869 8.601-28.591 10.056-43.394-0.649 1.37-2.511 2.035-3.59 0.782 0.298 5.293 1.705 10.467-3.589 11.046-4.903-1.244-0.696-8.713-3.597-11.046v6.31c-5.92 1.926-14.193 0.603-14.365-6.31 1.502-1.722 2.049 0.392 4.309 0 1.04-3.131 2.917-4.697 5.028-4.736-0.36-1.965 0-4.76-2.151-4.697 0.282 2.951-0.578 4.634-2.877 4.697-2.526-0.117-2.573-2.959-3.589-4.697-2.714 3.405-1.478 8.924-5.748 11.837 2.276-0.126 4.332 0 5.028 1.565-0.164 1.488 0.782 1.738 0.72 3.132-0.564 2.012-3.574 1.339-3.598 3.914 0.876 0.086 1.705 0.235 1.439 1.566 2.643-0.783 4.059-2.905 7.187-3.132 2.166 2.349 3.769 5.332 5.747 7.892 1.001-1.566 3.715-1.175 5.028-2.349 3.488 3.531 0.782 16.589-5.747 10.256-1.126-3.695 2.291-4.486 0.719-6.31-0.915-1.715-2.346 2.622-5.028 1.566-2.627-1.566-2.651-6.036-6.467-6.318-1.118 3.515-4.864 4.118-9.337 3.914 0.071 1.417-1.603 4.924 0 7.101 1.111-1.088 4.309-1.566 5.028-0.783 0.329-3.053 1.854-4.791 5.029-4.697 1.258 0.72 2.494 1.464 2.158 3.914-0.171 0.523-0.452 1.004-0.824 1.409-0.373 0.405-0.828 0.726-1.334 0.94-1.283 0-4.184-2.13-5.029 0 0 2.137 1.948 9.284-1.438 11.836-4.864-0.782-5.545-4.556-5.748-8.681-4.082 0.258-4.285 4.759-7.178 6.309 2.345 0.909 4.691 2.169 2.869 5.527 2.542 0.165 1.416-3.703 4.309-3.131 2.244 0.697 4.184 1.722 3.589 5.527-3.605 0.509-5.364 3.045-7.898 4.697 1.064 2.255 1.001 5.739 2.87 7.109 3.394-3.586 1.564-8.228 8.602-7.9-0.235-1.847-1.134-2.959-0.719-5.48 2.846-0.782 5.598-0.845 6.466 2.349 0.368 3.296-3.299 2.169-4.316 3.914 1.267 0.196 1.642 1.362 1.439 3.132-5.724 4.58-11.902 11.821-20.113 6.31 0.384-3.359 1.001-8.087 4.309-9.473-1.329-4.282-5.192-7.414-4.309-11.837-2.611 2.889-9.336 2.873-13.645 1.566-1.713 3.131-2.917 6.795-5.755 8.682-3.488-0.642-2.268-2.889-2.151-6.318-4.551 0.681-1.564 3.476-0.719 6.318-2.068 0.754-4.28 1.021-6.467 0.783 0.485 7.194 7.647 2.716 10.775 3.953-0.266-8.439 10.291-5.73 10.776 0-1.361 4.11-6.311 3.343-8.602 0.783-0.469 3.437-3.456 4.094-5.028 6.31 4.512 1.362 7.773 4.094 7.898 10.263 2.487-0.642 3.034 1.472 4.317 0-1.095-6.537-1.478-19.352 6.459-12.627-0.782 6.145-2.346 7.124-1.431 14.201-2.291 2.215-5.13 3.844-7.906 5.527 2.158 1.049 3.409 3.131 2.878 7.1 7.436 2.349 2.815 9.896 4.308 17.356 3.339 2.654 9.634 9.583 13.646 6.318-0.829-2.763-6.592-0.125-7.179-3.131-0.195-2.576 0.853-3.797 2.87-3.915 2.878 0.517 4.817 2.075 7.898 2.349 0.547 3.084 1.853 5.331 5.028 5.527-2.103-3.632 1.564-3.531 2.159-6.31-2.346-0.845-3.042-3.499-4.309-5.527 1.415-2.129 0.43-6.897 0.719-10.255 1.228-5.48 10.002-2.701 10.056-9.473-4.082 0.532-5.888-1.417-9.336-1.566 0.782 3.75-2.346 3.218-5.029 3.132-0.234-1.848-1.133-2.96-0.719-5.52 1.204-1.049 2.409-2.09 5.028-1.565 0.383-3.053-1.837-3.249-2.158-5.48-2.628 0.266-2.901 3.131-6.459 2.348-1.509-0.712-2.19-2.348-2.158-4.697 0.719 0 0.852-0.642 1.438-0.783 4.692 0.932 7.265 3.672 10.768 0 1.689 0.251 1.611 2.443 2.878 3.132-0.055-2.693 2.659-2.349 5.028-2.349 0 1.041 1.259 0.712 1.439 1.566 0.156 3.382-2.393 3.217-0.72 6.31 4.403 0.696 8.313 1.926 7.187 8.682 12.707 2.348 17.985 12.87 21.543 25.255 15.343-0.493 23.937 2.348 31.616 11.046 0.891-6.686-9.024-3.515-7.906-13.418 3.323-2.834 6.044-0.392 6.467 3.914 4.199-0.133 5.536 2.865 8.601 3.914 3.84-4.697 8.751-8.275 10.784-14.992-5.411 1.417-7.898-4.015-5.028-7.1 2.971 1.245 5.497 4.361 5.622 6.028l0.141-0.47zm-25.141-78.114c-0.328-5.793 0.939-13.504-2.15-12.627 1.29 2.544-0.414 11.226 2.01 13.097l0.14-0.47zm119.97-11.837c-0.93 3.132 2.346 1.613 1.431 4.737h4.317c-0.907-2.169-1.619-4.533-3.597-5.527-0.258 1.393-1.275 1.323-2.292 1.26l0.141-0.47zm-93.391 8.682c-0.235-1.902 0.618-9.018-0.72-7.1 0.094 2.364-0.75 9.488 0.579 7.57l0.141-0.47zm6.467-0.783c-0.313-2.552 0.946-6.826-1.439-7.1-0.657 2.348-2.229 7.985 1.298 7.562l0.141-0.462zm99.139 2.349c-2.464 0.986-6.194 0.571-7.906 2.348-0.07 4.017 1.626 6.107 5.028 6.31 1.431-3.914 5.286-5.237 6.467-9.472 4.137-1.12 4.019 2.427 5.028 4.736 0.391-2.983 2.346-4.266 2.158-7.891-2.189 0-4.691 0.462-4.316-2.349-3.449 1.566-4.598 1.37-7.179-0.783-2.119 2.881 1.744 3.656 0.61 7.579l0.11-0.478zm-237.92 21.036c1.477-1.269 0.563-5.167 4.308-3.915-0.367-1.965 0-4.76-2.158-4.697-0.782 1.949-5.755 6.85-2.15 8.612zm289.5-3.132c-0.884-1.926-0.602-5.12-2.878-5.527-0.055 2.897-0.539 6.31 2.878 5.464v0.063zm-50.289 10.256c-2.346 0-3.574-1.331-6.467-0.783-0.249 1.35 0.01 2.744 0.727 3.914 3.128-1.785 4.113-2.466 8.602-1.566-0.203-2.841 2.839-2.137 2.87-4.697-2.049-0.109-1.314-3.296-1.439-5.527h-2.87c-0.094 4.455 1.455 6.576-1.423 8.58v0.079zm48.131-3.915c0.993 3.437 0.782 5.48-1.431 7.101 2.768-1.777 2.83 1.464 5.02 2.348 1.517-4.063 3.19-8.572-0.712-11.054-0.469 0.995-1.54 1.402-2.877 1.527v0.078zm-8.602 17.356c0.649-1.651 2.119-2.403 4.309-2.348 0.653 0.6 1.18 1.325 1.551 2.131 0.37 0.807 0.577 1.679 0.607 2.566-2.401 0-2.456 2.568-5.028 2.349-0.727-1.049-0.681-2.936-2.159-3.132-2.236 2.028-4.019 0.963-7.178 0.783-0.368 2.912 1.001 5.519-0.727 9.473 2.213 0.579 1.384-2.169 3.597-1.566 5.958 7.007 17.039-1.879 16.523-11.837-4.184-0.141-4.105-4.963-5.748-7.891-0.664 3.953-9 3.703-5.763 9.378l0.016 0.094zm-29.457-5.519c-0.821-3.617-2.854-1.018-5.748-2.348-0.109 4.055 3.457 0.101 5.732 2.254l0.016 0.094zm-2.87 6.318c1.791 0.117 0.211 2.669 0 3.131 3.284-0.446 4.098 1.817 4.309 4.698 2.197-0.572 2.619 0.782 4.308 0.782-0.047-3.209 2.276-3.812 2.159-7.1-3.582-0.54-5.474-2.944-7.906-4.697-0.016 2.027-2.01 1.941-2.87 3.092v0.094zm-243.53 3.131c0.422-2.818-2.127-2.395-4.309-2.348 0.204 2.904 2.385 3.108 4.293 2.27l0.016 0.078zm48.85 40.247c-1.876 0.717-3.414 2.115-4.309 3.915 0.782 2.348 3.222 2.771 6.467 2.348-0.782-2.63 0.219-2.693-0.719-5.48 0.782-1.808 5.13 0.376 5.747-1.566-2.345-1.346-3.034-4.556-7.186-3.914-1.001 0.893-1.001 3.609-0.031 4.619l0.031 0.078zm4.309 11.047c-5.044 5.174-8.711-4.345-12.934-0.783 2.604 1.652-1.423 2.544-1.431 3.914 7.21 1.879 17.68 1.198 17.203-7.891-2.033 0.657-1.861-1.112-3.597-0.783-1.368 1.464 0.782 3.116 0.743 5.464l0.016 0.079zm7.186 31.565c-4.113 25.513 35.275 18.749 25.141-6.318-2.784-2.247-6.256-1.292-9.337 0-0.962 4.298-2.19 7.194-5.028 7.108-5.646-0.188-2.549-8.048-4.309-11.046-1.572 5.457-5.677 5.167-6.482 10.154l0.015 0.102zm132.15 0.782c0.117-1.299-4.434-1.299-4.316 0 0.015 1.261 4.692 3.124 4.332-0.101l-0.016 0.101z"/>
<path d="m201.96 485.91c0.297 1.902-1.314 1.714-0.719 3.914 1.783 1.198 4.473 1.401 5.036 3.914 0.5 4.04-4.692 4.893-6.475 3.915 0.782-1.809 0.461-4.76 1.439-6.31-0.446-1.871-4.418 0.117-5.028-1.566 0.117-0.916-0.157-1.401-0.72-1.566 0.266-3.836 4.192-4.736 6.467-2.301z"/>
<path d="m291.76 267.33c-1.4 3.641 2.056 8.056 2.869 11.837 1.518-0.705 2.127-2.403 4.309-2.349 0.641 1.41 2.01 2.012 1.439 4.737-0.915 1.08-3.394 1.08-4.309 0 0.235 2.896-0.782 4.384-1.439 6.318-3.174-0.564-5.035 2.012-6.466-0.783-1.564 1.158 0.281 6.09-3.59 4.736 0.563 1.746 2.51 1.973 3.59 3.131 0.961-0.782 1.415-2.137 2.877-2.348 0.937 0.072 1.836 0.403 2.597 0.956 0.76 0.552 1.353 1.306 1.712 2.175-0.485 3.421-1.275 6.498-4.309 7.109-2.659 0.548-1.791-2.772-2.877-3.915-2.581 1.433-6.256 1.018-6.46-2.348-3.956 0.603-1.564 6.451 0 7.891 0.234-0.239 0.513-0.429 0.822-0.559 0.308-0.13 0.639-0.197 0.973-0.197s0.665 0.067 0.974 0.197c0.308 0.13 0.587 0.32 0.821 0.559-0.735 5.112-3.558 8.024-8.602 6.318-1.178-1.628-1.918-3.531-2.151-5.527-6.255-1.566-7.819-8.236-10.064-14.202 1.181-1.565 2.933-2.567 5.756-2.348 0.281 3.131 3.91 2.513 4.308 5.527 1.33-0.117 0.438-2.67 1.432-3.131-0.892-0.29-3.668-0.548-5.029-2.349v-3.914c2.69-2.756 5.873-0.157 9.384-1.566 0.782-7.21 2.745-8.964-2.878-11.837 1.854-5.081 10.221-8.549 14.311-4.118zm-4.317 9.465c0.305 3.75-2.713 3.867-2.87 7.108 1.353-0.18 1.564 0.885 2.87 0.783 2.064-4.924 0.782-7.132 0.72-12.627-1.064-0.415-1.807-1.167-2.87-1.566-2.245 3.773 2.197 2.85 2.15 6.302zm-7.178 14.209h2.158c-0.407-1.409-0.376-3.28-1.447-3.914 0.297 1.91-1.306 1.683-0.711 3.914zm-4.317 9.465c1.439-1.66-0.235-4.369-2.15-4.736 0.555 1.761 0.414 4.282 2.15 4.736z"/>
</g>
<defs>
<clipPath id="a">
<rect transform="translate(0 -27)" width="454.11" height="665.2" fill="#fff"/>
</clipPath>
</defs>
</svg>
