<svg width="100%" height="100%" viewBox="0 0 50 53" fill="none" xmlns="http://www.w3.org/2000/svg">
<path d="M19.7097 18.9645C20.1287 18.9645 20.5476 18.9645 20.9789 18.9774C21.2007 18.9902 21.2623 18.8875 21.2623 18.682C21.25 18.361 21.2623 18.0271 21.2623 17.706C21.2623 17.5134 21.324 17.4235 21.5211 17.4235C21.8415 17.4363 22.1742 17.4235 22.4946 17.4235C22.6918 17.4235 22.7657 17.5134 22.7534 17.706C22.7411 18.0271 22.7534 18.361 22.7534 18.682C22.7534 18.9003 22.815 18.9902 23.0368 18.9774C23.3572 18.9645 23.6899 18.9645 24.0103 18.9774C24.2321 18.9902 24.2814 18.8746 24.2814 18.6692C24.2691 17.9243 24.2814 17.1666 24.2814 16.4218C24.2814 16.3191 24.2814 16.2292 24.2814 16.1264C24.2691 15.9081 24.38 15.8311 24.5771 15.8311C24.8729 15.8439 25.1809 15.8311 25.4767 15.8311C25.7478 15.8439 25.7724 15.8696 25.7724 16.1649C25.7724 16.9355 25.7724 17.6932 25.7724 18.4637C25.7724 18.5664 25.7724 18.6563 25.7724 18.7591C25.7724 18.926 25.8464 18.9774 25.9942 18.9774C26.3639 18.9774 26.7336 18.9774 27.091 18.9774C27.2265 18.9774 27.2881 18.9132 27.2881 18.7719C27.2881 18.4508 27.2881 18.117 27.2881 17.7959C27.2881 17.4363 27.3004 17.4363 27.6208 17.4235C27.9166 17.4235 28.2246 17.4235 28.5204 17.4235C28.7175 17.4235 28.7915 17.5005 28.7792 17.706C28.7668 18.0271 28.7792 18.361 28.7792 18.682C28.7792 18.8875 28.8408 18.9902 29.0626 18.9902C29.4816 18.9774 29.9005 18.9774 30.3318 18.9774C30.3318 19.4012 30.3195 19.825 30.3195 20.2359C30.3195 20.5698 30.3318 20.5698 30.6645 20.5826C31.0465 20.5826 31.4162 20.5955 31.7982 20.5955C31.7982 21.0064 31.8105 21.4174 31.8105 21.8283C31.8229 22.1237 31.8229 22.1365 32.1186 22.1365C32.4267 22.1365 32.7471 22.1494 33.0551 22.1365C33.2646 22.1237 33.3509 22.2264 33.3386 22.4448C33.3262 22.7658 33.3262 23.0997 33.3386 23.4208C33.3386 23.6134 33.2646 23.7033 33.0798 23.7033C32.7717 23.7033 32.4513 23.7033 32.1432 23.7033C31.8352 23.7161 31.8229 23.729 31.8105 24.0372C31.8105 24.3454 31.8105 24.6664 31.8105 24.9747C31.8105 25.27 31.8229 25.2829 32.1186 25.2829C32.858 25.2829 33.585 25.2829 34.3244 25.2829C34.4106 25.2829 34.4846 25.2829 34.5708 25.2829C34.7557 25.27 34.8419 25.3599 34.8419 25.5654C34.8419 25.8993 34.8419 26.246 34.8419 26.5799C34.8419 26.7597 34.768 26.8368 34.5955 26.8496C34.4106 26.8625 34.2135 26.8753 34.0286 26.8753C33.4002 26.8753 32.784 26.8753 32.1556 26.8753C31.8475 26.8753 31.8229 26.901 31.8229 27.2092C31.8229 27.5174 31.8229 27.8385 31.8229 28.1467C31.8229 28.442 31.8352 28.442 32.1309 28.442C32.4267 28.442 32.7347 28.442 33.0305 28.442C33.3262 28.442 33.3385 28.4677 33.3509 28.7503C33.3632 29.0713 33.3509 29.4052 33.3509 29.7263C33.3509 29.9317 33.2769 30.0088 33.0798 30.0088C32.7717 30.0088 32.4513 30.0088 32.1432 30.0088C31.8475 30.0088 31.8229 30.0345 31.8229 30.3555C31.8105 30.7665 31.8105 31.1774 31.8105 31.5884C31.4162 31.5884 31.0219 31.6012 30.6276 31.6012C30.3441 31.6141 30.3318 31.6141 30.3318 31.9223C30.3318 32.1919 30.3318 32.4616 30.3318 32.7313C30.3318 33.1679 30.3318 33.168 29.9005 33.168C29.6664 33.168 29.4323 33.168 29.2105 33.168C28.8285 33.168 28.8161 33.1808 28.8161 33.5661C28.8161 33.8743 28.8161 34.1953 28.8161 34.5035C28.8161 34.6833 28.7422 34.7604 28.5697 34.7604C28.2246 34.7604 27.8919 34.7475 27.5469 34.7604C27.3621 34.7604 27.3128 34.6705 27.3128 34.5035C27.3128 34.1696 27.3004 33.8229 27.3128 33.489C27.3251 33.2707 27.2512 33.1679 27.0293 33.1808C26.709 33.1936 26.3762 33.1808 26.0558 33.1808C25.834 33.1808 25.7848 33.2964 25.7848 33.5018C25.7971 34.2338 25.7848 34.9787 25.7848 35.7107C25.7848 35.8263 25.7848 35.9419 25.7848 36.0446C25.7848 36.2372 25.7108 36.3271 25.5137 36.3271C25.2179 36.3143 24.9098 36.3271 24.6141 36.3271C24.306 36.3271 24.2937 36.3143 24.2814 35.9932C24.2814 35.2227 24.2814 34.465 24.2814 33.6945C24.2814 33.1808 24.2814 33.1808 23.7885 33.1808C23.5297 33.1808 23.2709 33.1808 23.0122 33.1808C22.815 33.1808 22.7411 33.2707 22.7534 33.4633C22.7534 33.7844 22.7534 34.1183 22.7534 34.4393C22.7534 34.7475 22.7411 34.7604 22.4576 34.7604C22.1373 34.7732 21.8045 34.7604 21.4841 34.7604C21.3363 34.7604 21.2623 34.6962 21.2623 34.5292C21.2623 34.1953 21.2623 33.8486 21.2623 33.5147C21.2623 33.1936 21.2377 33.1808 20.9296 33.1808C20.6462 33.1808 20.3628 33.1936 20.067 33.1808C19.8083 33.1679 19.759 33.1294 19.759 32.8469C19.7467 32.5387 19.7467 32.2176 19.759 31.9094C19.7713 31.6911 19.6727 31.614 19.4632 31.614C19.0566 31.614 18.6499 31.6012 18.2433 31.6012C18.2433 31.1774 18.2186 30.7536 18.231 30.3298C18.231 30.1115 18.157 30.0216 17.9476 30.0216C17.6518 30.0345 17.3437 30.0345 17.048 30.0216C16.7646 30.0088 16.7399 29.9959 16.7276 29.7134C16.7153 29.418 16.7153 29.1227 16.7276 28.8273C16.7399 28.5191 16.7646 28.4806 17.0603 28.4806C17.3191 28.4677 17.5779 28.4806 17.8366 28.4806C18.2186 28.4806 18.231 28.4806 18.231 28.0953C18.231 27.8256 18.231 27.5559 18.231 27.2862C18.231 26.9138 18.2187 26.901 17.8736 26.901C17.2452 26.901 16.629 26.901 16.0006 26.901C15.2119 26.901 15.2119 26.901 15.2119 26.1048C15.2119 25.9378 15.2119 25.7709 15.2119 25.5911C15.2119 25.4113 15.2858 25.3342 15.4584 25.3342C15.8404 25.3342 16.2224 25.3342 16.6044 25.3342C17.048 25.3342 17.5039 25.3342 17.9476 25.3342C18.1324 25.3342 18.2186 25.2572 18.2186 25.0646C18.2063 24.7563 18.2186 24.4353 18.2186 24.1271C18.2186 23.806 18.194 23.7932 17.8983 23.7803C17.6025 23.7675 17.2944 23.7675 16.9987 23.7803C16.7892 23.7932 16.703 23.7033 16.7153 23.485C16.7276 23.1511 16.7276 22.8043 16.7153 22.4704C16.703 22.2393 16.8139 22.1879 17.011 22.1879C17.3314 22.2008 17.6641 22.1879 17.9845 22.1879C18.1817 22.1879 18.2433 22.1109 18.2433 21.9182C18.2433 21.4944 18.2556 21.0707 18.2556 20.6469C18.613 20.6469 18.958 20.634 19.3154 20.634C19.722 20.634 19.7343 20.6212 19.7343 20.2102C19.7343 19.7479 19.722 19.3498 19.7097 18.9645ZM23.542 25.27C23.3326 25.27 23.1354 25.27 22.9505 25.27C22.815 25.27 22.7534 25.3471 22.7534 25.4755C22.7534 25.8479 22.7534 26.2075 22.7534 26.5799C22.7534 26.7726 22.8396 26.8625 23.0245 26.8625C23.3325 26.8625 23.6529 26.8625 23.961 26.8625C24.2691 26.8625 24.2691 26.8753 24.2814 27.2092C24.2814 27.5174 24.2937 27.8385 24.2814 28.1467C24.2814 28.3521 24.3553 28.4292 24.5525 28.4164C24.8729 28.4035 25.2056 28.4035 25.526 28.4164C25.7355 28.4164 25.7848 28.3136 25.7724 28.1338C25.7601 27.8256 25.7601 27.5046 25.7724 27.1964C25.7848 26.901 25.8094 26.8753 26.0805 26.8753C26.4009 26.8625 26.7336 26.8625 27.054 26.8753C27.2265 26.8753 27.3004 26.8111 27.3004 26.6313C27.2881 26.2974 27.3004 25.9507 27.3004 25.6168C27.3004 25.3086 27.2881 25.3086 27.017 25.2957C26.709 25.2829 26.3886 25.2957 26.0805 25.2957C25.7971 25.2829 25.7848 25.2829 25.7848 24.9747C25.7848 24.6536 25.7848 24.3197 25.7848 23.9987C25.7848 23.8189 25.7108 23.7418 25.5383 23.7418C25.3781 23.7418 25.2179 23.7418 25.0454 23.7418C24.2937 23.7418 24.2937 23.7418 24.2814 24.5252C24.2814 24.7563 24.38 25.0517 24.2321 25.2315C24.0596 25.3856 23.7638 25.2187 23.542 25.27ZM22.7534 29.2383C22.7534 29.0456 22.7534 28.8401 22.7534 28.6475C22.7534 28.5191 22.7164 28.4164 22.5809 28.4164C22.1989 28.4164 21.8169 28.4164 21.4472 28.4164C21.3363 28.4164 21.2747 28.4806 21.2747 28.5961C21.2747 28.9943 21.2747 29.3924 21.2747 29.7776C21.2747 29.9189 21.3363 29.9959 21.4718 29.9959C21.8415 29.9959 22.1989 29.9959 22.5685 29.9959C22.7041 29.9959 22.7657 29.9189 22.7657 29.7905C22.7411 29.6107 22.7534 29.418 22.7534 29.2383ZM28.0028 29.9959C28.1754 29.9959 28.3602 29.9959 28.5327 29.9959C28.7299 30.0088 28.7915 29.906 28.7915 29.7134C28.7792 29.3667 28.7915 29.0071 28.7915 28.6604C28.7915 28.4806 28.7176 28.4035 28.545 28.4035C28.2123 28.4035 27.8673 28.4035 27.5346 28.4035C27.3621 28.4035 27.3004 28.4934 27.3004 28.6604C27.3004 28.853 27.3004 29.0585 27.3004 29.2511C27.3004 29.9959 27.3004 29.9959 28.0028 29.9959ZM27.3004 22.8814C27.3004 23.074 27.3004 23.2795 27.3004 23.4721C27.3004 23.6262 27.3621 23.7033 27.5222 23.7033C27.8796 23.7033 28.2246 23.7033 28.582 23.7033C28.7422 23.7033 28.8038 23.6262 28.8038 23.4721C28.8038 23.0869 28.8038 22.7144 28.8038 22.3292C28.8038 22.1879 28.7422 22.1237 28.6066 22.1237C28.4218 22.1237 28.2246 22.1237 28.0398 22.1237C27.3004 22.1109 27.3004 22.1109 27.3004 22.8814ZM21.2623 22.8557C21.2623 23.0997 21.2623 23.2923 21.2623 23.4978C21.2623 23.6262 21.3116 23.7161 21.4472 23.7161C21.8169 23.7161 22.1742 23.7161 22.5439 23.7161C22.6794 23.7161 22.7411 23.6391 22.7411 23.5107C22.7411 23.318 22.7534 23.1125 22.7411 22.9199C22.7287 22.6759 22.852 22.3677 22.6671 22.1879C22.5069 22.0338 22.2235 22.1365 22.0017 22.1365C21.7799 22.1365 21.4965 22.0338 21.324 22.1879C21.1391 22.342 21.2993 22.6502 21.2623 22.8557Z" fill="#FF4D4D"/>
<path d="M18.2441 11.1307C18.2441 11.5545 18.2441 11.9783 18.2317 12.4021C18.2317 12.6076 18.3057 12.6846 18.4905 12.6718C18.8972 12.659 19.3038 12.659 19.7104 12.659C19.7104 13.0956 19.7228 13.5322 19.7228 13.9817C19.7228 14.2 19.6365 14.2771 19.427 14.2771C18.6877 14.2642 17.9606 14.2771 17.2213 14.2771C16.7284 14.2771 16.7284 14.2771 16.7284 14.7779C16.7284 15.4714 16.7284 16.1649 16.7284 16.8583C16.7284 17.5133 16.7161 17.4234 16.1615 17.4234C15.4961 17.4234 14.8307 17.4234 14.1653 17.4234C13.7093 17.4234 13.7093 17.4234 13.7093 17.9242C13.7093 18.6177 13.7093 19.3112 13.7093 20.0047C13.7093 20.1074 13.7093 20.1973 13.7093 20.3C13.697 20.4927 13.6107 20.5697 13.4259 20.5697C13.0193 20.5697 12.6126 20.5697 12.206 20.5697C12.206 20.1331 12.1936 19.6964 12.1936 19.2598C12.1936 19.0415 12.1197 18.9644 11.9102 18.9644C11.4913 18.9773 11.0723 18.9516 10.6533 18.9516C10.6533 18.5407 10.6533 18.1297 10.6657 17.7188C10.6657 17.4234 10.678 17.4105 10.9614 17.4105C11.7254 17.4105 12.4894 17.4105 13.2411 17.4105C13.6724 17.4105 13.6724 17.4105 13.6724 16.9739C13.6724 16.7299 13.6724 16.4859 13.6724 16.2548C13.6724 15.831 13.6724 15.8181 14.0667 15.8181C14.3255 15.8181 14.5842 15.8181 14.843 15.8181C15.1757 15.8181 15.1757 15.8181 15.1757 15.4842C15.1757 15.2274 15.1757 14.9705 15.1757 14.7137C15.1881 14.2514 15.2004 14.2257 15.6317 14.2257C15.8904 14.2257 16.1492 14.2257 16.408 14.2257C16.6175 14.2385 16.7037 14.1486 16.6914 13.9303C16.6791 13.1084 16.6914 12.2865 16.6914 11.4646C16.6914 11.1693 16.6421 11.1179 16.3587 11.1179C16.063 11.1051 15.7549 11.1307 15.4591 11.1179C15.262 11.1179 15.188 11.195 15.2004 11.4004C15.2127 11.7215 15.188 12.0554 15.2127 12.3764C15.225 12.5947 15.1388 12.6975 14.9416 12.6975C14.5842 12.6975 14.2392 12.6846 13.8819 12.6846C13.7463 12.6846 13.6847 12.6204 13.6847 12.4792C13.6847 12.0939 13.6847 11.7086 13.6847 11.3362C13.6847 11.1821 13.7586 11.1051 13.9065 11.1051C14.2022 11.1051 14.5103 11.1051 14.8061 11.1051C15.1757 11.1051 15.1757 11.0922 15.188 10.7326C15.188 10.4501 15.188 10.1676 15.188 9.88505C15.1757 9.57684 15.1634 9.564 14.8553 9.55115C14.5596 9.55115 14.2515 9.53831 13.9558 9.55115C13.7709 9.55115 13.6847 9.48695 13.6847 9.28147C13.697 8.94758 13.697 8.60084 13.6847 8.26694C13.6847 8.06147 13.7709 7.98442 13.9558 7.99726C14.2146 7.99726 14.4733 7.99726 14.7321 7.99726C15.2127 7.99726 15.2127 7.98441 15.2127 7.50925C15.2127 6.72588 15.2127 5.95536 15.2127 5.17199C15.2127 4.79956 15.2127 4.79956 15.5824 4.79956C15.8411 4.79956 16.0999 4.79956 16.3587 4.79956C16.7037 4.79956 16.7161 4.8124 16.7161 5.18482C16.7161 5.94251 16.7161 6.68735 16.7161 7.44504C16.7161 7.52209 16.7161 7.5863 16.7161 7.66336C16.7284 7.98441 16.7407 8.0101 17.0364 8.0101C17.3445 8.02294 17.6649 8.02294 17.973 8.0101C18.1578 8.0101 18.2441 8.0743 18.2441 8.27978C18.2441 8.70357 18.2441 9.12736 18.2564 9.55115C17.8251 9.55115 17.3938 9.56399 16.9502 9.56399C16.7777 9.56399 16.7037 9.6282 16.7037 9.82084C16.7161 10.1933 16.7161 10.5528 16.7037 10.9253C16.7037 11.1179 16.7777 11.1693 16.9502 11.1693C17.3815 11.1179 17.8128 11.1307 18.2441 11.1307Z" fill="#FF4D4D"/>
<path d="M6.11798 3.20732C5.72365 3.20732 5.32933 3.20732 4.93501 3.20732C4.6023 3.20732 4.60229 3.22017 4.60229 3.56691C4.60229 3.84944 4.60229 4.13196 4.60229 4.41449C4.60229 4.74838 4.58996 4.74839 4.29422 4.76123C4.0108 4.76123 3.72738 4.76123 3.44395 4.76123C3.13589 4.76123 3.12357 4.77407 3.12357 5.09512C3.12357 5.83997 3.12357 6.59765 3.12357 7.3425C3.12357 7.44524 3.12357 7.53513 3.12357 7.63787C3.11125 7.93324 3.09892 7.95892 2.8155 7.95892C2.29795 7.97176 1.7804 7.95892 1.26285 7.95892C0.954786 7.95892 0.6344 7.95892 0.326334 7.95892C0.141494 7.95892 0.0552389 7.89471 0.0675615 7.68924C0.0798842 7.31682 0.0798842 6.95724 0.0675615 6.58482C0.0675615 6.37934 0.153814 6.30228 0.338654 6.31513C0.659043 6.31513 0.991757 6.30228 1.31215 6.31513C1.53395 6.32797 1.59556 6.22524 1.59556 6.00692C1.58324 5.69871 1.59556 5.37765 1.59556 5.06944C1.59556 4.74838 1.60789 4.74838 1.92828 4.74838C2.19938 4.74838 2.47047 4.74838 2.74157 4.74838C3.0866 4.74838 3.08661 4.73555 3.08661 4.40165C3.08661 4.09344 3.09893 3.77238 3.08661 3.46417C3.07429 3.24585 3.16054 3.15596 3.37002 3.15596C3.65344 3.15596 3.93687 3.15596 4.22029 3.15596C4.58997 3.15596 4.60229 3.14312 4.60229 2.73217C4.60229 2.4368 4.61461 2.14143 4.60229 1.84606C4.58996 1.65343 4.6639 1.58921 4.83642 1.58921C5.14449 1.58921 5.46487 1.58921 5.77294 1.58921C6.09333 1.58921 6.09334 1.57637 6.10566 1.26816C6.10566 0.959949 6.10566 0.638897 6.10566 0.330685C6.11798 0.0224738 6.13029 0.00963162 6.40139 0.00963162C6.70946 -0.00321054 7.02986 -0.00321054 7.33792 0.00963162C7.63367 0.0224738 7.68295 0.0610018 7.68295 0.356371C7.68295 1.20395 7.68295 2.05153 7.68295 2.91196C7.68295 3.14311 7.58436 3.20732 7.3872 3.20732C6.96823 3.19448 6.53695 3.20732 6.11798 3.20732Z" fill="#FF4D4D"/>
<path d="M31.7988 9.51283C31.7988 9.08904 31.8112 8.66525 31.7988 8.24145C31.7988 8.02314 31.8851 7.93325 32.0822 7.93325C32.3903 7.93325 32.7107 7.94609 33.0188 7.93325C33.2899 7.9204 33.3022 7.89472 33.3022 7.59935C33.3022 6.77745 33.2899 5.95555 33.2899 5.13365C33.2899 4.76123 33.3022 4.76123 33.6595 4.76123C33.943 4.76123 34.2264 4.76123 34.5221 4.76123C34.8302 4.76123 34.8425 4.77407 34.8425 5.10797C34.8425 5.83997 34.8425 6.58481 34.8425 7.31682C34.8425 8.01029 34.8179 7.93325 35.4463 7.93325C35.6681 7.93325 35.8776 7.93325 36.0994 7.93325C36.2596 7.93325 36.3459 8.0103 36.3459 8.19009C36.3335 8.56251 36.3335 8.92209 36.3459 9.29451C36.3459 9.4743 36.2719 9.55136 36.0994 9.55136C35.7913 9.55136 35.471 9.55136 35.1629 9.55136C34.8795 9.5642 34.8548 9.57704 34.8548 9.85957C34.8425 10.1678 34.8548 10.4888 34.8548 10.797C34.8548 10.9897 34.9411 11.0796 35.1259 11.0796C35.434 11.0796 35.7544 11.0796 36.0625 11.0796C36.2596 11.0796 36.3582 11.1566 36.3582 11.3749C36.3459 11.7345 36.3459 12.0813 36.3582 12.4408C36.3582 12.6206 36.3089 12.6977 36.1241 12.6848C35.7667 12.672 35.4217 12.7105 35.0643 12.672C34.8918 12.6463 34.8302 12.5821 34.8302 12.4152C34.8425 12.0813 34.8302 11.7345 34.8302 11.4006C34.8302 11.208 34.7686 11.1181 34.5714 11.1181C34.1648 11.1309 33.7581 11.1309 33.3515 11.1309C33.3515 10.6943 33.3268 10.2577 33.3392 9.82104C33.3392 9.60272 33.2652 9.52567 33.0557 9.52567C32.6368 9.52567 32.2178 9.51283 31.7988 9.51283Z" fill="#FF4D4D"/>
<path d="M1.55913 44.1482C1.96577 44.1482 2.37242 44.1482 2.77907 44.1482C3.07481 44.1482 3.09945 44.1739 3.11178 44.4949C3.11178 45.2269 3.11178 45.9718 3.11178 46.7038C3.11178 46.8065 3.1241 46.8964 3.11178 46.9991C3.09945 47.2175 3.17339 47.3074 3.3952 47.3074C3.70327 47.2945 4.02365 47.3202 4.33172 47.3074C4.54121 47.2945 4.61513 47.3844 4.61513 47.6027C4.60281 47.9109 4.61513 48.232 4.61513 48.5402C4.61513 48.9126 4.61514 48.9255 4.97249 48.9255C5.71185 48.9255 6.43889 48.9255 7.17825 48.9255C7.26451 48.9255 7.33844 48.9255 7.4247 48.9255C7.60954 48.9126 7.69579 49.0025 7.69579 49.1951C7.69579 50.0684 7.69579 50.9545 7.69579 51.8278C7.69579 52.0204 7.60953 52.0846 7.44934 52.0718C7.06734 52.0718 6.68534 52.0589 6.30334 52.0589C6.14315 52.0589 6.10618 51.9562 6.10618 51.8021C6.10618 51.4939 6.10618 51.1728 6.10618 50.8646C6.09386 50.5307 6.08154 50.505 5.74882 50.505C5.47773 50.4922 5.20663 50.505 4.93553 50.505C4.62747 50.505 4.62745 50.4922 4.61513 50.1711C4.61513 49.8629 4.61513 49.5419 4.61513 49.2337C4.61513 48.9383 4.60282 48.9255 4.3194 48.9126C4.02366 48.8998 3.71559 48.9126 3.41984 48.9126C3.09945 48.9126 3.09946 48.8998 3.09946 48.5787C3.09946 48.2705 3.09946 47.9495 3.09946 47.6412C3.09946 47.3202 3.07481 47.3074 2.77907 47.2945C2.49565 47.2817 2.21223 47.2945 1.9288 47.2945C1.62074 47.2945 1.62074 47.2817 1.60842 46.9478C1.5961 46.6652 1.60841 46.3827 1.58377 46.1002C1.55912 45.7406 1.55913 45.7406 1.18945 45.7406C0.906026 45.7406 0.622602 45.7278 0.339181 45.7406C0.142019 45.7406 0.0680861 45.6636 0.0804087 45.4581C0.0927314 45.137 0.0804087 44.8031 0.0804087 44.4821C0.0804087 44.1482 0.0927283 44.1482 0.400794 44.1482C0.770474 44.1482 1.1648 44.1482 1.55913 44.1482Z" fill="#FF4D4D"/>
<path d="M43.9109 36.3016C43.5289 36.3016 43.1469 36.3016 42.7649 36.3016C42.3952 36.3016 42.3952 36.3016 42.3952 36.7125C42.3952 37.0079 42.3952 37.3033 42.3952 37.6115C42.3952 37.7913 42.3213 37.8683 42.1488 37.8683C41.8037 37.8683 41.471 37.8555 41.126 37.8683C40.9042 37.8812 40.8549 37.7656 40.8549 37.5601C40.8672 37.2391 40.8549 36.9052 40.8549 36.5841C40.8549 36.3786 40.7809 36.3144 40.5838 36.3144C40.288 36.3273 39.98 36.3273 39.6842 36.3016C39.3762 36.2887 39.3638 36.2502 39.3515 35.9548C39.3515 35.6466 39.3638 35.3256 39.3515 35.0174C39.3392 34.799 39.4131 34.7092 39.6226 34.722C39.9307 34.7348 40.2511 34.722 40.5591 34.722C40.7686 34.7348 40.8549 34.6449 40.8426 34.4266C40.8302 34.1184 40.8426 33.7974 40.8426 33.4892C40.8426 33.1809 40.8302 33.1809 40.5468 33.1681C40.2511 33.1553 39.943 33.1553 39.6473 33.1424C39.4378 33.1424 39.3269 33.0525 39.3392 32.8085C39.3515 32.5003 39.3515 32.1793 39.3392 31.871C39.3269 31.6527 39.4008 31.55 39.6103 31.5628C39.9307 31.5757 40.2634 31.5757 40.5838 31.5628C40.7809 31.5628 40.8549 31.6399 40.8549 31.8325C40.8549 32.1921 40.8672 32.5388 40.8549 32.8984C40.8426 33.0782 40.9165 33.1167 41.0644 33.1167C41.3848 33.1167 41.7175 33.1167 42.0379 33.1167C42.3213 33.1296 42.3459 33.1424 42.3459 33.4378C42.3582 33.7588 42.3582 34.0927 42.3459 34.4138C42.3336 34.6321 42.4199 34.7092 42.6293 34.7092C43.381 34.6963 44.1204 34.7092 44.8721 34.7092C44.9707 34.7092 45.0569 34.7092 45.1555 34.7092C45.3157 34.7092 45.365 34.7862 45.365 34.9403C45.365 35.3127 45.365 35.6723 45.365 36.0447C45.365 36.2245 45.3034 36.3016 45.1185 36.3016C44.7612 36.3016 44.3422 36.3016 43.9109 36.3016Z" fill="#FF4D4D"/>
<path d="M30.3318 12.6594C29.9498 12.6594 29.5678 12.6722 29.1858 12.6722C28.7915 12.6851 28.7915 12.6851 28.7792 13.1088C28.7792 13.8794 28.7792 14.6371 28.7792 15.4076C28.7792 15.8185 28.7792 15.8185 28.3725 15.8185C28.1261 15.8185 27.8796 15.8185 27.6332 15.8185C27.2881 15.8185 27.2881 15.8057 27.2881 15.4333C27.2881 14.7141 27.2881 13.995 27.2881 13.263C27.2881 13.1474 27.2758 13.0318 27.2881 12.9291C27.3005 12.7493 27.2142 12.6722 27.0417 12.6851C26.7213 12.6851 26.3886 12.6851 26.0682 12.6851C25.7848 12.6722 25.7725 12.6722 25.7725 12.364C25.7725 11.5293 25.7725 10.6945 25.7725 9.85978C25.7725 9.55157 25.7848 9.53873 26.0559 9.53873C26.3763 9.52588 26.709 9.53873 27.0294 9.53873C27.2142 9.53873 27.3005 9.60293 27.2881 9.80841C27.2758 10.1295 27.2758 10.4634 27.2881 10.7844C27.2881 11.0798 27.3005 11.0926 27.5962 11.0926C28.3972 11.0926 29.1981 11.0926 29.9991 11.0926C30.2825 11.0926 30.2949 11.0669 30.3072 10.7844C30.3195 10.4634 30.3195 10.1295 30.3072 9.80841C30.3072 9.60293 30.3811 9.53873 30.5783 9.53873C30.9849 9.53873 31.3916 9.53872 31.7982 9.52588C31.8229 10.0652 31.8229 10.6046 31.7982 11.144C31.3916 11.144 30.9849 11.144 30.5783 11.1311C30.3811 11.1311 30.3072 11.2082 30.3195 11.4008C30.3318 11.8118 30.3195 12.2356 30.3318 12.6594Z" fill="#FF4D4D"/>
<path d="M39.3889 15.8055C39.7832 15.8055 40.1776 15.8184 40.5719 15.8055C40.8553 15.8055 40.8676 15.7927 40.8676 15.4845C40.8799 15.1634 40.8799 14.8295 40.8676 14.5084C40.8676 14.3158 40.9416 14.2131 41.1264 14.2259C41.4468 14.2259 41.7795 14.2259 42.0999 14.2259C42.3094 14.2259 42.3956 14.303 42.3956 14.5213C42.3833 14.8423 42.3833 15.1762 42.3956 15.4973C42.3956 15.8055 42.4079 15.8055 42.6914 15.8055C43.443 15.8055 44.1824 15.8055 44.9341 15.8055C45.0327 15.8055 45.1189 15.8055 45.2175 15.8055C45.353 15.8055 45.4147 15.8826 45.4147 16.011C45.4147 16.3834 45.4023 16.743 45.4147 17.1154C45.427 17.3466 45.3161 17.3979 45.1189 17.3979C44.3426 17.3851 43.5663 17.3979 42.79 17.3979C42.3956 17.3979 42.3956 17.3979 42.3956 17.8217C42.3956 18.1043 42.3833 18.3868 42.3956 18.6693C42.3956 18.8619 42.3463 18.9518 42.1368 18.9518C41.7795 18.939 41.4345 18.939 41.0771 18.9518C40.9169 18.9518 40.8553 18.8748 40.8553 18.7207C40.8553 18.3996 40.8553 18.0657 40.8553 17.7447C40.8553 17.3979 40.8553 17.3979 40.5226 17.3979C40.2638 17.3979 40.005 17.3979 39.7463 17.3979C39.3889 17.3979 39.3643 17.3723 39.3643 17.0255C39.3766 16.6274 39.3889 16.2165 39.3889 15.8055Z" fill="#FF4D4D"/>
<path d="M9.18581 18.9516C8.76684 18.9516 8.34786 18.9516 7.92889 18.9645C7.7194 18.9645 7.63316 18.8874 7.64548 18.6691C7.6578 18.3866 7.64548 18.1041 7.64548 17.8215C7.64548 17.4234 7.64547 17.4106 7.26346 17.4106C6.52411 17.4106 5.79708 17.4106 5.05773 17.4106C4.97147 17.4106 4.89753 17.4106 4.81127 17.4106C4.65108 17.4234 4.58946 17.3335 4.58946 17.1794C4.58946 16.8198 4.57714 16.4731 4.58946 16.1135C4.58946 15.831 4.60178 15.8182 4.90985 15.8182C5.66153 15.8182 6.40089 15.8182 7.15257 15.8182C7.63316 15.8182 7.64548 15.8952 7.64548 15.3173C7.64548 15.0605 7.64548 14.8036 7.64548 14.5468C7.64548 14.3542 7.70709 14.2514 7.90425 14.2643C8.24928 14.2643 8.58199 14.2771 8.92702 14.2643C9.12418 14.2643 9.18581 14.3542 9.18581 14.5468C9.17348 14.8678 9.19813 15.2017 9.18581 15.5228C9.17348 15.7411 9.24741 15.831 9.4569 15.8182C9.75264 15.8053 10.0484 15.8053 10.3565 15.8182C10.6399 15.831 10.6645 15.8438 10.6768 16.1264C10.6892 16.4474 10.6768 16.7813 10.6768 17.1024C10.6892 17.3335 10.5783 17.4106 10.3811 17.4106C10.073 17.4106 9.75264 17.4234 9.44458 17.4106C9.25974 17.4106 9.17347 17.4748 9.17347 17.6803C9.18579 18.1041 9.18581 18.5279 9.18581 18.9516Z" fill="#FF4D4D"/>
<path d="M12.2054 20.5698C12.2054 20.9807 12.1931 21.3917 12.1931 21.8026C12.1931 22.098 12.2054 22.1108 12.4889 22.1108C13.2405 22.1108 13.9799 22.1108 14.7316 22.1108C14.8302 22.1108 14.9164 22.1108 15.015 22.1108C15.1505 22.1108 15.2122 22.1879 15.2122 22.3163C15.2122 22.6887 15.1998 23.0483 15.2122 23.4207C15.2245 23.6519 15.1013 23.7032 14.9164 23.7032C14.2264 23.6904 13.5363 23.7032 12.8339 23.7032C12.7107 23.7032 12.5874 23.7161 12.4642 23.7032C12.2424 23.6904 12.1808 23.7931 12.1808 24.0114C12.1931 24.3325 12.1808 24.6664 12.1808 24.9874C12.1808 25.1801 12.1192 25.27 11.922 25.27C11.0964 25.2571 10.2585 25.27 9.43284 25.27C9.248 25.27 9.14941 25.2314 9.14941 25.0131C9.16174 24.6536 9.14941 24.3068 9.14941 23.9472C9.14941 23.7418 9.22334 23.6775 9.42051 23.6904C9.71625 23.7161 10.0243 23.7161 10.3201 23.6904C10.6035 23.6775 10.6405 23.639 10.6405 23.3308C10.6405 22.4062 10.6405 21.4944 10.6405 20.5698C11.1703 20.5569 11.6879 20.5441 12.2054 20.5698Z" fill="#FF4D4D"/>
<path d="M39.3885 20.5699C39.3885 21.5074 39.3762 22.4448 39.3762 23.3695C39.3762 23.6905 39.3885 23.7034 39.6966 23.7034C39.9923 23.7034 40.3004 23.7034 40.5961 23.7034C40.7809 23.7034 40.8672 23.7804 40.8672 23.973C40.8549 24.3069 40.8549 24.6537 40.8672 24.9876C40.8672 25.193 40.7809 25.2573 40.5961 25.2573C39.7705 25.2573 38.9325 25.2573 38.1069 25.2573C37.9221 25.2573 37.8358 25.193 37.8482 24.9876C37.8605 24.705 37.8482 24.4225 37.8482 24.14C37.8482 23.7162 37.8481 23.7162 37.4415 23.7034C36.6898 23.7034 35.9505 23.7034 35.1988 23.7034C34.8291 23.7034 34.8291 23.7034 34.8291 23.2924C34.8291 23.0099 34.8291 22.7274 34.8291 22.4448C34.8291 22.1238 34.8414 22.1109 35.1495 22.1109C35.7533 22.1109 36.3448 22.1109 36.9486 22.1109C37.0472 22.1109 37.1334 22.1109 37.232 22.1109C37.9221 22.0981 37.8482 22.2008 37.8482 21.4817C37.8482 21.2634 37.8728 21.0579 37.8728 20.8396C37.8728 20.6212 37.9591 20.5442 38.1685 20.5442C38.5752 20.5699 38.9818 20.5699 39.3885 20.5699Z" fill="#FF4D4D"/>
<path d="M36.3325 30.0089C35.9381 30.0089 35.5438 30.0089 35.1495 30.0089C34.8414 30.0089 34.8414 29.9961 34.8291 29.6622C34.8291 29.354 34.8291 29.0329 34.8291 28.7247C34.8291 28.4293 34.8414 28.4165 35.1372 28.4165C35.8396 28.4165 36.5543 28.4165 37.2567 28.4165C37.9098 28.4165 37.8482 28.4935 37.8482 27.8129C37.8482 27.5817 37.8605 27.3634 37.8482 27.1323C37.8358 26.9268 37.9344 26.8626 38.1193 26.8626C38.7724 26.8626 39.4255 26.8626 40.0786 26.8626C40.2388 26.8626 40.4113 26.8883 40.5715 26.8497C40.8426 26.7984 40.8795 26.8754 40.8795 27.1323C40.8795 27.4405 40.8795 27.7615 40.8795 28.0697C40.8795 28.4036 40.8672 28.4036 40.5592 28.4165C40.2881 28.4165 40.017 28.4165 39.7459 28.4165C39.4008 28.4165 39.3762 28.4422 39.3639 28.8018C39.3515 29.4824 39.3639 30.163 39.3639 30.8437C39.3639 30.9978 39.3639 31.1519 39.3639 31.306C39.3639 31.4858 39.2776 31.5628 39.1174 31.55C38.7724 31.55 38.4397 31.55 38.0946 31.55C37.9098 31.55 37.8605 31.4729 37.8605 31.2931C37.8728 30.9978 37.8605 30.7024 37.8605 30.3942C37.8605 29.9961 37.8605 29.9832 37.4785 29.9832C37.0965 29.9961 36.7145 30.0089 36.3325 30.0089Z" fill="#FF4D4D"/>
<path d="M19.7223 12.6594C19.7223 12.3255 19.7346 11.9787 19.7346 11.6448C19.7346 11.1183 19.7346 11.1183 20.2275 11.1183C20.9422 11.1183 21.6693 11.1183 22.384 11.1183C22.7537 11.1183 22.7537 11.1183 22.7537 10.7459C22.7537 10.4377 22.7537 10.1166 22.7537 9.80841C22.7537 9.61578 22.8276 9.52588 23.0124 9.52588C23.3575 9.52588 23.6902 9.52588 24.0352 9.52588C24.2077 9.52588 24.2817 9.60293 24.2817 9.78272C24.2817 10.6688 24.2817 11.5678 24.2817 12.4539C24.2817 12.6208 24.1954 12.6722 24.0475 12.6722C23.8011 12.6722 23.5546 12.6722 23.3082 12.6722C22.7167 12.6722 22.7413 12.608 22.7413 13.2758C22.7413 13.995 22.7413 14.7141 22.7413 15.4461C22.7413 15.8057 22.7413 15.8185 22.3717 15.8185C22.1252 15.8185 21.8787 15.8185 21.6323 15.8185C21.2503 15.8185 21.238 15.8185 21.238 15.3947C21.238 14.6884 21.238 13.9821 21.238 13.2758C21.238 13.1859 21.238 13.1088 21.238 13.0189C21.2256 12.6851 21.2256 12.6851 20.9176 12.6851C20.5356 12.6594 20.1166 12.6594 19.7223 12.6594C19.71 12.6594 19.7223 12.6594 19.7223 12.6594Z" fill="#FF4D4D"/>
<path d="M10.6891 26.8499C11.0958 26.8499 11.5024 26.8627 11.9091 26.8499C12.1186 26.8499 12.2048 26.9269 12.1925 27.1452C12.1802 27.4663 12.2048 27.8002 12.1925 28.1212C12.1802 28.3524 12.2788 28.4166 12.4759 28.4166C13.1906 28.4038 13.9177 28.4166 14.6324 28.4166C14.731 28.4166 14.8172 28.4294 14.9158 28.4166C15.113 28.3909 15.2239 28.468 15.2115 28.6991C15.1992 29.0202 15.2115 29.3541 15.2115 29.6751C15.1992 29.9833 15.1869 30.009 14.8788 30.009C14.1641 30.009 13.4371 30.009 12.7224 30.009C12.1432 30.009 12.1802 29.9448 12.1679 30.5869C12.1679 30.8309 12.1679 31.0621 12.1679 31.3061C12.1679 31.4859 12.0939 31.5629 11.9214 31.5629C11.6133 31.5629 11.293 31.5629 10.9849 31.5629C10.7138 31.5501 10.7015 31.5372 10.6891 31.229C10.6891 30.4585 10.6891 29.7008 10.6891 28.9303C10.6891 28.3652 10.7508 28.4166 10.1839 28.4166C9.92514 28.4166 9.66636 28.4166 9.40759 28.4166C9.23507 28.4166 9.16113 28.3395 9.16113 28.1598C9.16113 27.8002 9.16113 27.4534 9.16113 27.0938C9.16113 26.9141 9.24739 26.8499 9.40759 26.8499C9.83888 26.8627 10.2702 26.8499 10.6891 26.8499Z" fill="#FF4D4D"/>
<path d="M15.224 40.9888C15.5444 40.9888 15.8771 41.0016 16.1975 41.0016C16.7767 41.0016 16.6904 41.0145 16.7027 41.541C16.7151 41.7978 16.7151 42.0547 16.7027 42.3115C16.6904 42.5427 16.789 42.6069 16.9985 42.6069C17.2942 42.594 17.6023 42.594 17.898 42.6069C18.1938 42.6197 18.2061 42.6326 18.2184 42.9151C18.2307 43.249 18.2184 43.5957 18.2184 43.9296C18.2184 44.0837 18.1445 44.1608 17.9966 44.1608C17.6762 44.1608 17.3435 44.1608 17.0231 44.1608C16.7397 44.1608 16.7274 44.1736 16.7274 44.4818C16.7274 45.2909 16.7274 46.0999 16.7274 46.909C16.7274 47.3071 16.7151 47.3199 16.3454 47.3199C16.1113 47.3199 15.8894 47.3199 15.6553 47.3199C15.2487 47.3199 15.2487 47.3199 15.2487 46.909C15.2487 46.177 15.2487 45.4321 15.2487 44.7001C15.2487 44.1736 15.2487 44.1736 14.7311 44.1736C14.4723 44.1736 14.2136 44.1736 13.9548 44.1736C13.7823 44.1736 13.7207 44.0966 13.7207 43.9168C13.7207 43.5829 13.733 43.2361 13.7207 42.9022C13.7083 42.6711 13.8192 42.6069 14.0164 42.6197C14.2629 42.6326 14.5093 42.6197 14.7558 42.6197C15.261 42.6197 15.2487 42.6197 15.261 42.1189C15.2117 41.7208 15.224 41.3483 15.224 40.9888C15.2363 40.9888 15.224 40.9888 15.224 40.9888Z" fill="#FF4D4D"/>
<path d="M34.83 45.7278C34.83 46.1515 34.83 46.5753 34.83 46.9991C34.83 47.2046 34.7683 47.3073 34.5465 47.3073C34.2508 47.2945 33.9427 47.3073 33.647 47.3073C33.3389 47.3073 33.3266 47.2945 33.3266 46.9734C33.3266 46.2029 33.3266 45.4452 33.3266 44.6747C33.3266 44.572 33.3266 44.4821 33.3266 44.3793C33.3266 44.2124 33.2527 44.161 33.1048 44.161C32.7967 44.161 32.4763 44.161 32.1683 44.161C31.8479 44.161 31.8479 44.1482 31.8356 43.8271C31.8356 43.5446 31.8232 43.2621 31.8356 42.9795C31.8356 42.6071 31.8479 42.6071 32.2176 42.6071C32.501 42.6071 32.7844 42.5943 33.0678 42.6071C33.265 42.6071 33.3389 42.5301 33.3266 42.3374C33.3143 42.0035 33.3266 41.6568 33.3266 41.3229C33.3266 41.1303 33.4005 41.0404 33.5977 41.0532C33.9058 41.066 34.2261 41.066 34.5342 41.0532C34.7437 41.0532 34.83 41.1303 34.83 41.3486C34.8176 41.6696 34.8423 42.0035 34.83 42.3246C34.8176 42.5429 34.9039 42.6328 35.1134 42.62C35.4091 42.6071 35.7172 42.6071 36.0129 42.62C36.284 42.6328 36.321 42.6713 36.3333 42.941C36.3456 43.2492 36.3333 43.5703 36.3333 43.8785C36.3456 44.0968 36.2594 44.1867 36.0499 44.1739C35.7418 44.161 35.4214 44.1867 35.1134 44.1739C34.8916 44.161 34.83 44.2638 34.83 44.4692C34.8423 44.8802 34.83 45.304 34.83 45.7278Z" fill="#FF4D4D"/>
<path d="M28.7673 41.0018C28.3977 41.0018 28.028 41.0018 27.6707 41.0018C27.2887 41.0018 27.2886 41.0018 27.2886 41.3871C27.2886 41.6825 27.2886 41.9778 27.2886 42.286C27.2886 42.4787 27.2024 42.5686 27.0175 42.5686C26.7095 42.5686 26.3891 42.5686 26.081 42.5686C25.8839 42.5686 25.8223 42.4658 25.8223 42.286C25.8223 41.4385 25.8223 40.5909 25.8223 39.7305C25.8223 39.525 25.9085 39.4479 26.0934 39.4608C26.3645 39.4608 26.6355 39.4608 26.9066 39.4608C27.3133 39.4608 27.3133 39.4608 27.3133 39.0113C27.3133 38.2408 27.3133 37.4831 27.3133 36.7126C27.3133 36.3145 27.3133 36.3145 27.6953 36.3145C27.9541 36.3145 28.2128 36.3145 28.4716 36.3145C28.7674 36.3273 28.8043 36.353 28.8043 36.6612C28.8043 37.3803 28.8043 38.1123 28.8043 38.8315C28.8043 39.5378 28.7181 39.4608 29.4205 39.4608C29.6423 39.4608 29.8517 39.4608 30.0736 39.4608C30.2707 39.4608 30.3446 39.5507 30.3323 39.7433C30.3323 40.0644 30.32 40.3983 30.3323 40.7193C30.3323 40.9376 30.2461 41.0275 30.0366 41.0147C29.8148 41.0018 29.6053 41.0147 29.3835 41.0147C29.174 41.0018 28.9768 41.0018 28.7673 41.0018Z" fill="#FF4D4D"/>
<path d="M22.7538 37.8814C22.7538 38.2667 22.7538 38.6519 22.7538 39.0243C22.7538 39.4353 22.7538 39.4353 23.1604 39.4353C23.4315 39.4353 23.7026 39.4353 23.9737 39.4353C24.1586 39.4353 24.2448 39.4995 24.2448 39.705C24.2448 40.5526 24.2448 41.4001 24.2448 42.2606C24.2448 42.4532 24.1709 42.5559 23.9861 42.5559C23.678 42.5559 23.3576 42.5431 23.0495 42.5559C22.8277 42.5559 22.7661 42.4403 22.7661 42.2349C22.7661 41.9138 22.7538 41.5799 22.7661 41.2589C22.7784 41.0534 22.6922 40.9892 22.5073 40.9892C21.7187 41.002 20.93 40.9892 20.1414 40.9892C19.7594 40.9892 19.7594 40.9892 19.7471 40.5911C19.7471 40.3342 19.7471 40.0774 19.7471 39.8206C19.7471 39.4353 19.7594 39.4353 20.1414 39.4224C20.4125 39.4224 20.6836 39.4096 20.9547 39.4224C21.1642 39.4353 21.2381 39.3582 21.2381 39.1271C21.2258 38.3437 21.2381 37.5732 21.2381 36.7898C21.2381 36.6871 21.2381 36.5972 21.2381 36.4944C21.2381 36.3532 21.3121 36.2761 21.4476 36.2761C21.8173 36.2761 22.1869 36.2761 22.5443 36.2761C22.7168 36.2761 22.7291 36.4045 22.7291 36.5458C22.7538 37.0081 22.7538 37.4448 22.7538 37.8814Z" fill="#FF4D4D"/>
<path d="M6.15536 36.2632C5.73639 36.2632 5.31743 36.2632 4.88614 36.2632C4.67665 36.2632 4.59039 36.1862 4.60271 35.9679C4.61503 35.6853 4.60271 35.4028 4.60271 35.1203C4.60271 34.7478 4.61504 34.735 4.96007 34.735C5.66246 34.735 6.37717 34.735 7.07956 34.735C7.74498 34.735 7.67105 34.7992 7.67105 34.1186C7.67105 33.8874 7.67105 33.6691 7.67105 33.4379C7.67105 33.2453 7.73266 33.1426 7.92982 33.1426C8.25021 33.1426 8.58292 33.1426 8.90331 33.1426C9.07583 33.1426 9.13744 33.2325 9.13744 33.4123C9.13744 33.7462 9.14976 34.0929 9.13744 34.4268C9.12512 34.6451 9.21137 34.735 9.42085 34.7222C9.72892 34.7093 10.0493 34.7222 10.3574 34.7222C10.5545 34.7222 10.6654 34.7735 10.6654 35.0047C10.6531 35.3386 10.6654 35.6853 10.6654 36.0192C10.6654 36.1733 10.5915 36.2504 10.4436 36.2504C10.1479 36.2504 9.83982 36.2504 9.54408 36.2504C9.14976 36.2504 9.14976 36.2504 9.14976 36.687C9.14976 36.9695 9.14976 37.2521 9.14976 37.5346C9.14976 37.7401 9.07582 37.8428 8.86634 37.8428C8.55827 37.83 8.23788 37.8428 7.92982 37.8428C7.7573 37.8428 7.68337 37.7658 7.68337 37.586C7.68337 37.2521 7.68337 36.9053 7.68337 36.5714C7.68337 36.2761 7.67104 36.2632 7.3753 36.2504C6.96865 36.2632 6.56201 36.2632 6.15536 36.2632Z" fill="#FF4D4D"/>
<path d="M46.9795 47.2815C46.9795 47.731 46.9672 48.1933 46.9795 48.6428C46.9795 48.8354 46.9179 48.9253 46.7208 48.9124C46.4127 48.8996 46.0923 48.9124 45.7843 48.9124C45.4515 48.9124 45.4392 48.9253 45.4269 49.272C45.4269 49.5674 45.4269 49.8628 45.4269 50.1581C45.4269 50.492 45.4146 50.492 45.1188 50.5049C44.8231 50.5049 44.515 50.5049 44.2193 50.5049C43.9358 50.5177 43.8989 50.5562 43.8989 50.8516C43.9112 51.1598 43.9112 51.468 43.9235 51.7762C43.9358 51.9817 43.8619 52.0588 43.6647 52.0459C43.3197 52.0331 42.987 52.0331 42.642 52.0459C42.4818 52.0459 42.3955 51.9946 42.3955 51.8019C42.3955 50.9158 42.3955 50.0169 42.3955 49.1308C42.3955 48.8996 42.531 48.8996 42.6912 48.8996C43.4306 48.8996 44.1576 48.8996 44.897 48.8996C44.9833 48.8996 45.0572 48.8996 45.1435 48.8996C45.3406 48.9125 45.4392 48.8354 45.4269 48.6042C45.4146 48.2703 45.4146 47.9236 45.4269 47.5897C45.4269 47.2943 45.4392 47.2815 45.735 47.2815C46.1416 47.2943 46.5606 47.2943 46.9795 47.2815Z" fill="#FF4D4D"/>
<path d="M46.9922 4.74794C46.5609 4.74794 46.1296 4.74794 45.686 4.76078C45.5012 4.76078 45.4149 4.69657 45.4273 4.49109C45.4396 4.3113 45.4273 4.11867 45.4273 3.93888C45.4149 3.10414 45.5382 3.20688 44.7002 3.20688C44.0594 3.20688 43.4187 3.20688 42.7902 3.20688C42.4082 3.20688 42.4082 3.20688 42.4082 2.80877C42.4082 2.01256 42.4082 1.22919 42.4082 0.432973C42.4082 0.0733922 42.4082 0.0605469 42.7779 0.0605469C43.0367 0.0605469 43.2954 0.0605469 43.5542 0.0605469C43.9239 0.0605469 43.9116 0.0733922 43.9116 0.432973C43.9116 0.689816 43.8992 0.946663 43.9116 1.19066C43.9239 1.57593 43.9485 1.60161 44.3059 1.61445C44.5893 1.61445 44.8727 1.6273 45.1561 1.61445C45.378 1.60161 45.4396 1.70434 45.4396 1.92266C45.4273 2.24372 45.4273 2.57762 45.4396 2.89867C45.4519 3.19404 45.4642 3.20688 45.7476 3.20688C46.068 3.21972 46.4007 3.21972 46.7211 3.20688C46.9183 3.20688 46.9922 3.28394 46.9799 3.47657C46.9676 3.90036 46.9799 4.32415 46.9922 4.74794Z" fill="#FF4D4D"/>
<path d="M36.3703 17.4236C35.4953 17.4236 34.6081 17.4236 33.7332 17.4108C33.3389 17.4108 33.3389 17.4108 33.3389 17.0255C33.3389 16.1137 33.3512 15.1891 33.3512 14.2773C33.7455 14.1874 34.1398 14.2259 34.5218 14.2387C34.8176 14.2516 34.8546 14.303 34.8669 14.624C34.8669 14.9065 34.8669 15.1891 34.8669 15.4716C34.8792 15.7926 34.8915 15.8055 35.1873 15.8183C35.483 15.8183 35.7788 15.8312 36.0868 15.8183C36.2963 15.8055 36.3703 15.8954 36.3703 16.1137C36.3579 16.5503 36.3703 16.987 36.3703 17.4236Z" fill="#FF4D4D"/>
<path d="M46.9803 4.74829C47.387 4.74829 47.7936 4.76114 48.2003 4.76114C48.3974 4.76114 48.4714 4.83819 48.4591 5.04367C48.4467 5.32619 48.4467 5.60872 48.4591 5.89124C48.4714 6.31503 48.5083 6.35356 48.9027 6.35356C49.1738 6.35356 49.4449 6.3664 49.716 6.35356C49.9131 6.35356 49.9871 6.43061 49.9748 6.62325C49.9624 6.98282 49.9624 7.32956 49.9748 7.68914C49.9871 7.9203 49.8762 7.97167 49.679 7.97167C48.8657 7.95883 48.0524 7.95883 47.2268 7.97167C47.0173 7.97167 46.9434 7.89462 46.9434 7.6763C46.9803 6.7003 46.9803 5.72429 46.9803 4.74829C46.9927 4.74829 46.9803 4.74829 46.9803 4.74829Z" fill="#FF4D4D"/>
<path d="M33.3507 14.2774C32.4758 14.2774 31.5886 14.2774 30.7137 14.2646C30.3193 14.2646 30.3193 14.2646 30.3193 13.8408C30.3193 13.4427 30.3317 13.0574 30.3317 12.6593C30.7383 12.6593 31.145 12.6593 31.5516 12.6721C31.7488 12.6721 31.8227 12.5951 31.8104 12.4025C31.7981 11.9787 31.7981 11.5549 31.7981 11.1311C32.3156 11.1054 32.8332 11.1054 33.3507 11.1311C33.3507 12.1713 33.3507 13.2243 33.3507 14.2774Z" fill="#FF4D4D"/>
<path d="M46.9918 47.2945C46.9918 46.3314 46.9795 45.3682 46.9795 44.405C46.9795 44.2252 47.0411 44.1482 47.2136 44.1482C48.0516 44.1482 48.9018 44.1482 49.7397 44.1482C49.9246 44.1482 50.0108 44.2252 49.9985 44.4307C49.9862 44.7646 49.9862 45.1113 49.9985 45.4452C50.0108 45.6636 49.9369 45.7535 49.7151 45.7535C49.444 45.7406 49.1729 45.7535 48.9018 45.7535C48.4705 45.7535 48.4705 45.7535 48.4582 46.1901C48.4582 46.4598 48.4582 46.7295 48.4582 46.9991C48.4582 47.2945 48.4459 47.3074 48.1501 47.3074C47.7681 47.2945 47.3738 47.2945 46.9918 47.2945Z" fill="#FF4D4D"/>
<path d="M36.3704 17.4235C37.2699 17.4235 38.1818 17.4106 39.0813 17.4106C39.3524 17.4106 39.3771 17.4363 39.3771 17.7317C39.3894 18.1426 39.3894 18.5408 39.3894 18.9517C38.9704 18.9517 38.5515 18.9645 38.1202 18.9645C37.9107 18.9645 37.8368 19.0416 37.8368 19.2599C37.8491 19.6195 37.8368 19.9662 37.8368 20.3258C37.8368 20.4799 37.7751 20.557 37.6273 20.557C37.2822 20.557 36.9495 20.557 36.6045 20.557C36.4073 20.557 36.3457 20.4542 36.3457 20.2616C36.3457 19.9534 36.3457 19.6323 36.3457 19.3241C36.358 18.6949 36.3704 18.0527 36.3704 17.4235Z" fill="#FF4D4D"/>
<path d="M13.684 33.1682C13.684 33.5919 13.684 34.0157 13.684 34.4395C13.684 34.645 13.6101 34.7092 13.4253 34.7092C12.612 34.7092 11.7987 34.6964 10.9731 34.7092C10.7636 34.7092 10.6773 34.6193 10.6896 34.4138C10.7019 34.0928 10.7019 33.7589 10.6896 33.4378C10.6896 33.2452 10.7512 33.1553 10.9484 33.1553C11.2688 33.1681 11.6015 33.1425 11.9219 33.1553C12.1191 33.1553 12.193 33.0783 12.1807 32.8856C12.1683 32.5646 12.1683 32.2307 12.1807 31.9096C12.193 31.6142 12.2053 31.6014 12.4887 31.6014C12.7845 31.5886 13.0925 31.6014 13.3883 31.6014C13.5978 31.5886 13.684 31.6913 13.6717 31.9096C13.684 32.3077 13.684 32.7315 13.684 33.1682Z" fill="#FF4D4D"/>
<path d="M36.3584 33.1682C36.3584 32.7444 36.3707 32.3206 36.3584 31.8968C36.3584 31.6785 36.42 31.5886 36.6295 31.5886C36.9499 31.6015 37.2826 31.5886 37.603 31.5886C37.7755 31.5886 37.8494 31.6785 37.8494 31.8455C37.8494 32.1794 37.8618 32.5261 37.8494 32.86C37.8371 33.0783 37.9234 33.1554 38.1329 33.1554C38.4409 33.1425 38.7613 33.1554 39.0694 33.1554C39.2419 33.1554 39.3528 33.2067 39.3528 33.4122C39.3405 33.7718 39.3528 34.1185 39.3528 34.4781C39.3528 34.6707 39.2542 34.7221 39.094 34.7221C38.2684 34.7221 37.4428 34.7221 36.6172 34.7221C36.42 34.7221 36.3584 34.6451 36.3584 34.4524C36.3707 34.0158 36.3584 33.592 36.3584 33.1682Z" fill="#FF4D4D"/>
<path d="M33.3389 36.3145C33.3389 35.8907 33.3512 35.4669 33.3389 35.0431C33.3389 34.8248 33.4005 34.7349 33.6223 34.7349C34.4356 34.7477 35.2489 34.7349 36.0745 34.7349C36.2593 34.7349 36.3456 34.8119 36.3456 35.0174C36.3456 35.3384 36.3456 35.6723 36.3456 35.9934C36.3456 36.186 36.2717 36.2759 36.0745 36.2759C35.8157 36.2759 35.5569 36.2759 35.2982 36.2759C34.8422 36.2759 34.8422 36.2759 34.8422 36.7768C34.8422 37.0593 34.8422 37.3418 34.8422 37.6244C34.8422 37.7785 34.7806 37.8555 34.6204 37.8555C34.2754 37.8555 33.9427 37.8427 33.5976 37.8555C33.4005 37.8684 33.3389 37.7785 33.3389 37.5858C33.3389 37.162 33.3389 36.7383 33.3389 36.3145Z" fill="#FF4D4D"/>
<path d="M15.2241 34.735C15.6184 34.735 16.0127 34.735 16.407 34.735C16.6042 34.735 16.7151 34.7864 16.7151 35.0175C16.7028 35.8651 16.7151 36.7127 16.7151 37.5603C16.7151 37.7786 16.6288 37.8685 16.4194 37.8556C16.1113 37.8428 15.7909 37.8428 15.4828 37.8556C15.298 37.8556 15.2117 37.7786 15.2241 37.5859C15.2364 37.2777 15.2241 36.9695 15.2241 36.6485C15.2241 36.2632 15.2241 36.2632 14.8667 36.2632C14.5833 36.2632 14.2999 36.2632 14.0164 36.2632C13.807 36.2632 13.7207 36.1733 13.7207 35.955C13.7207 35.6468 13.733 35.3386 13.7207 35.0175C13.7207 34.7992 13.807 34.7093 14.0164 34.7221C14.4108 34.735 14.8174 34.735 15.2241 34.735Z" fill="#FF4D4D"/>
<path d="M31.7857 37.8812C32.1801 37.8812 32.5744 37.8812 32.9687 37.8812C33.2891 37.8812 33.3014 37.9069 33.3138 38.2151C33.3138 39.037 33.3138 39.8589 33.3138 40.6808C33.3138 40.989 33.2891 41.0018 33.018 41.0018C32.7223 41.0147 32.4142 40.989 32.1185 41.0018C31.8966 41.0147 31.835 40.8991 31.835 40.6936C31.8473 40.4496 31.835 40.2185 31.835 39.9745C31.835 39.4094 31.9213 39.4094 31.2805 39.4094C31.0464 39.4094 30.8122 39.3966 30.5904 39.4094C30.4056 39.4094 30.3193 39.3452 30.3193 39.1397C30.3317 38.7802 30.3193 38.4334 30.3193 38.0738C30.3193 37.8812 30.4056 37.8298 30.5658 37.8427C30.763 37.8555 30.9724 37.8684 31.1819 37.8684C31.3791 37.8812 31.5886 37.8812 31.7857 37.8812Z" fill="#FF4D4D"/>
<path d="M16.7398 39.4608C16.7398 39.0498 16.7398 38.6389 16.7398 38.2279C16.7398 37.9069 16.7644 37.8812 17.0602 37.8812C17.8488 37.8684 18.6375 37.8812 19.4261 37.8812C19.7095 37.8812 19.7219 37.9069 19.7342 38.2022C19.7465 38.4848 19.7465 38.7673 19.7342 39.0498C19.7342 39.3966 19.7219 39.4094 19.3892 39.4094C19.0934 39.4094 18.7977 39.4223 18.4896 39.4094C18.2801 39.3966 18.1939 39.4865 18.2062 39.7048C18.2185 40.0387 18.2062 40.3854 18.2062 40.7193C18.2062 40.9119 18.1322 41.0018 17.9474 40.989C17.6393 40.9762 17.319 40.9762 17.0109 40.989C16.7891 41.0018 16.7275 40.8863 16.7398 40.6808C16.7398 40.2827 16.7398 39.8717 16.7398 39.4608Z" fill="#FF4D4D"/>
<path d="M39.3761 48.8869C39.3761 49.3106 39.3761 49.7344 39.3761 50.1582C39.3761 50.4921 39.3638 50.505 39.068 50.505C38.7476 50.505 38.4149 50.505 38.0945 50.505C37.922 50.505 37.8604 50.4279 37.8604 50.2481C37.8604 49.3363 37.8604 48.4374 37.8604 47.5256C37.8604 47.3715 37.922 47.2944 38.0822 47.2944C38.4395 47.2944 38.7846 47.2944 39.1419 47.2944C39.3391 47.2944 39.4007 47.3715 39.4007 47.577C39.3761 48.0136 39.3761 48.4502 39.3761 48.8869Z" fill="#FF4D4D"/>
<path d="M12.1928 48.9126C12.1928 49.3364 12.1928 49.7602 12.1928 50.184C12.1928 50.4922 12.1805 50.5051 11.9094 50.5051C11.589 50.5179 11.2563 50.5051 10.9359 50.5051C10.7387 50.5051 10.6648 50.428 10.6771 50.2225C10.6771 49.3364 10.6771 48.4375 10.6771 47.5514C10.6771 47.3844 10.7264 47.2817 10.9112 47.2945C11.2686 47.2945 11.6136 47.3074 11.971 47.2945C12.1435 47.2945 12.2174 47.3716 12.2174 47.5514C12.1928 48.0009 12.1928 48.4503 12.1928 48.9126Z" fill="#FF4D4D"/>
<path d="M12.1936 3.18184C12.1936 3.61847 12.1813 4.0551 12.1936 4.50458C12.1936 4.71006 12.1197 4.77426 11.9225 4.77426C11.5775 4.76142 11.2448 4.76142 10.8998 4.77426C10.7273 4.77426 10.6533 4.71006 10.6533 4.53027C10.6533 3.657 10.6533 2.77089 10.6533 1.89762C10.6533 1.69215 10.7396 1.62793 10.9244 1.62793C11.2695 1.64077 11.6022 1.64077 11.9472 1.62793C12.1197 1.62793 12.1936 1.69214 12.1936 1.87193C12.1936 2.29573 12.1936 2.73236 12.1936 3.18184Z" fill="#FF4D4D"/>
<path d="M37.8486 3.1562C37.8486 2.73241 37.8486 2.30862 37.8486 1.88482C37.8486 1.69219 37.9102 1.60229 38.1074 1.60229C38.4524 1.61514 38.7852 1.61514 39.1302 1.60229C39.3274 1.60229 39.389 1.69219 39.389 1.88482C39.3767 2.74525 39.3767 3.61852 39.389 4.47895C39.389 4.67158 39.3274 4.76148 39.1302 4.76148C38.7852 4.74864 38.4524 4.74864 38.1074 4.76148C37.9102 4.76148 37.8486 4.67158 37.8486 4.47895C37.861 4.04231 37.8486 3.60568 37.8486 3.1562Z" fill="#FF4D4D"/>
<path d="M46.9424 12.6718C46.5358 12.6718 46.1292 12.6718 45.7225 12.6718C45.4391 12.6718 45.4268 12.659 45.4268 12.3508C45.4268 12.0297 45.4268 11.6958 45.4268 11.3748C45.4268 11.195 45.5007 11.1179 45.6732 11.1179C46.5235 11.1179 47.386 11.1179 48.2363 11.1179C48.4088 11.1179 48.4704 11.2078 48.4704 11.3748C48.4704 11.7087 48.4581 12.0554 48.4704 12.3893C48.4704 12.5948 48.3965 12.6718 48.2117 12.659C47.7804 12.6718 47.3614 12.6718 46.9424 12.6718Z" fill="#FF4D4D"/>
<path d="M3.09832 41.0019C2.69167 41.0019 2.28502 41.0019 1.87837 41.0019C1.59495 41.0019 1.58263 40.9891 1.58263 40.6809C1.5703 40.3598 1.58263 40.0259 1.58263 39.7048C1.58263 39.5251 1.64424 39.448 1.81676 39.448C2.67935 39.448 3.52962 39.448 4.39221 39.448C4.5524 39.448 4.61401 39.525 4.61401 39.6792C4.61401 40.0131 4.60168 40.3598 4.61401 40.6937C4.62633 40.912 4.5524 41.0019 4.33059 41.0019C3.92394 40.9891 3.5173 41.0019 3.09832 41.0019Z" fill="#FF4D4D"/>
<path d="M46.9424 41.0019C46.5234 41.0019 46.1045 40.9891 45.6732 41.0019C45.476 41.0019 45.4021 40.9377 45.4144 40.7322C45.4267 40.3983 45.4267 40.0516 45.4144 39.7177C45.4144 39.5507 45.4637 39.448 45.6485 39.448C46.5111 39.448 47.3614 39.448 48.2239 39.448C48.3965 39.448 48.4704 39.5251 48.4704 39.7048C48.4704 40.0644 48.4704 40.4112 48.4704 40.7707C48.4704 40.9634 48.3718 41.0147 48.2116 41.0147C47.7927 41.0019 47.3614 41.0019 46.9424 41.0019Z" fill="#FF4D4D"/>
<path d="M3.09969 12.6718C2.69304 12.6718 2.28638 12.6718 1.87973 12.6718C1.59631 12.6718 1.58398 12.659 1.58398 12.3508C1.58398 12.0297 1.58398 11.6958 1.58398 11.3748C1.58398 11.195 1.6456 11.1179 1.81812 11.1179C2.65607 11.1179 3.50634 11.1179 4.34428 11.1179C4.54145 11.1179 4.60306 11.2078 4.60306 11.4004C4.59073 11.7215 4.59073 12.0554 4.60306 12.3765C4.61538 12.5948 4.52913 12.6847 4.31964 12.6847C3.91299 12.6718 3.50634 12.6718 3.09969 12.6718Z" fill="#FF4D4D"/>
<path d="M31.7988 18.9646C32.2055 18.9646 32.6121 18.9646 33.0188 18.9774C33.3145 18.9774 33.3268 19.0031 33.3392 19.2857C33.3515 19.6067 33.3515 19.9406 33.3392 20.2617C33.3268 20.5442 33.3145 20.557 33.0188 20.5699C32.6121 20.5827 32.2055 20.5827 31.7988 20.5827C31.7988 20.0305 31.7988 19.4911 31.7988 18.9646Z" fill="#FF4D4D"/>
<path d="M31.7988 31.5498C32.2055 31.5498 32.6121 31.5498 33.0188 31.5627C33.3022 31.5627 33.3268 31.5883 33.3392 31.8709C33.3515 32.1919 33.3515 32.5258 33.3392 32.8469C33.3268 33.1294 33.3145 33.1422 33.0188 33.1551C32.6121 33.1679 32.2055 33.1679 31.7988 33.1679L31.8111 33.1808C31.7988 32.6285 31.7988 32.0892 31.7988 31.5498Z" fill="#FF4D4D"/>
<path d="M18.2428 31.5371C18.2428 32.0765 18.2428 32.6158 18.2428 33.1552L18.2552 33.1424C17.8608 33.1424 17.4665 33.1424 17.0722 33.1295C16.7395 33.1295 16.7148 33.1039 16.7148 32.7828C16.7148 32.4874 16.7148 32.1921 16.7148 31.8967C16.7148 31.5756 16.7272 31.5499 17.0352 31.5499C17.4419 31.5499 17.8485 31.55 18.2428 31.5371C18.2552 31.55 18.2428 31.5371 18.2428 31.5371Z" fill="#FF4D4D"/>
<path d="M18.2558 20.5699C17.8615 20.5699 17.4671 20.5699 17.0728 20.5571C16.7401 20.5571 16.7154 20.5314 16.7154 20.1975C16.7031 19.915 16.7154 19.6324 16.7154 19.3499C16.7154 18.9775 16.7278 18.9647 17.0728 18.9647C17.4671 18.9647 17.8615 18.9647 18.2558 18.9518L18.2435 18.939C18.2435 19.4912 18.2435 20.0306 18.2558 20.5699Z" fill="#FF4D4D"/>
<path d="M15.2362 40.9889C14.8173 40.9889 14.3983 41.0017 13.9793 41.0017C13.7822 41.0017 13.6836 40.9375 13.6836 40.7063C13.6959 40.3724 13.6959 40.0257 13.6836 39.6918C13.6836 39.512 13.7452 39.4349 13.9177 39.4221C14.2751 39.3836 14.6201 39.4093 14.9775 39.4093C15.1623 39.4093 15.2239 39.5249 15.2239 39.7175C15.2116 40.1413 15.2239 40.5651 15.2362 40.9889C15.2239 40.9889 15.2362 40.9889 15.2362 40.9889Z" fill="#FF4D4D"/>
<path d="M39.3886 15.8055C38.9696 15.8055 38.5506 15.8183 38.1317 15.8183C37.9345 15.8183 37.8359 15.7541 37.8359 15.523C37.8483 15.1891 37.8483 14.8423 37.8359 14.5084C37.8359 14.3286 37.8975 14.2516 38.0701 14.2388C38.4274 14.2002 38.7724 14.2259 39.1298 14.2259C39.3146 14.2259 39.3762 14.3415 39.3762 14.5341C39.3762 14.9708 39.3886 15.3817 39.3886 15.8055Z" fill="#FF4D4D"/>
<path d="M10.6652 20.5698C10.2709 20.5698 9.88892 20.5698 9.49459 20.5569C9.21117 20.5569 9.18652 20.5441 9.18652 20.2616C9.18652 19.8249 9.19884 19.3883 9.19884 18.9517C9.69175 18.9517 10.1847 18.9517 10.6776 18.9517C10.6776 19.491 10.6776 20.0304 10.6652 20.5698Z" fill="#FF4D4D"/>
<path d="M18.2436 9.5127C18.6503 9.5127 19.0569 9.52553 19.4636 9.52553C19.6484 9.52553 19.7347 9.58975 19.7347 9.79523C19.7223 10.142 19.7223 10.5015 19.7347 10.8611C19.747 11.0666 19.6484 11.1308 19.4636 11.1308C19.0569 11.1308 18.6503 11.1308 18.2436 11.1437C18.2313 10.5914 18.2313 10.0521 18.2436 9.5127Z" fill="#FF4D4D"/>
<path d="M39.3896 18.9517C39.7716 18.9517 40.1536 18.9517 40.5233 18.9645C40.8436 18.9645 40.856 18.9902 40.8683 19.3369C40.8683 19.6066 40.8683 19.8763 40.8683 20.146C40.8683 20.5441 40.856 20.5569 40.437 20.5697C40.0796 20.5697 39.7346 20.5698 39.3772 20.5826C39.3649 20.0304 39.3649 19.491 39.3896 18.9517C39.4019 18.9517 39.3896 18.9517 39.3896 18.9517Z" fill="#FF4D4D"/>
<path d="M11.4407 15.8181C11.2682 15.8181 11.0834 15.8181 10.9109 15.8181C10.763 15.8181 10.6768 15.7667 10.6768 15.5997C10.6768 15.2273 10.6768 14.8677 10.6768 14.4953C10.6768 14.3412 10.763 14.2642 10.9109 14.2642C11.2682 14.2642 11.6133 14.2642 11.9706 14.2642C12.1431 14.2642 12.2048 14.3669 12.2048 14.5338C12.2048 14.8934 12.2048 15.2402 12.2048 15.5997C12.2048 15.7667 12.1308 15.8309 11.9829 15.8309C11.7981 15.8181 11.6133 15.8181 11.4407 15.8181Z" fill="#FF4D4D"/>
<path d="M30.3317 18.9646C30.3317 18.5408 30.3193 18.117 30.3193 17.6932C30.3193 17.5005 30.3809 17.4106 30.5781 17.4106C30.8985 17.4235 31.2312 17.4235 31.5516 17.4106C31.7365 17.4106 31.8227 17.4877 31.8104 17.6932C31.7981 18.117 31.7981 18.5408 31.7981 18.9646L31.8104 18.9517C31.3052 18.9774 30.8246 18.9774 30.3317 18.9646Z" fill="#FF4D4D"/>
<path d="M18.2555 18.9646C18.2555 18.5408 18.2555 18.117 18.2432 17.6932C18.2432 17.5005 18.3048 17.4106 18.5019 17.4106C18.8223 17.4235 19.155 17.4235 19.4754 17.4106C19.6603 17.4106 19.7465 17.4877 19.7342 17.6932C19.7219 18.117 19.7219 18.5408 19.7219 18.9646L19.7342 18.9517C19.229 18.9774 18.7361 18.9774 18.2555 18.9646Z" fill="#FF4D4D"/>
<path d="M18.2434 33.1679C18.6623 33.1679 19.0813 33.155 19.5003 33.155C19.6481 33.155 19.7221 33.2192 19.7221 33.3733C19.7221 33.7458 19.7221 34.1053 19.7221 34.4778C19.7221 34.6319 19.6604 34.7089 19.5003 34.7089C19.1429 34.7089 18.7979 34.7089 18.4405 34.7089C18.2803 34.7089 18.2187 34.6319 18.231 34.4778C18.2433 34.0411 18.2434 33.6045 18.2434 33.1679C18.2557 33.155 18.2434 33.1679 18.2434 33.1679Z" fill="#FF4D4D"/>
<path d="M31.7986 33.1553C31.7986 33.5791 31.7986 34.0029 31.811 34.4267C31.811 34.6193 31.7493 34.7092 31.5522 34.7092C31.2072 34.6964 30.8745 34.7092 30.5294 34.7092C30.3816 34.7092 30.3076 34.645 30.3076 34.4781C30.3076 34.1185 30.3076 33.7717 30.3076 33.4122C30.3076 33.2067 30.3816 33.1296 30.5787 33.1425C30.9854 33.1553 31.392 33.1682 31.7986 33.1553Z" fill="#FF4D4D"/>
<path d="M39.3763 37.0722C39.364 37.9583 39.5119 37.8556 38.6246 37.8556C37.8853 37.8556 37.8853 37.8556 37.8853 37.0979C37.8853 36.9309 37.8976 36.764 37.8853 36.5842C37.873 36.3916 37.9346 36.2888 38.1317 36.2888C38.4768 36.3017 38.8095 36.2888 39.1545 36.2888C39.3394 36.2888 39.3887 36.3787 39.3763 36.5457C39.3763 36.7255 39.3763 36.8924 39.3763 37.0722Z" fill="#FF4D4D"/>
<path d="M31.047 41.0273C31.2441 41.0145 31.4043 41.0145 31.5645 41.0016C31.737 40.9888 31.8233 41.0658 31.811 41.2456C31.811 41.6052 31.811 41.9519 31.811 42.3115C31.811 42.4913 31.7247 42.5684 31.5522 42.5555C31.2072 42.5555 30.8745 42.5555 30.5294 42.5555C30.3692 42.5555 30.3076 42.4785 30.3076 42.3115C30.3076 41.9519 30.3076 41.6052 30.3076 41.2456C30.3076 41.0787 30.3816 41.0145 30.5294 41.0145C30.7143 41.0273 30.8991 41.0273 31.047 41.0273Z" fill="#FF4D4D"/>
<path d="M10.6649 32.3589C10.6649 32.5258 10.6649 32.6928 10.6649 32.8725C10.6649 33.0523 10.5786 33.1294 10.4184 33.1165C10.0734 33.1165 9.74068 33.1165 9.39564 33.1165C9.24777 33.1165 9.17383 33.0523 9.17383 32.8854C9.17383 32.5258 9.17383 32.1791 9.17383 31.8195C9.17383 31.6397 9.26009 31.5498 9.42028 31.5498C9.76532 31.5498 10.098 31.5627 10.4431 31.5627C10.6279 31.5627 10.6772 31.6654 10.6772 31.8323C10.6649 32.025 10.6649 32.1919 10.6649 32.3589Z" fill="#FF4D4D"/>
<path d="M18.9711 42.5687C18.2318 42.5687 18.2318 42.5687 18.2441 41.811C18.2441 41.5799 18.1455 41.2845 18.2934 41.1175C18.4659 40.9249 18.7493 41.0405 18.9958 41.0405C19.883 41.0405 19.7352 40.9634 19.7352 41.7853C19.7228 42.6586 19.8707 42.5559 18.9711 42.5687Z" fill="#FF4D4D"/>
<path d="M36.3332 40.2442C36.3332 40.4112 36.3332 40.5781 36.3332 40.7451C36.3332 40.912 36.2593 41.0019 36.0868 41.0019C35.7664 41.0019 35.4337 41.0019 35.1133 41.0019C34.9531 41.0019 34.8545 40.9377 34.8545 40.7579C34.8545 40.4112 34.8545 40.0516 34.8545 39.7048C34.8545 39.5251 34.9284 39.448 35.1009 39.448C35.4213 39.448 35.754 39.448 36.0744 39.448C36.2716 39.448 36.3332 39.5507 36.3332 39.7305C36.3332 39.8975 36.3332 40.0773 36.3332 40.2442Z" fill="#FF4D4D"/>
<path d="M11.4286 37.8554C11.2684 37.8554 11.1082 37.8554 10.948 37.8554C10.7755 37.8554 10.7139 37.7655 10.7139 37.5986C10.7139 37.2647 10.7139 36.9179 10.7139 36.584C10.7139 36.3914 10.7878 36.3015 10.9727 36.3015C11.2807 36.3144 11.5888 36.3144 11.9092 36.3015C12.094 36.3015 12.1926 36.3657 12.1803 36.5712C12.1803 36.9179 12.1803 37.2775 12.1803 37.6242C12.1803 37.7784 12.1187 37.8554 11.9585 37.8554C11.7736 37.8426 11.6011 37.8554 11.4286 37.8554Z" fill="#FF4D4D"/>
</svg>
