<svg width="118" height="28" viewBox="0 0 118 28" fill="none" xmlns="http://www.w3.org/2000/svg">
<path d="M111.884 16.6047V0.179688L118.001 6.15735V27.802H113.717L97.1017 11.3353V27.82L91.0566 21.8035V0.179688H95.2199L111.884 16.6047Z" fill="white"/>
<path d="M74.224 27.8197C72.1106 27.8197 70.1918 27.4831 68.4678 26.81C66.8208 26.1833 65.3156 25.25 64.0369 24.0628C62.8033 22.9073 61.8315 21.5144 61.1836 19.9732C60.5098 18.3753 60.1695 16.6633 60.182 14.9366V13.9504C60.182 11.9145 60.5118 10.0548 61.1715 8.37116C61.7831 6.75887 62.7188 5.28091 63.9241 4.02332C65.1118 2.80542 66.547 1.84059 68.1388 1.18999C69.8158 0.506369 71.6188 0.162788 73.4373 0.180327C75.4155 0.180327 77.1781 0.496446 78.7248 1.12868C80.2216 1.72752 81.5636 2.64024 82.655 3.80157C83.7597 5.00409 84.5931 6.41806 85.1014 7.95242C85.6797 9.682 85.9645 11.4915 85.9447 13.3099V16.2163H67.3265C67.4486 17.0833 67.7277 17.9225 68.1509 18.6948C68.9624 20.179 70.3138 21.3166 71.9415 21.8855C72.8119 22.1878 73.7306 22.3379 74.6551 22.3292C75.3488 22.3293 76.041 22.2633 76.7215 22.1322C77.3948 22.0038 78.0528 21.8098 78.6859 21.5529C79.303 21.3024 79.8886 20.9842 80.4314 20.6046C80.9828 20.1942 81.4727 19.7113 81.887 19.1697L85.6466 22.6383C85.0668 23.4093 84.4033 24.1173 83.6674 24.7503C82.9108 25.3679 82.076 25.8891 81.1834 26.3013C80.1655 26.7751 79.0988 27.1428 78.0011 27.3983C76.7642 27.6863 75.496 27.8277 74.224 27.8197ZM73.3875 5.72307C72.6399 5.71439 71.8983 5.85238 71.207 6.12876C70.5504 6.39891 69.9587 6.79871 69.4695 7.30279C68.9516 7.84126 68.5277 8.4581 68.2141 9.12906C67.8757 9.83479 67.8113 10.0774 67.6434 10.9475H79.2056H79.0162C78.9874 10.248 78.8419 9.55758 78.5852 8.90339C78.3437 8.28188 77.9725 7.71562 77.4949 7.24018C77.0002 6.75866 76.4088 6.38122 75.7574 6.13137C75.002 5.84771 74.1972 5.70905 73.3875 5.72307Z" fill="white"/>
<path d="M43.7393 27.8196C41.6253 27.8196 39.7062 27.4831 37.9816 26.8099C36.3343 26.1833 34.8286 25.25 33.5496 24.0628C32.3157 22.9072 31.3437 21.5144 30.6956 19.9732C30.0216 18.3753 29.6812 16.6633 29.6937 14.9366V13.9504C29.6937 11.9145 30.0236 10.0548 30.6835 8.37115C31.2985 6.75801 32.2381 5.27998 33.4475 4.02332C34.6324 2.80661 36.0642 1.84183 37.6526 1.18999C39.3299 0.506369 41.1334 0.162788 42.9523 0.180327C44.9301 0.180327 46.6932 0.496446 48.2412 1.12868C49.7384 1.72752 51.0807 2.64023 52.1723 3.80156C53.2775 5.00408 54.1111 6.41805 54.6194 7.95241C55.1956 9.68235 55.4782 11.4918 55.4562 13.3099V16.2162H36.836C36.9582 17.0832 37.2374 17.9224 37.6607 18.6948C38.4724 20.179 39.824 21.3166 41.4521 21.8855C42.3229 22.1877 43.2418 22.3378 44.1665 22.3291C44.8618 22.3286 45.5555 22.2618 46.2374 22.1294C46.9108 22.0012 47.5691 21.8072 48.2023 21.5503C48.8195 21.2996 49.4053 20.9815 49.9483 20.6019C50.4857 20.2275 50.9643 19.7793 51.3692 19.2714L55.162 22.6408C54.5822 23.4118 53.9184 24.1199 53.1824 24.7528C52.4256 25.3705 51.5906 25.8918 50.6977 26.3038C49.6796 26.7776 48.6125 27.1454 47.5146 27.4009C46.2782 27.6877 45.0106 27.8283 43.7393 27.8196ZM42.9027 5.72306C42.1549 5.71438 41.413 5.85237 40.7215 6.12875C40.0647 6.3989 39.4728 6.7987 38.9836 7.30278C38.4657 7.84125 38.0415 8.45808 37.7278 9.12905C37.3893 9.83477 37.3249 10.0774 37.1571 10.9475H48.7221H48.5327C48.504 10.2479 48.3583 9.55756 48.1016 8.90338C47.86 8.28186 47.4887 7.71561 47.011 7.24017C46.5162 6.75865 45.9247 6.38121 45.2731 6.13136C44.5176 5.8477 43.7125 5.70904 42.9027 5.72306Z" fill="white"/>
<path d="M15.5918 6.22262H0.156296L5.62013 0.179688H25.9607V4.57357L10.4197 21.7325H25.9112L20.3236 27.82H0V23.5547L15.5918 6.22262Z" fill="white"/>
</svg>
