<svg width="100%" height="100%" viewBox="0 0 300 300" xmlns="http://www.w3.org/2000/svg">
<path d="M111.742 167.918C111.73 167.914 111.718 167.923 111.718 167.936V204.564C111.636 207.904 108.94 210.593 105.606 210.674H68.8704C67.2611 210.635 65.7285 209.981 64.5894 208.846C63.4504 207.712 62.792 206.185 62.7506 204.58V167.918C62.8323 164.578 65.5286 161.898 68.8704 161.816H105.639C108.989 161.898 111.685 164.586 111.767 167.918C111.767 167.922 111.763 167.925 111.759 167.924L111.742 167.918ZM160.1 76.288C160.106 76.2845 160.113 76.2883 160.113 76.2946C160.119 85.9538 157.395 95.4193 152.252 103.605L152.375 103.393C150.026 106.772 147.218 109.81 144.033 112.42L143.951 112.485C141.328 114.783 138.46 116.966 135.437 118.954L135.143 119.134C132.893 120.508 129.777 122.314 125.796 124.551C121.587 126.944 118.015 130.308 115.378 134.36L115.304 134.474C113.013 137.411 111.559 140.909 111.097 144.601L111.088 144.699C111.062 146.514 110.414 148.265 109.254 149.663C109.252 149.665 109.249 149.663 109.25 149.661C108.778 150.367 108.142 150.95 107.397 151.361C106.653 151.772 105.82 151.999 104.969 152.023H68.2004C67.3529 151.963 66.5386 151.671 65.8477 151.177C65.16 150.686 64.6215 150.016 64.2912 149.239C64.2882 149.232 64.2857 149.225 64.2839 149.218C64.2803 149.203 64.2747 149.19 64.2672 149.177C63.2386 147.452 62.687 145.485 62.6689 143.477L62.6689 136.593C62.8503 127.656 66.4073 119.116 72.629 112.681L72.6208 112.689C78.5559 105.775 85.8866 100.187 94.1342 96.2891L94.5264 96.1261C99.3578 94.1908 103.736 91.2812 107.387 87.5798L107.395 87.5717C110.074 84.298 111.44 80.1495 111.227 75.9295V75.9702C111.095 73.654 110.38 71.4082 109.147 69.4404C107.915 67.4726 106.205 65.846 104.176 64.711C104.127 64.6893 104.08 64.6632 104.036 64.6331C99.201 61.3561 93.46 59.6655 87.614 59.7983H87.6385C81.755 59.5666 75.9413 61.1359 70.9785 64.2955L71.0929 64.2221C65.0573 69.3631 59.6271 75.1712 54.9067 81.5347L54.7025 81.8198C54.1562 82.5672 53.4427 83.1772 52.6187 83.6015C51.7946 84.0258 50.8827 84.2526 49.9553 84.264C48.5786 84.2207 47.242 83.7915 46.0987 83.0256L46.1232 83.0419L21.0065 63.9533C19.7563 63.046 18.9071 61.6912 18.637 60.173L18.6289 60.1405C18.3708 58.6527 18.6766 57.1225 19.4868 55.8469L19.4704 55.8714C33.0093 31.4383 58.6816 15.1685 88.1778 15.1685C89.0194 15.1685 89.8528 15.1848 90.6862 15.2093H90.5636C99.171 15.252 107.693 16.916 115.68 20.1138L115.215 19.9509C123.347 23.0194 130.948 27.338 137.741 32.75L137.578 32.6196C144.142 37.8833 149.601 44.3866 153.641 51.7571L153.805 52.0911C157.749 59.0693 160.077 67.4066 160.088 76.2814C160.088 76.2877 160.095 76.2915 160.1 76.288Z"/>
<path opacity="0.3" d="M264.719 124.987C264.715 124.985 264.71 124.989 264.71 124.993V139.203C264.679 140.498 263.651 141.541 262.381 141.573H248.387C247.774 141.558 247.19 141.304 246.756 140.864C246.322 140.424 246.071 139.831 246.056 139.209V124.987C246.087 123.691 247.114 122.651 248.387 122.619H262.394C263.67 122.651 264.697 123.694 264.728 124.987C264.728 124.988 264.727 124.989 264.725 124.989L264.719 124.987ZM283.141 89.4405C283.143 89.4391 283.146 89.4405 283.146 89.4429C283.149 93.1901 282.111 96.8621 280.152 100.038L280.198 99.9555C279.303 101.266 278.234 102.445 277.02 103.457L276.989 103.483C275.99 104.374 274.897 105.221 273.746 105.992L273.634 106.062C272.777 106.595 271.59 107.295 270.073 108.163C268.469 109.091 267.109 110.396 266.104 111.969L266.076 112.013C265.203 113.152 264.649 114.509 264.473 115.941L264.47 115.979C264.46 116.683 264.213 117.363 263.771 117.905C263.77 117.906 263.769 117.905 263.77 117.904C263.59 118.178 263.348 118.404 263.064 118.564C262.78 118.723 262.463 118.811 262.139 118.821H248.132C247.809 118.797 247.499 118.684 247.236 118.492C246.974 118.302 246.768 118.042 246.643 117.741C246.641 117.738 246.64 117.735 246.64 117.732C246.638 117.727 246.636 117.721 246.633 117.716C246.242 117.047 246.031 116.284 246.025 115.505V112.835C246.094 109.368 247.449 106.055 249.819 103.558L249.816 103.562C252.077 100.879 254.869 98.7116 258.011 97.1995L258.161 97.1363C260.001 96.3855 261.669 95.2568 263.06 93.8209L263.063 93.8178C264.084 92.5478 264.604 90.9385 264.523 89.3014V89.3172C264.473 88.4187 264.2 87.5475 263.731 86.7841C263.261 86.0207 262.61 85.3897 261.837 84.9494C261.818 84.941 261.8 84.9308 261.783 84.9192C259.942 83.6479 257.755 82.9921 255.527 83.0436H255.537C253.295 82.9537 251.081 83.5625 249.19 84.7882L249.234 84.7598C246.934 86.7541 244.866 89.0072 243.068 91.4758L242.99 91.5864C242.782 91.8764 242.51 92.113 242.196 92.2776C241.882 92.4422 241.535 92.5302 241.181 92.5346C240.657 92.5178 240.148 92.3513 239.712 92.0542L239.721 92.0605L230.153 84.6555C229.677 84.3035 229.353 83.7779 229.251 83.189L229.247 83.1763C229.149 82.5992 229.266 82.0056 229.574 81.5108L229.568 81.5202C234.726 72.0419 244.506 65.7303 255.742 65.7303C256.063 65.7303 256.38 65.7367 256.698 65.7461H256.651C259.93 65.7627 263.176 66.4082 266.219 67.6488L266.042 67.5856C269.14 68.7759 272.036 70.4512 274.624 72.5507L274.561 72.5001C277.062 74.5421 279.142 77.0649 280.681 79.9242L280.743 80.0538C282.246 82.7608 283.133 85.9951 283.137 89.438C283.137 89.4404 283.139 89.4418 283.141 89.4405Z"/>
<path opacity="0.6" d="M215.59 259.399C215.583 259.397 215.575 259.402 215.575 259.41V281.197C215.527 283.184 213.922 284.783 211.938 284.831H190.071C189.113 284.808 188.201 284.419 187.523 283.744C186.845 283.07 186.453 282.161 186.428 281.207V259.399C186.477 257.412 188.082 255.818 190.071 255.769H211.957C213.951 255.818 215.556 257.417 215.605 259.399C215.605 259.401 215.602 259.403 215.6 259.402L215.59 259.399ZM244.375 204.895C244.378 204.893 244.382 204.895 244.382 204.899C244.386 210.644 242.764 216.275 239.703 221.144L239.776 221.018C238.378 223.028 236.707 224.835 234.811 226.387L234.762 226.426C233.201 227.793 231.494 229.091 229.694 230.274L229.519 230.381C228.18 231.198 226.325 232.272 223.955 233.603C221.45 235.026 219.324 237.027 217.754 239.438L217.71 239.506C216.346 241.252 215.481 243.333 215.206 245.529L215.201 245.588C215.185 246.667 214.8 247.709 214.109 248.54C214.108 248.541 214.106 248.54 214.107 248.539C213.825 248.959 213.447 249.306 213.004 249.55C212.561 249.795 212.065 249.93 211.558 249.944H189.672C189.168 249.909 188.683 249.734 188.272 249.441C187.863 249.149 187.542 248.75 187.345 248.288C187.344 248.284 187.342 248.28 187.341 248.275C187.339 248.267 187.336 248.259 187.331 248.251C186.719 247.225 186.391 246.055 186.38 244.861V240.766C186.488 235.45 188.605 230.37 192.308 226.542L192.304 226.547C195.836 222.435 200.2 219.111 205.109 216.792L205.343 216.695C208.218 215.544 210.825 213.813 212.998 211.612L213.003 211.607C214.597 209.659 215.41 207.192 215.284 204.682V204.706C215.205 203.328 214.779 201.992 214.046 200.822C213.312 199.651 212.294 198.684 211.086 198.009C211.057 197.996 211.029 197.98 211.003 197.962C208.125 196.013 204.708 195.007 201.228 195.086H201.243C197.741 194.948 194.28 195.882 191.326 197.761L191.394 197.718C187.801 200.776 184.569 204.231 181.759 208.016L181.638 208.185C181.313 208.63 180.888 208.993 180.397 209.245C179.907 209.498 179.364 209.632 178.812 209.639C177.993 209.613 177.197 209.358 176.517 208.903L176.531 208.912L161.581 197.558C160.837 197.018 160.331 196.212 160.17 195.309L160.165 195.29C160.012 194.405 160.194 193.495 160.676 192.736L160.666 192.75C168.725 178.217 184.006 168.539 201.564 168.539C202.065 168.539 202.561 168.549 203.057 168.564H202.984C208.107 168.589 213.18 169.579 217.934 171.481L217.657 171.384C222.498 173.209 227.022 175.778 231.066 178.997L230.968 178.92C234.876 182.051 238.125 185.919 240.53 190.303L240.627 190.502C242.975 194.653 244.361 199.612 244.367 204.891C244.367 204.895 244.372 204.897 244.375 204.895Z"/>
</svg>
