<svg width="100%" height="100%" viewBox="0 0 16 16" xmlns="http://www.w3.org/2000/svg">
<path
    d="M2.90811 1.45357C2.52235 1.45357 2.15238 1.60682 1.8796 1.8796C1.60682 2.15238
    1.45357 2.52235 1.45357 2.90811V13.0899C1.45357 13.4757 1.60682 13.8457 1.8796
    14.1185C2.15238 14.3912 2.52235 14.5445 2.90811 14.5445H13.0899C13.4757 14.5445
    13.8457 14.3912 14.1185 14.1185C14.3912 13.8457 14.5445 13.4757 14.5445
    13.0899V9.81721C14.5445 9.62432 14.6211 9.43934 14.7575 9.30295C14.8939 9.16656
    15.0789 9.08993 15.2718 9.08993C15.4646 9.08993 15.6496 9.16656 15.786
    9.30295C15.9224 9.43934 15.999 9.62432 15.999 9.81721V13.0899C15.999
    13.8615 15.6925 14.6014 15.147 15.147C14.6014 15.6925 13.8615 15.999
    13.0899 15.999H2.90811C2.13658 15.999 1.39664 15.6925 0.851076 15.147C0.305516
    14.6014 -0.000976562 13.8615 -0.000976562 13.0899V2.90811C-0.000976562
    2.13658 0.305516 1.39664 0.851076 0.851076C1.39664 0.305516 2.13658 -0.000976562
    2.90811 -0.000976562H6.18084C6.37373 -0.000976562 6.55871 0.0756466 6.6951 0.212037C6.83149
    0.348427 6.90811 0.533411 6.90811 0.726296C6.90811 0.919181 6.83149 1.10417
    6.6951 1.24056C6.55871 1.37695 6.37373 1.45357 6.18084 1.45357H2.90811ZM9.08993
    0.726296C9.08993 0.533411 9.16656 0.348427 9.30295 0.212037C9.43934 0.0756466
    9.62432 -0.000976562 9.81721 -0.000976562H15.2718C15.4646 -0.000976562 15.6496
    0.0756466 15.786 0.212037C15.9224 0.348427 15.999 0.533411 15.999
    0.726296V6.18084C15.999 6.37373 15.9224 6.55871 15.786 6.6951C15.6496
    6.83149 15.4646 6.90811 15.2718 6.90811C15.0789 6.90811 14.8939 6.83149 14.7575
    6.6951C14.6211 6.55871 14.5445 6.37373 14.5445 6.18084V2.48193L10.3314
    6.69502C10.2643 6.76449 10.184 6.81989 10.0953 6.85801C10.0066 6.89612 9.91115
    6.91619 9.81459 6.91702C9.71802 6.91786 9.62226 6.89946 9.53288 6.86289C9.4435
    6.82633 9.3623 6.77232 9.29401 6.70404C9.22572 6.63575 9.17172 6.55455 9.13515 6.46517C9.09859
    6.37579 9.08018 6.28003 9.08102 6.18346C9.08186 6.08689 9.10192 5.99146 9.14004
    5.90273C9.17816 5.814 9.23356 5.73375 9.30302 5.66666L13.5161 1.45357H9.81721C9.62432
    1.45357 9.43934 1.37695 9.30295 1.24056C9.16656 1.10417
    9.08993 0.919181 9.08993 0.726296Z"
/>
</svg>