<svg width="20" height="20" viewBox="0 0 20 20" xmlns="http://www.w3.org/2000/svg">
<path d="M18.7595 2.91954C19.2235 2.45562 19.2235 1.70346 18.7595 1.23954C18.2956 0.775622 17.5435 0.775622 17.0795 1.23954L9.99954 8.31954L2.91954 1.23954C2.45562 0.775623 1.70346 0.775622 1.23954 1.23954C0.775622 1.70346 0.775622 2.45562 1.23954 2.91954L8.31954 9.99954L1.23954 17.0795C0.775623 17.5435 0.775622 18.2956 1.23954 18.7595C1.70346 19.2235 2.45562 19.2235 2.91954 18.7595L9.99954 11.6795L17.0795 18.7595C17.5435 19.2235 18.2956 19.2235 18.7595 18.7595C19.2235 18.2956 19.2235 17.5435 18.7595 17.0795L11.6795 9.99954L18.7595 2.91954Z"/>
</svg>
