<svg width="100%" height="100%" viewBox="0 0 19 19" xmlns="http://www.w3.org/2000/svg">
<path d="M6.76562 9.10938C7.07643 9.10938 7.3745 8.98591 7.59427 8.76614C7.81404 8.54637 7.9375 8.2483 7.9375 7.9375C7.9375 7.6267 7.81404 7.32863 7.59427 7.10886C7.3745 6.88909 7.07643 6.76562 6.76562 6.76562C6.45482 6.76562 6.15675 6.88909 5.93698 7.10886C5.71721 7.32863 5.59375 7.6267 5.59375 7.9375C5.59375 8.2483 5.71721 8.54637 5.93698 8.76614C6.15675 8.98591 6.45482 9.10938 6.76562 9.10938Z"/>
<path d="M6.58735 12.1047C6.51923 12.0271 6.43642 11.9639 6.3437 11.9185C6.25099 11.8732 6.15022 11.8467 6.0472 11.8405C5.94418 11.8343 5.84095 11.8486 5.74349 11.8826C5.64603 11.9165 5.55626 11.9695 5.47937 12.0383C5.40248 12.1071 5.33999 12.1905 5.29551 12.2837C5.25104 12.3768 5.22545 12.4778 5.22024 12.5809C5.21502 12.684 5.23028 12.787 5.26513 12.8842C5.29998 12.9813 5.35374 13.0706 5.42329 13.1469C5.93594 13.7208 6.56417 14.1798 7.26673 14.4938C7.9693 14.8077 8.73032 14.9696 9.49985 14.9687C10.2694 14.9696 11.0304 14.8077 11.733 14.4938C12.4355 14.1798 13.0638 13.7208 13.5764 13.1469C13.7124 12.9921 13.7817 12.79 13.7694 12.5844C13.7571 12.3789 13.6641 12.1865 13.5107 12.0491C13.3572 11.9117 13.1558 11.8405 12.9501 11.8509C12.7444 11.8613 12.5511 11.9525 12.4124 12.1047C12.0463 12.515 11.5975 12.8431 11.0955 13.0674C10.5935 13.2917 10.0497 13.4072 9.49985 13.4062C8.3436 13.4062 7.30454 12.9047 6.58735 12.1047Z"/>
<path d="M13.4062 7.9375C13.4062 8.2483 13.2828 8.54637 13.063 8.76614C12.8432 8.98591 12.5452 9.10938 12.2344 9.10938C11.9236 9.10938 11.6255 8.98591 11.4057 8.76614C11.186 8.54637 11.0625 8.2483 11.0625 7.9375C11.0625 7.6267 11.186 7.32863 11.4057 7.10886C11.6255 6.88909 11.9236 6.76563 12.2344 6.76562C12.5452 6.76563 12.8432 6.88909 13.063 7.10886C13.2828 7.32863 13.4062 7.6267 13.4062 7.9375Z"/>
<path d="M18.875 9.5C18.875 8.26886 18.6325 7.04977 18.1614 5.91234C17.6902 4.77492 16.9997 3.74142 16.1291 2.87087C15.2586 2.00032 14.2251 1.30977 13.0877 0.838629C11.9502 0.367492 10.7311 0.125 9.5 0.125C8.26886 0.125 7.04977 0.367492 5.91234 0.838629C4.77492 1.30977 3.74142 2.00032 2.87087 2.87087C2.00032 3.74142 1.30977 4.77492 0.838629 5.91234C0.367491 7.04977 0.125 8.26886 0.125 9.5C0.125 11.9864 1.11272 14.371 2.87087 16.1291C4.62903 17.8873 7.0136 18.875 9.5 18.875C11.9864 18.875 14.371 17.8873 16.1291 16.1291C17.8873 14.371 18.875 11.9864 18.875 9.5ZM1.6875 9.5C1.6875 7.428 2.5106 5.44086 3.97573 3.97573C5.44086 2.5106 7.428 1.6875 9.5 1.6875C11.572 1.6875 13.5591 2.5106 15.0243 3.97573C16.4894 5.44086 17.3125 7.428 17.3125 9.5C17.3125 11.572 16.4894 13.5591 15.0243 15.0243C13.5591 16.4894 11.572 17.3125 9.5 17.3125C7.428 17.3125 5.44086 16.4894 3.97573 15.0243C2.5106 13.5591 1.6875 11.572 1.6875 9.5Z"/>
</svg>
