<svg fill="none" height="56" viewBox="0 0 56 56" width="56" xmlns="http://www.w3.org/2000/svg"><path d="m54.381 6.23437c1.412-1.4262 1.412-3.73852 0-5.16472-1.4119-1.426198-3.7011-1.426198-5.113 0l-21.548 21.76565-21.54798-21.76565c-1.41193-1.426202-3.70113-1.426197-5.11307 0-1.411932 1.4262-1.411933 3.73852 0 5.16472l21.54795 21.76563-21.54795 21.7656c-1.411935 1.4262-1.411933 3.7385 0 5.1647 1.41194 1.4262 3.70114 1.4262 5.11308 0l21.54797-21.7656 21.548 21.7656c1.4119 1.4262 3.7011 1.4262 5.113 0 1.412-1.4261 1.412-3.7385 0-5.1647l-21.5479-21.7656z" fill="#ff4d4d"/></svg>