<svg xmlns="http://www.w3.org/2000/svg" fill="none" viewBox="0 0 20 20"><path fill="#EA4335" fill-rule="evenodd" d="M2.75 1.5c-.329 0-.646.132-.88.37-.236.238-.37.563-.37.903v14.163c0 .34.134.665.37.903.234.238.551.37.88.37h4a.75.75 0 0 1 0 1.5h-4a2.738 2.738 0 0 1-1.948-.815A2.785 2.785 0 0 1 0 16.936V2.773C0 2.041.288 1.336.802.815A2.738 2.738 0 0 1 2.75 0h4a.75.75 0 0 1 0 1.5h-4ZM13.223 4.263a.75.75 0 0 1 1.06.006l5 5.058a.75.75 0 0 1 0 1.055l-5 5.058a.75.75 0 1 1-1.066-1.055l4.478-4.53-4.478-4.531a.75.75 0 0 1 .006-1.061Z" clip-rule="evenodd"/><path fill="#EA4335" fill-rule="evenodd" d="M5.998 9.854a.75.75 0 0 1 .75-.75h12a.75.75 0 0 1 0 1.5h-12a.75.75 0 0 1-.75-.75Z" clip-rule="evenodd"/></svg>