<svg xmlns="http://www.w3.org/2000/svg">
  <path d="M17.534 17.73 14.91 15.19a5.863 5.863 0 0 1-3.162.187 5.742 5.742 0 0 1-2.774-1.479 5.462 5.462 0 0 1-1.528-2.687 5.344 5.344 0 0 1 .194-3.062L4.293 4.906C1.524 7.29 0 10 0 10s4.875 8.656 13 8.656a11.74 11.74 0 0 0 4.534-.925ZM8.466 2.27c1.43-.606 2.973-.92 4.534-.926C21.125 1.344 26 10 26 10s-1.526 2.709-4.292 5.096l-3.35-3.245c.362-.983.43-2.044.193-3.062A5.463 5.463 0 0 0 17.024 6.1a5.742 5.742 0 0 0-2.775-1.479 5.863 5.863 0 0 0-3.162.188L8.467 2.27v-.002Z"/>
  <path d="M8.978 9.443a3.817 3.817 0 0 0 .168 1.801c.2.58.535 1.107.981 1.539.446.432.99.757 1.589.95a4.188 4.188 0 0 0 1.86.162l-4.6-4.452h.002Zm8.044 1.114-4.597-4.454a4.188 4.188 0 0 1 1.86.162 4.085 4.085 0 0 1 1.588.951c.446.432.783.959.982 1.538.2.58.257 1.197.167 1.802v.001Z"/>
  <path d="M22.176 20 2.676 1.114 3.826 0l19.5 18.886L22.176 20Z"/>
</svg>
