<svg width="20" height="20" viewBox="0 0 20 20" fill="none" xmlns="http://www.w3.org/2000/svg">
<path fill-rule="evenodd" clip-rule="evenodd" d="M14.8544 17.3411C13.463 18.2631 11.7942 18.8 10 18.8C8.20569 18.8 6.53681 18.263 5.14531 17.3409V16.1517C5.14531 15.6922 5.35005 15.235 5.74273 14.8859C6.13772 14.5348 6.68708 14.3274 7.27258 14.3274H12.7271C13.3126 14.3274 13.862 14.5348 14.257 14.8859C14.6497 15.235 14.8544 15.6922 14.8544 16.1517V17.3411ZM16.0544 16.3863V16.1517C16.0544 15.3253 15.6845 14.5493 15.0542 13.989C14.4263 13.4309 13.5883 13.1274 12.7271 13.1274H7.27258C6.41146 13.1274 5.57343 13.4309 4.94549 13.989C4.31525 14.5493 3.94531 15.3253 3.94531 16.1517V16.386C2.25447 14.7824 1.2 12.5143 1.2 10C1.2 5.13989 5.13989 1.2 10 1.2C14.8601 1.2 18.8 5.13989 18.8 10C18.8 12.5145 17.7454 14.7826 16.0544 16.3863ZM20 10C20 15.5228 15.5228 20 10 20C4.47715 20 0 15.5228 0 10C0 4.47715 4.47715 0 10 0C15.5228 0 20 4.47715 20 10ZM9.99915 6.1458C8.82429 6.1458 7.87187 7.09821 7.87187 8.27307C7.87187 9.44793 8.82429 10.4003 9.99915 10.4003C11.174 10.4003 12.1264 9.44793 12.1264 8.27307C12.1264 7.09821 11.174 6.1458 9.99915 6.1458ZM6.67188 8.27307C6.67188 6.43547 8.16155 4.9458 9.99915 4.9458C11.8368 4.9458 13.3264 6.43547 13.3264 8.27307C13.3264 10.1107 11.8368 11.6003 9.99915 11.6003C8.16155 11.6003 6.67188 10.1107 6.67188 8.27307Z" fill="#9AA0A6"/>
</svg>
