<svg width="100%" height="100%" viewBox="0 0 16 15" xmlns="http://www.w3.org/2000/svg">
<path fill-rule="evenodd" clip-rule="evenodd" d="M9.10025 1.03751C11.6998 2.83767 12.3154 6.3584 10.4745 8.90098L14.6594 12.9637C14.6748 12.9779 14.6889 12.9916 14.7034 13.0067C15.1621 13.4794 15.1428 14.2266 14.6594 14.6752C14.1761 15.1243 13.4122 15.1054 12.9531 14.6326L8.70094 10.4985C6.74394 11.629 4.29088 11.53 2.43547 10.2452C-0.164471 8.44502 -0.779715 4.92472 1.06074 2.38214C2.90119 -0.16087 6.50075 -0.762641 9.10025 1.03751ZM2.04321 5.65001C2.04453 7.65921 3.70996 9.28687 5.76414 9.28644H5.76678C7.82185 9.283 9.48507 7.65147 9.48155 5.64183C9.4776 3.63521 7.81305 2.01013 5.7615 2.01099C3.70688 2.01185 2.04277 3.6408 2.04321 5.65001Z"/>
</svg>
