<svg viewBox="0 0 80 80" xmlns="http://www.w3.org/2000/svg">
  <path fill-rule="evenodd" clip-rule="evenodd"
        d="M40 75.1145C59.3932 75.1145 75.1145 59.3932 75.1145 40C75.1145 20.6068 59.3932 4.8855 40 4.8855C20.6068 4.8855 4.8855 20.6068 4.8855 40C4.8855 59.3932 20.6068 75.1145 40 75.1145ZM40 80C62.0914 80 80 62.0914 80 40C80 17.9086 62.0914 0 40 0C17.9086 0 0 17.9086 0 40C0 62.0914 17.9086 80 40 80Z"
  />
  <path
    d="M44.5135 20.331C44.5673 17.8883 42.6711 15.8779 40.3132 15.8779C37.9564 15.8779 36.0606 17.8864 36.1127 20.328L36.6492 45.4472C36.6932 47.5067 38.3169 49.1524 40.3048 49.1524C42.2917 49.1524 43.915 47.5082 43.9603 45.4498L44.5135 20.331ZM40.3035 63.5115C42.9239 63.5115 45.1668 61.2564 45.189 58.449C45.1668 55.6876 42.9239 53.4325 40.3035 53.4325C37.5944 53.4325 35.3959 55.6876 35.4181 58.449C35.3959 61.2564 37.5944 63.5115 40.3035 63.5115Z"
  />
</svg>
