<svg width="100%" height="100%" viewBox="0 0 21 20" xmlns="http://www.w3.org/2000/svg">
<path d="M19.1552 8.63074L2.21996 0.163137C1.95174 0.0283047 1.64981 -0.0247122 1.35171 0.0106794C1.0536 0.0460709 0.772473 0.16831 0.543283 0.362195C0.313517 0.556227 0.145974 0.813622 0.0615594 1.10227C-0.0228552 1.39091 -0.0204038 1.69802 0.0686078 1.98528L2.30418 9.23557H10.2282C10.4312 9.23557 10.626 9.31623 10.7696 9.45981C10.9131 9.60339 10.9938 9.79812 10.9938 10.0012C10.9938 10.2042 10.9131 10.399 10.7696 10.5425C10.626 10.6861 10.4312 10.7668 10.2282 10.7668H2.30418L0.0686078 18.0171C-0.00209622 18.2461 -0.0180542 18.4885 0.022018 18.7248C0.0620902 18.9611 0.157073 19.1847 0.299324 19.3776C0.441575 19.5705 0.627121 19.7273 0.841031 19.8354C1.05494 19.9435 1.29124 19.9999 1.53092 20C1.77 20.0009 2.00598 19.9459 2.21996 19.8392L19.1552 11.3716C19.41 11.2446 19.6243 11.0491 19.7742 10.807C19.924 10.5649 20.0034 10.2859 20.0034 10.0012C20.0034 9.71648 19.924 9.43742 19.7742 9.19533C19.6243 8.95325 19.41 8.75773 19.1552 8.63074Z"/>
</svg>
