<svg fill="none" height="56" viewBox="0 0 56 56" width="56" xmlns="http://www.w3.org/2000/svg"><path d="m29.5571 53.2957 24.4378-24.4919c1.8798-1.8802 2.0051-2.9581 2.0051-5.5903v-9.5261c0-2.6572-.6266-3.4845-2.5315-5.38971l-5.7648-5.76577c-1.8798-1.880138-2.7069-2.53192-5.3638-2.53192h-9.5495c-2.6317 0-3.6844.125343-5.5642 2.00548l-24.51295 24.46692c-3.584203 3.5848-3.659396 7.2949.02506 10.9549l15.86569 15.8434c3.6845 3.66 7.3689 3.6098 10.9531.025zm-2.7069-3.0333c-1.8046 1.805-3.7095 1.83-5.5392-.025l-15.56497-15.5425c-1.8297-1.83-1.80463-3.7603-.02507-5.5402l24.33744-24.2914c.5013-.50137 1.0277-.82726 1.8798-.82726h10.5521c.777 0 1.3034.30082 1.8297.82726l6.8426 6.8186c.5263.5265.802 1.0529.802 1.83v10.579c0 .8272-.3007 1.3537-.802 1.855zm12.5572-30.2076c1.955 0 3.4338-1.5291 3.4338-3.4344 0-1.9302-1.4788-3.4343-3.4338-3.4343-1.9801 0-3.4338 1.5041-3.4338 3.4343 0 1.9053 1.4537 3.4344 3.4338 3.4344z" fill="#86ff00"/></svg>