<svg width="100%" width="100%" viewBox="0 0 70 70" xmlns="http://www.w3.org/2000/svg">
<path fill-rule="evenodd" clip-rule="evenodd" d="M46.6543 8.84263C41.0138 6.32936 34.712 5.70674 28.6887 7.06762C22.6654 8.4285 17.2434 11.7 13.2312 16.3941C9.21914 21.0883 6.83193 26.9536 6.42562 33.1153C6.01932 39.2771 7.6157 45.4051 10.9767 50.5854C14.3377 55.7658 19.2832 59.7209 25.0756 61.8609C30.8681 64.0009 37.1971 64.2111 43.1188 62.4603C49.0405 60.7094 54.2376 57.0912 57.935 52.1454C61.6324 47.1995 63.6319 41.191 63.6354 35.0159V32.0905C63.6354 30.3332 65.06 28.9087 66.8172 28.9087C68.5745 28.9087 69.999 30.3332 69.999 32.0905V35.0195C69.9947 42.5669 67.5508 49.9107 63.0317 55.9556C58.5127 62.0005 52.1607 66.4227 44.9231 68.5627C37.6855 70.7026 29.95 70.4456 22.8703 67.8301C15.7907 65.2145 9.74615 60.3805 5.63828 54.049C1.53041 47.7174 -0.420725 40.2277 0.0758677 32.6966C0.57246 25.1656 3.49017 17.9969 8.39386 12.2596C13.2975 6.5223 19.9245 2.52383 27.2863 0.860531C34.6481 -0.802771 42.3503 -0.0417869 49.2443 3.02999C50.8494 3.74519 51.5708 5.62617 50.8556 7.23129C50.1404 8.83641 48.2594 9.55783 46.6543 8.84263ZM69.0597 7.13172C70.3069 8.36962 70.3144 10.3842 69.0765 11.6314L37.2388 43.7078C36.6417 44.3094 35.8291 44.6479 34.9814 44.6481C34.1337 44.6483 33.321 44.3103 32.7235 43.7089L23.1722 34.0956C21.9337 32.849 21.9402 30.8345 23.1868 29.5959C24.4333 28.3574 26.4479 28.3639 27.6864 29.6105L34.9795 36.9509L64.56 7.14853C65.7979 5.90133 67.8125 5.89381 69.0597 7.13172Z"/>
</svg>
