<svg width="100%" height="100%" viewBox="0 0 16 16" xmlns="http://www.w3.org/2000/svg">
<path d="M7.2125 6.0829H8.775V13H7.2125V6.0829ZM8 4.94301C7.71667 4.94301 7.47917 4.85233 7.2875 4.67098C7.09583 4.481 7 4.24784 7 3.9715C7 3.69516 7.09583 3.46632 7.2875 3.28497C7.47917 3.09499 7.71667 3 8 3C8.28333 3 8.52083 3.09067 8.7125 3.27202C8.90417 3.44473 9 3.66494 9 3.93264C9 4.21762 8.90417 4.45941 8.7125 4.65803C8.52917 4.84801 8.29167 4.94301 8 4.94301Z"/>
<path fill-rule="evenodd" clip-rule="evenodd" d="M8 15C11.866 15 15 11.866 15 8C15 4.13401 11.866 1 8 1C4.13401 1 1 4.13401 1 8C1 11.866 4.13401 15 8 15ZM8 16C12.4183 16 16 12.4183 16 8C16 3.58172 12.4183 0 8 0C3.58172 0 0 3.58172 0 8C0 12.4183 3.58172 16 8 16Z"/>
</svg>
